<svg version="1.1" xmlns="http://www.w3.org/2000/svg" xmlns:xlink="http://www.w3.org/1999/xlink" width="200" height="200" viewBox="0,0,200,200"><defs><radialGradient cx="235" cy="175" r="54.45952" gradientUnits="userSpaceOnUse" id="color-1"><stop offset="0" stop-color="#fffdd7"/><stop offset="1" stop-color="#fffdd7" stop-opacity="0"/></radialGradient></defs><g transform="translate(-140,-80)"><g data-paper-data="{&quot;isPaintingLayer&quot;:true}" fill-rule="nonzero" stroke-linecap="butt" stroke-linejoin="miter" stroke-miterlimit="10" stroke-dasharray="" stroke-dashoffset="0" style="mix-blend-mode: normal"><path d="M140,280v-200h200v200z" fill="none" stroke="#000000" stroke-width="0"/><path d="M201.71132,152.9343c0.23736,-0.07849 0.31584,0.15888 0.31584,0.15888l0.07998,0.24185c0.40778,1.27549 1.77784,2.47019 3.1977,3.59232c0.31564,-0.29687 0.62793,-0.5949 0.93644,-0.89531c-1.67924,-1.55906 -3.19072,-3.28128 -4.42107,-5.24754c-1.846,-2.9536 -3.2144,-6.81817 -0.15124,-9.52057c2.69369,-2.37645 7.0848,-1.26529 9.80283,0.61642c3.56155,2.46569 1.74259,6.43566 -0.33292,9.33219c-1.26389,1.76386 -2.67058,3.31952 -4.17159,4.80677c0.72062,0.64817 1.46993,1.26785 2.23865,1.86554c2.65606,2.06512 5.43887,4.02496 8.43357,5.57777c3.10394,1.60945 6.23916,3.13805 9.41389,4.60331c1.11543,0.51481 2.21278,1.05772 3.29776,1.62217c-0.19589,-0.38311 -0.42281,-0.72373 -0.67911,-1.00599c-2.33526,-2.59474 -5.98951,-3.55919 -7.88786,-6.62485c-2.01692,-3.25713 -0.90384,-6.94497 1.83552,-9.47361c1.71409,-1.58225 3.88781,-2.34865 6.1476,-2.62703c-0.36352,-0.85695 -0.58743,-1.80563 -0.6411,-2.86386c-0.22166,-4.54209 6.50533,-1.84392 8.86336,-0.8794c3.23881,1.32618 6.00203,4.18493 6.52141,7.76837c0.22477,1.58102 0.21981,3.1145 -0.00248,4.60823c0.12227,0.05024 0.24432,0.10098 0.36613,0.15226c1.36291,0.57386 2.74054,1.23868 3.94753,2.08621c1.53838,-1.61291 3.17468,-2.97865 5.78147,-2.94119c3.7668,0.05412 6.52086,1.13878 9.81596,2.82292c3.14168,1.60573 5.95215,3.89344 8.11643,6.68375c2.17951,2.80993 3.90944,5.86729 3.87121,9.47806c-0.03529,3.33345 -0.47983,7.34641 -2.06578,10.33723c-1.67194,3.13489 -3.54023,5.79149 -5.73115,8.58632c-2.13198,2.71277 -5.15389,4.91321 -7.81365,7.07977c-3.11232,2.37183 -5.43302,4.0023 -9.49055,3.42265c-3.32448,-0.47493 -6.65525,-2.60308 -9.46161,-4.36895c-3.0022,-2.97837 3.26319,-6.16691 5.47338,-7.07699c3.72379,-1.53332 5.4018,-3.0278 3.02445,-6.97943c-1.24578,-2.07629 -2.77685,-4.05833 -4.35885,-5.95506c-0.64132,0.64899 -1.32825,1.24954 -2.07556,1.78024c-2.33014,1.65475 -4.70089,2.38491 -7.18025,3.32065c0.22915,1.04311 0.49765,2.07727 0.79394,3.09903c1.23701,4.26582 0.02286,6.30608 -3.42864,8.77618c-2.65189,1.89785 -6.48059,3.77783 -9.79317,3.83319c-0.26868,0.00449 -0.54685,-0.01216 -0.83048,-0.04243c-0.20991,0.58988 -0.38361,1.17747 -0.51084,1.75646c-0.63963,2.87834 -0.32627,4.06738 1.26134,6.52412l-0.00077,0.05199l0.01469,-0.00254l0.07191,0.41477c0.00295,0.01536 0.00449,0.03122 0.00449,0.04744c0,0.13807 -0.11193,0.25 -0.25,0.25c-0.04199,0 -0.08157,-0.01035 -0.11631,-0.02864l-0.44271,-0.22136l0.01305,-0.02608c-2.87348,-1.05763 -5.37367,-3.43849 -8.0694,-4.84773c-3.10216,-1.62276 -6.24257,-3.1407 -9.40629,-4.63962c-3.05938,-1.45475 -6.37328,-3.6702 -6.66362,-7.17892c-0.00018,-0.44098 0.0343,-0.86819 0.09947,-1.28289c-0.0466,-0.04263 -0.09315,-0.08545 -0.13966,-0.12847c-2.57458,-2.38096 -4.9137,-4.84904 -6.81504,-7.80063c-1.25063,-3.32915 -1.96348,-6.80318 -0.50592,-10.22438c1.36348,-3.18146 2.87568,-6.27923 4.60833,-9.27683c1.72549,-2.98521 4.45119,-5.27489 6.97678,-7.57087c0.45889,-0.41717 0.9126,-0.83239 1.35999,-1.24904c-1.44987,-1.15324 -2.85721,-2.37825 -3.32639,-3.75916l-0.07997,-0.24186c0,0 -0.07848,-0.23736 0.15888,-0.31584zM205.35553,157.56469c-0.46697,0.43565 -0.94087,0.86956 -1.42038,1.30548c-2.48577,2.25979 -5.18186,4.51283 -6.88023,7.45112c-1.72271,2.98039 -3.22599,6.06038 -4.58164,9.22357c-1.41422,3.27851 -0.6839,6.6119 0.49307,9.80285c1.86465,2.85696 4.12227,5.25978 6.61988,7.5767c0.63118,-2.73222 2.58477,-4.91743 4.61698,-6.9489c2.59154,-2.32362 5.30408,-4.52212 7.61703,-7.12923c1.53801,-3.19789 1.46362,-6.60008 1.12499,-10.08862c-0.31265,-3.22089 -2.85954,-6.56518 -4.94799,-8.90671c-0.66896,-0.75002 -1.64613,-1.50304 -2.64171,-2.28626zM226.35687,197.00623c0.62407,-0.31229 1.19223,-0.67911 1.67434,-1.11334c1.51381,-1.34562 1.89363,-2.54351 1.7108,-3.78176c-0.8234,1.05415 -1.56616,2.15377 -2.24619,3.15631c-0.37294,0.5498 -0.75752,1.13244 -1.13895,1.73879zM230.13442,191.62031c0.37778,1.54418 0.08358,2.99774 -1.77103,4.64629c-0.69433,0.61042 -1.53942,1.09365 -2.46436,1.48234c-0.85548,1.41776 -1.66391,2.93893 -2.25159,4.45633c0.2166,0.01692 0.43159,0.02518 0.644,0.02163c3.2101,-0.05365 6.94132,-1.90116 9.51054,-3.73986c3.29458,-2.3578 4.42311,-4.14833 3.23941,-8.23033c-0.29243,-1.00842 -0.55792,-2.02879 -0.78581,-3.05785c-0.54737,0.21213 -1.10018,0.43761 -1.65914,0.6884c-1.71709,0.76669 -3.18406,2.1731 -4.46201,3.73305zM246.33213,181.55536c1.61069,1.92939 3.17092,3.94662 4.43893,6.05998c2.51359,4.19984 0.72986,6.05499 -3.26282,7.69903c-1.81105,0.74572 -7.88814,3.66409 -5.35248,6.22335c2.74731,1.70409 5.97773,3.80193 9.22104,4.26526c3.91821,0.55974 6.10267,-1.02892 9.11039,-3.3204c2.62478,-2.13864 5.63201,-4.31245 7.7296,-6.99552c2.17409,-2.77336 4.0246,-5.40274 5.68348,-8.51314c1.55782,-2.90245 1.97269,-6.86715 2.00698,-10.10723c0.03698,-3.49354 -1.65697,-6.44683 -3.76632,-9.16633c-2.11973,-2.73288 -4.87193,-4.97231 -7.94891,-6.54497c-3.23462,-1.65323 -5.89745,-2.71506 -9.59558,-2.7682c-2.40472,-0.03456 -3.95359,1.22203 -5.38562,2.72525c1.51427,1.15234 2.70747,2.62885 3.17511,4.62967c0.82576,3.53303 0.26123,7.01638 -1.76251,10.05198c-1.313,1.96949 -2.65518,4.01787 -4.2913,5.76126zM244.03142,158.39669c0.19796,-1.40843 0.19649,-2.85376 -0.01545,-4.34457c-0.47357,-3.4049 -3.15296,-6.12458 -6.21568,-7.37597c-1.98887,-0.81351 -8.37988,-3.49398 -8.17471,0.39129c0.05349,1.05472 0.28566,1.99222 0.66235,2.83366c0.55159,-0.04993 1.10658,-0.07255 1.65961,-0.07255c0,0 0.25,0 0.25,0.25c0,0.25 -0.25,0.25 -0.25,0.25c-0.47397,0 -0.94958,0.0168 -1.42312,0.05379c0.99964,1.86344 2.73837,3.2341 4.79216,4.37504c2.76253,1.53466 5.7908,2.47068 8.71483,3.63931zM243.95139,158.90312c-2.97602,-1.19753 -6.06273,-2.1449 -8.87761,-3.70865c-2.2058,-1.22538 -4.05644,-2.72207 -5.08542,-4.76131c-2.21438,0.24779 -4.35214,0.96957 -6.02949,2.5179c-2.56759,2.37008 -3.6398,5.79042 -1.74956,8.84297c1.86957,3.01918 5.5242,3.9867 7.83441,6.5536c0.41144,0.46074 0.75245,1.04905 1.01745,1.71375c1.0304,0.54728 2.0507,1.11288 3.06588,1.69107c0.41565,-0.26765 0.83059,-0.53736 1.24496,-0.80929c2.59202,-1.70101 5.41742,-4.41977 6.87507,-7.17312c0.83704,-1.58107 1.41139,-3.19852 1.70432,-4.86691zM231.23047,173.57815c-0.01776,-1.09948 -0.21069,-2.20976 -0.56073,-3.15838c-1.25675,-0.66453 -2.52898,-1.30131 -3.82585,-1.89986c-3.18168,-1.46847 -6.32378,-3.00043 -9.43452,-4.61341c-3.02155,-1.56673 -5.83041,-3.54325 -8.51032,-5.62692c-0.78653,-0.61154 -1.55242,-1.24593 -2.28851,-1.9097c-0.29925,0.29171 -0.60204,0.58117 -0.90797,0.86947c1.01982,0.79555 2.02148,1.55413 2.66781,2.27879c2.16013,2.42189 4.74923,5.86077 5.07251,9.19122c0.3498,3.60362 0.41454,7.11979 -1.20635,10.41385c-2.3131,2.65497 -5.07142,4.86966 -7.68957,7.21538c-2.02211,2.02287 -4.00445,4.20898 -4.53486,6.97567c2.51929,2.26803 5.18393,3.96809 8.46981,4.95385c1.85568,0.5567 3.72788,0.83497 5.61544,0.88925c-0.74857,-2.73487 -1.06904,-5.50702 -1.21264,-8.37902c-0.21063,-4.21261 1.68016,-6.21194 4.783,-8.75451c2.68043,-2.19644 5.88522,-3.91207 8.88319,-5.64904c1.57789,-0.9142 3.13557,-1.84387 4.67956,-2.79665zM214.2402,199.66093c-1.98473,-0.04435 -3.95312,-0.32924 -5.90196,-0.9139c-3.25024,-0.97507 -5.91313,-2.63479 -8.41572,-4.84286c-0.0315,0.28041 -0.04798,0.56672 -0.04811,0.85933c0.27581,3.2854 3.5011,5.39016 6.37813,6.74785c3.16967,1.50173 6.31599,3.02262 9.42398,4.64843c2.06861,1.08278 6.17846,2.90872 7.90822,4.73392c-1.52092,-2.32067 -1.73897,-3.75055 -1.11436,-6.56131c0.12703,-0.56591 0.29568,-1.13882 0.49735,-1.71347c-1.22974,-0.18592 -2.51514,-0.53979 -3.54175,-0.48096c-1.9699,0.11288 -3.70219,1.11527 -4.74826,-1.11899c-0.15885,-0.45195 -0.3043,-0.90454 -0.43752,-1.35805zM236.6227,186.5266c2.41494,-0.90385 4.72438,-1.6235 6.99571,-3.23649c0.73609,-0.52274 1.41225,-1.11548 2.04325,-1.75649c-0.5487,-0.65147 -1.10157,-1.29282 -1.64898,-1.92444c-1.92598,-2.22228 -4.49565,-4.05564 -7.04068,-5.61199c-0.86336,1.68422 -1.06274,3.32888 -1.06274,6.03791c0,2.17934 0.2707,4.35299 0.71344,6.4915zM237.21168,173.5578c2.59545,1.58624 5.21348,3.45618 7.17885,5.72391c0.53749,0.62018 1.08012,1.24976 1.61893,1.88904c1.59973,-1.71299 2.91224,-3.72543 4.19795,-5.65399c1.94857,-2.92285 2.48653,-6.25995 1.69165,-9.66084c-0.44316,-1.8961 -1.58436,-3.29126 -3.02841,-4.38026c-0.75976,0.82286 -1.50286,1.69263 -2.34296,2.44872c-2.6244,2.36196 -5.16234,4.35417 -7.44299,7.06439c-0.80772,0.95955 -1.41649,1.77891 -1.87303,2.56903zM236.78737,173.3008c0.47128,-0.81665 1.09475,-1.65979 1.91482,-2.63402c2.29647,-2.72727 4.8504,-4.73749 7.49103,-7.11405c0.81962,-0.73766 1.54906,-1.56749 2.28614,-2.35989c-1.16584,-0.80821 -2.4946,-1.44067 -3.79874,-1.98979c-0.08522,-0.03588 -0.17056,-0.07149 -0.256,-0.10686c-0.30743,1.68204 -0.89198,3.3142 -1.73565,4.90779c-1.49686,2.82739 -4.37992,5.60979 -7.04263,7.35719c-0.34303,0.22511 -0.68647,0.44872 -1.03037,0.6709c0.51002,0.29288 1.01895,0.58872 1.52742,0.88679c0.21399,0.12545 0.42878,0.25273 0.64398,0.38194zM206.59781,155.68206c1.4879,-1.47281 2.88235,-3.01308 4.13464,-4.76075c1.90688,-2.66119 3.75041,-6.34826 0.45475,-8.62987c-2.52512,-1.74816 -6.67489,-2.8692 -9.18743,-0.65257c-2.86307,2.52588 -1.46716,6.14206 0.24444,8.88062c1.20867,1.93626 2.69898,3.62972 4.35361,5.16256zM214.76324,199.66709c0.11631,0.38815 0.24185,0.77567 0.37733,1.16275c0.91157,1.94053 2.53097,0.85912 4.27441,0.80824c1.14014,-0.03327 2.44642,0.34651 3.72383,0.51333c0.53071,-1.39426 1.24178,-2.79037 2.01098,-4.11335c-2.14611,0.76049 -4.59611,1.09366 -6.56315,1.36189c-1.28045,0.17461 -2.55519,0.26878 -3.8234,0.26713zM229.96741,191.04955c1.27501,-1.51028 2.73001,-2.85489 4.42433,-3.61848c0.59277,-0.26596 1.17836,-0.50282 1.7577,-0.72522c-0.45916,-2.19695 -0.74018,-4.43097 -0.74018,-6.67076c0,-2.78949 0.22481,-4.52407 1.13811,-6.29524c-0.21956,-0.13189 -0.43866,-0.26174 -0.65686,-0.38966c-0.58179,-0.34105 -1.16418,-0.67918 -1.74811,-1.01328c-0.80231,0.51467 -1.60737,1.02181 -2.41609,1.52253c-0.02191,1.8251 -0.51585,3.59218 -1.55422,4.63732c-3.14446,2.18614 -3.62733,5.02082 -2.01393,8.59042c0.66734,1.48037 1.40385,2.75825 1.80923,3.96235zM231.22292,174.17003c-1.45947,0.89717 -2.93146,1.77419 -4.42135,2.63741c-2.97452,1.72338 -6.15751,3.42391 -8.81694,5.60314c-2.98808,2.44853 -4.80333,4.28697 -4.60054,8.3428c0.14426,2.88519 0.46751,5.66707 1.23435,8.41333c1.2932,0.00928 2.59354,-0.08393 3.90064,-0.26217c2.07067,-0.28236 4.79289,-0.63131 7.02711,-1.53395c0.50735,-0.83718 1.03029,-1.63853 1.53584,-2.38384c0.75999,-1.1204 1.59303,-2.34533 2.5242,-3.49939c-0.35614,-1.26238 -1.18371,-2.5971 -1.90389,-4.19468c-1.68055,-3.73729 -1.19222,-6.87767 2.14838,-9.17894c0.8666,-0.87979 1.30582,-2.36802 1.37218,-3.94371zM231.30301,170.7576c0.23701,0.78997 0.37769,1.65309 0.4144,2.51901c0.64692,-0.40201 1.29154,-0.80822 1.93436,-1.21921c-0.77892,-0.44182 -1.56108,-0.87596 -2.34876,-1.2998z" fill="#ffd263" stroke="none" stroke-width="0.5"/><path d="M180.54049,175c0,-30.07716 24.38236,-54.45951 54.45952,-54.45951c30.07716,0 54.45952,24.38236 54.45952,54.45952c0,30.07716 -24.38236,54.45952 -54.45952,54.45952c-30.07716,0 -54.45952,-24.38236 -54.45952,-54.45952z" fill="url(#color-1)" stroke="none" stroke-width="0"/><path d="M208.24937,195.26059l16.42771,-12.37514l-16.18692,-16.85337l16.66334,-0.73692l-0.7627,-14.30894l27.73336,10.59364l13.78156,-13.7096c0,0 -2.75742,28.7121 -15.44262,39.13863c-12.68519,10.42653 -42.21374,8.25172 -42.21374,8.25172z" fill="#989898" stroke="#898989" stroke-width="5"/><path d="M291.38847,168.15723c-0.13867,0.20801 -0.34669,0.06933 -0.34669,0.06933l-0.14382,-0.09588c-1.02057,-0.68038 -1.64372,-1.40655 -2.07121,-2.21371c1.0202,2.87014 0.16393,5.3321 -2.13909,7.82718c-1.81263,1.96195 -3.91879,3.5223 -6.16062,4.90598c1.0908,0.95548 2.19157,1.89924 3.31739,2.81397c2.78787,2.26976 4.82092,5.24086 5.97206,8.61683c1.28274,3.76191 1.30939,6.87276 -1.33684,9.97744c-2.20153,2.53271 -7.3827,1.38519 -10.24448,0.85869c-3.32177,-0.61112 -6.77656,-1.71038 -9.93587,-2.91656c-3.55329,-1.3577 -5.68998,-3.4419 -8.16312,-6.26835c-1.28714,-1.47102 -2.52173,-2.96072 -3.78281,-4.43168c-1.78613,0.62409 -3.51313,1.41203 -5.1522,2.35125c0.46938,2.41044 1.42243,4.84336 1.93604,7.14961c0.67549,3.06797 2.58609,6.56903 4.60773,8.93848c2.08348,2.44192 4.75784,5.83913 3.85508,9.29476c-0.92476,3.18089 -7.76407,-0.42377 -9.65052,-1.14245c-2.88905,-1.10488 -7.0244,-2.88473 -9.07268,-5.26154c-2.40561,-2.80654 -1.24493,-6.96662 -0.22031,-10.11664c1.49623,-3.26191 3.41762,-6.11539 6.43753,-8.14208c0.5094,-0.34187 1.0291,-0.66853 1.55813,-0.97957c-0.1553,-0.87614 -0.24381,-1.74969 -0.22314,-2.6148c0.04642,-1.8464 0.725,-3.13159 1.79697,-3.99692c-2.05158,-2.09832 -4.16272,-4.09993 -6.42452,-5.98476c-0.15172,-0.12643 -0.30429,-0.25272 -0.45768,-0.37876c-0.25171,0.45114 -0.52624,0.89136 -0.82759,1.31827c-2.09028,2.95099 -4.4399,5.15831 -7.08308,7.61395c-2.95067,2.74132 -6.15975,2.36877 -9.46687,0.16188c-3.0356,-2.03517 -5.67851,-4.07832 -7.73005,-7.12832c-1.25266,-3.09991 -3.01855,-6.86967 -1.6672,-10.21695c1.49833,-3.68386 6.29862,-3.09565 9.40188,-2.04152c3.34823,1.14016 6.39651,2.82461 9.55164,4.40218c2.71792,1.35896 5.2898,3.19726 7.67033,5.12241c1.25788,-2.45829 1.88346,-5.22288 2.53307,-7.88188c0.82209,-3.36498 1.15252,-6.80758 2.17279,-10.12936c1.50719,-2.11742 3.62839,-3.14629 5.95361,-3.79114c0.56612,-2.37177 2.31018,-4.74001 3.92142,-5.97449c2.21819,-1.69394 5.64624,-3.49419 8.3471,-1.71326c0,0 0.20801,0.13867 0.06934,0.34669c-0.13867,0.20801 -0.34669,0.06934 -0.34669,0.06934c-2.47998,-1.67437 -5.75027,0.15506 -7.76629,1.69461c-1.41348,1.07557 -3.07901,3.2579 -3.69539,5.43743c0.92209,-0.2315 1.87074,-0.41223 2.82133,-0.58453c3.5697,-0.22615 6.95687,-0.24044 10.52445,0.02063c3.42557,0.25068 6.93676,1.34342 10.09873,2.6253c2.75998,1.11891 7.48591,2.86075 8.28213,6.04563c0.63428,2.53714 0.72395,4.33881 3.06685,5.90073l0.14382,0.09588c0,0 0.20801,0.13868 0.06934,0.34669zM244.95366,176.09857c-2.37367,-1.92491 -4.94009,-3.7675 -7.65473,-5.12482c-3.13473,-1.56736 -6.16279,-3.24334 -9.48921,-4.37608c-2.82963,-0.96608 -7.39715,-1.63732 -8.77756,1.75659c-1.30606,3.1846 0.47384,6.84589 1.64567,9.79411c2.02094,2.9678 4.59867,4.95751 7.56686,6.94748c3.1163,2.10021 6.0795,2.45931 8.84812,-0.11288c2.61978,-2.43391 4.94434,-4.61283 7.01538,-7.53665c0.30945,-0.43523 0.58974,-0.88543 0.84546,-1.34775zM252.57338,183.13737c-0.98165,0.78362 -1.60179,1.95351 -1.64451,3.6527c-0.02047,0.77292 0.04972,1.55456 0.1785,2.33974c1.56268,-0.88357 3.20278,-1.63243 4.89614,-2.23606c-0.89292,-1.03429 -1.80263,-2.05754 -2.75683,-3.05665c-0.22385,-0.23439 -0.44824,-0.46764 -0.67329,-0.69974zM280.13436,178.30535c2.25243,-1.37885 4.37135,-2.93254 6.18588,-4.90033c2.55656,-2.76977 3.23647,-5.41273 1.37223,-8.76835c-1.54929,-2.8091 -5.30742,-4.65271 -8.20905,-5.68901c-2.84075,-1.01455 -7.21317,-1.83093 -10.13196,-0.90202c-3.80313,1.21035 -1.0459,6.16391 0.19261,8.42494c1.63069,2.98004 3.85298,5.90422 6.41397,8.14112c1.3999,1.22274 2.78142,2.4661 4.17631,3.69365zM279.68598,178.57656c-1.35432,-1.19332 -2.69694,-2.40049 -4.05684,-3.58829c-2.60648,-2.27662 -4.8615,-5.24622 -6.52357,-8.27749c-1.40592,-2.56663 -4.14094,-7.79372 0.09427,-9.14159c3.02533,-0.96282 7.50646,-0.14429 10.45175,0.90759c3.03469,1.08382 6.84555,2.99778 8.47797,5.91707c0.09136,0.16445 0.17695,0.32746 0.25684,0.48911c-0.30009,-0.87625 -0.48788,-1.84723 -0.76301,-2.94777c-0.74588,-2.98352 -5.39999,-4.65559 -7.98491,-5.70353c-3.11496,-1.26282 -6.57283,-2.34305 -9.94737,-2.59c-3.5365,-0.2588 -6.88887,-0.24099 -10.42746,-0.02298c-1.01656,0.18608 -2.03226,0.37875 -3.01405,0.63616c-0.19774,0.9958 -0.15183,1.97143 0.26325,2.81984c1.48744,3.1608 3.62595,5.83775 4.87876,9.12331c1.19903,3.14449 1.82829,6.65249 2.30749,9.9752c0.18498,1.30013 0.46179,4.14889 -0.61954,5.1273c-0.9939,0.8993 -3.8003,0.42306 -5.06737,0.42306c-1.90947,0 -3.71592,0.28678 -5.02694,1.12035c0.20819,0.21498 0.41583,0.43095 0.62301,0.64787c1.00619,1.05354 1.96318,2.13394 2.90316,3.22582c0.66993,-0.22593 1.34771,-0.42924 2.0319,-0.60928c3.38866,-0.89175 6.8274,-1.33548 10.1774,-2.38235c3.32822,-1.04007 6.34827,-2.53757 9.38711,-4.23834c0.5311,-0.29725 1.05784,-0.59997 1.57815,-0.91106zM255.74301,154.39462c-2.09542,0.60885 -4.00549,1.56755 -5.39589,3.46429c-0.96276,3.29791 -1.32213,6.69766 -2.13547,10.02681c-0.66872,2.73722 -1.32248,5.56324 -2.62662,8.0825c0.17998,0.1475 0.35884,0.29539 0.53654,0.44348c2.29352,1.91126 4.43339,3.94198 6.5128,6.07137c1.40283,-0.92211 3.33469,-1.25953 5.37782,-1.25953c1.06356,0 3.91699,0.4701 4.72931,-0.29145c0.91616,-0.8589 0.62552,-3.5755 0.46272,-4.68753c-0.47407,-3.28714 -1.09368,-6.75777 -2.2798,-9.86843c-1.24762,-3.27194 -3.38186,-5.93904 -4.86399,-9.08855c-0.40613,-0.89069 -0.47806,-1.88423 -0.31742,-2.89296zM250.75218,189.91409c-0.46759,0.27862 -0.92766,0.5697 -1.37952,0.87295c-2.93552,1.97004 -4.79096,4.74143 -6.25041,7.90876c-0.95756,2.96117 -2.13478,6.96224 0.13419,9.60938c1.96523,2.30656 6.08475,4.0626 8.87106,5.1197c2.05961,0.78465 4.32653,2.05922 6.52367,2.21616c0.91557,0.0654 2.19925,0.41879 2.46559,-0.73476c0.87995,-3.2557 -1.80285,-6.55722 -3.7522,-8.84194c-2.08096,-2.43898 -4.00599,-6.00116 -4.7154,-9.15432c-0.50465,-2.26602 -1.41223,-4.6361 -1.89699,-6.99592zM256.86302,187.12737c1.21488,1.42027 2.40791,2.85664 3.64944,4.27553c2.42108,2.76695 4.48869,4.80213 7.9653,6.13053c3.12992,1.19693 6.55613,2.28628 9.84787,2.89189c2.59127,0.47673 7.79822,1.68302 9.77348,-0.69128c2.53242,-2.97116 2.47293,-5.88799 1.24412,-9.49173c-1.11977,-3.28396 -3.09546,-6.18603 -5.81411,-8.39014c-1.17118,-0.95159 -2.31533,-1.93449 -3.44934,-2.92932c-0.56883,0.34276 -1.14559,0.67525 -1.72778,1.00109c-3.06871,1.71749 -6.12106,3.22893 -9.48217,4.27928c-3.35757,1.04924 -6.80335,1.49498 -10.19929,2.38864c-0.60803,0.16001 -1.2109,0.33867 -1.80755,0.53552z" fill="#fff764" stroke="none" stroke-width="0.5"/><path d="M240.23915,194.24336c-0.24275,-0.05977 -0.18298,-0.30252 -0.18298,-0.30252l0.05609,-0.22782c0.03134,-0.12724 0.06212,-0.25463 0.09243,-0.38213c-1.11419,-0.92128 -2.44879,-1.63304 -3.82743,-2.28628c-0.13897,1.01152 -0.43275,1.97445 -0.8718,2.87532c0.48886,0.27837 0.97848,0.55543 1.46906,0.83084c1.13003,0.6344 2.25642,1.27157 3.38675,1.90015c0.71146,-0.18205 1.4598,-0.54968 2.21432,-1.01802c-0.60237,-0.65537 -1.25269,-1.2924 -1.94606,-1.93019c-0.01053,0.04331 -0.02112,0.08659 -0.03177,0.12987l-0.05609,0.22782c0,0 -0.05977,0.24274 -0.30252,0.18297zM240.76117,193.14824c0.05566,0.04881 0.11074,0.0982 0.1652,0.14818c0.74142,0.68037 1.43504,1.3606 2.07521,2.06221c1.89022,-1.25857 3.78286,-3.04728 5.1971,-4.03804c0.2707,-0.18523 0.54149,-0.36943 0.81212,-0.55307c-0.77123,-0.45238 -1.54574,-0.89963 -2.3267,-1.33688c-1.70301,-0.72845 -3.3011,-1.1561 -4.93204,-1.32635c-0.12723,0.76016 -0.25101,1.52731 -0.39096,2.30101c-0.19757,0.91458 -0.38837,1.83132 -0.59993,2.74294zM243.58191,181.32939c0.2676,-0.00859 0.5352,-0.01729 0.80279,-0.02616c3.5108,-0.1163 6.81606,-0.51728 10.21828,-1.38097c1.38286,-0.34554 2.65143,-1.06285 3.82876,-1.94825c-1.45995,-1.33599 -2.79795,-2.79868 -3.84649,-4.46076c-0.08501,-0.13475 -0.17107,-0.27025 -0.25789,-0.40648c-1.05977,-0.0118 -2.12525,-0.03213 -3.20484,-0.03963c-3.16879,-0.0342 -6.65738,2.4726 -8.0398,5.25369c-0.12306,0.24612 -0.22419,0.48973 -0.30464,0.73028c0.70422,0.34878 1.15573,0.84407 1.16644,1.55249c-0.12876,0.24095 -0.24937,0.48288 -0.36261,0.72579zM242.31607,178.855c0.0858,-0.24992 0.19189,-0.50269 0.31943,-0.75777c1.48946,-2.96313 5.11496,-5.54198 8.49049,-5.53008c0.96949,0.00673 1.92736,0.02408 2.87987,0.03625c-0.7502,-1.17404 -1.52844,-2.40194 -2.15013,-3.68412c-0.7826,-1.1714 -1.44711,-2.31415 -1.85791,-3.47806c-2.30014,1.12125 -4.59944,2.2355 -6.78444,3.57435c-3.01788,1.8492 -5.7343,3.87027 -8.49811,6.07961c-0.94699,0.75701 -1.85282,1.57292 -2.72288,2.42923c0.89662,0.26709 1.83878,0.45292 2.83197,0.55933c1.562,0.16736 5.31821,-0.0215 7.49172,0.77125zM230.79531,177.10882c0.00987,-0.0131 0.01976,-0.02621 0.02964,-0.03931c-1.64968,-2.16897 -3.59978,-4.10569 -5.3983,-6.15025c-0.55542,-0.63139 -1.05489,-1.28374 -1.49465,-1.95844c-0.09436,0.0958 -0.18782,0.19262 -0.28044,0.29046c0.21704,1.68664 0.97262,3.3081 2.22039,4.55587c1.48215,1.48215 3.10578,2.57685 4.92336,3.30167zM223.62578,167.44728c0.12589,0.24302 0.25948,0.48318 0.40062,0.72057c1.27193,-1.21198 2.70224,-2.24553 4.38083,-3.05156c3.23067,-1.55131 6.38668,-2.77274 9.80421,-3.85225c3.25139,-0.37006 6.29597,-0.27713 9.51271,-0.03393c0.90723,-0.51203 1.81671,-1.02199 2.70701,-1.55778c0.02606,-0.04983 0.05274,-0.0998 0.08007,-0.1499c0.44322,-0.80344 0.9732,-1.40068 1.56551,-1.82898c-0.02369,-0.00365 -0.04604,-0.0069 -0.06694,-0.00976c-3.46686,-0.48369 -6.8292,-0.66979 -10.33227,-0.46961c-3.46299,0.19789 -6.75425,0.70364 -10.14776,1.44147c-3.46606,0.75349 -6.34518,1.75728 -9.26679,3.80719c-0.01785,0.02228 -0.03566,0.04456 -0.05343,0.06685c0.04292,0.53015 0.11678,1.04835 0.22047,1.55517c0.92094,-0.37903 2.39107,-0.69713 2.0769,0.49118c-0.49061,0.90052 -0.78122,1.87834 -0.88115,2.87133zM217.58199,166.95009c-2.13589,-2.24332 -4.16506,-4.64938 -6.1744,-6.99361c-2.19854,-2.56497 -4.64503,-5.0634 -6.64757,-7.77843c-1.92149,-2.60773 -4.53908,-5.60071 -5.23127,-8.84403c-0.90296,-4.2998 2.03279,-6.26709 6.00015,-7.06716c1.61331,-0.32534 6.38322,-0.48086 8.5553,0.87173c2.74471,-0.92085 5.32019,-0.9935 8.41752,-0.70175c3.25096,0.75471 7.04312,1.62648 9.51376,4.07689c0.72053,0.72074 1.39794,1.42053 1.9913,2.1371c0.81716,0.20041 1.66185,0.52017 2.16615,0.64567c1.01551,0.25509 2.00736,0.66011 2.97075,1.15887c1.01058,-0.1288 2.0221,-0.19441 3.0111,-0.19441c0,0 0.25,0 0.25,0.25c0,0.25 -0.25,0.25 -0.25,0.25c-0.7398,0 -1.49261,0.0375 -2.24811,0.11146c1.91236,1.09885 3.70374,2.51835 5.33487,3.79702c2.80489,2.1988 5.10715,4.75126 7.22354,7.60378c0.21263,0.28659 0.41871,0.57652 0.61873,0.86957c0.05615,-0.02213 0.11268,-0.04317 0.16954,-0.06312c0.68221,-0.70378 1.50845,-1.34579 2.4927,-1.94727c0.13673,-0.08356 0.27591,-0.17175 0.41732,-0.26394c1.00822,-1.13199 1.95422,-2.31301 2.84982,-3.41485c0.80207,-0.88263 1.60894,-1.77244 2.27197,-2.71097c-2.23701,-0.85767 -3.97387,-1.96093 -5.81071,-3.60145c-1.88306,-2.80794 -3.08485,-7.53984 0.53794,-9.53327c3.70258,-0.0009 5.86944,3.57816 6.94178,6.79271c0.785,2.35501 0.21434,4.30613 -0.90359,6.07889c0.67275,0.20843 1.3567,0.42762 1.93948,0.77173c-0.68288,-2.20345 -0.80662,-4.41413 -0.34049,-6.96426c0.81765,-4.30621 4.64065,-5.24103 8.29777,-4.65462c3.15758,1.19955 6.74763,2.88917 9.07346,5.39792c2.61046,2.81578 -0.42899,7.08701 -2.83568,9.06678c-1.51141,1.2433 -3.37166,2.48711 -5.34233,2.84915c-0.86317,0.15858 -3.66357,0.09107 -2.45459,0.69531c2.41708,1.20573 8.00815,2.85858 8.05123,6.16528c0,3.57969 0.32044,6.82516 1.08478,10.32323c0.12712,3.51192 0.27131,7.40574 -2.48791,10.05768c-2.00376,1.90742 -4.02805,3.79068 -6.06038,5.66663c1.08227,1.05224 2.46771,2.28263 2.95844,3.5736c0.6059,1.59398 -0.64172,3.32644 0.04519,4.86019c1.02636,2.3734 6.91385,7.04148 0.94377,6.24494c-2.17923,-0.29316 -4.16855,-0.89816 -6.13058,-1.66496c-0.54973,1.23091 -1.44497,2.37549 -2.65337,3.51542c-3.1221,0.97552 -7.43536,1.27258 -10.55626,0.03231c-0.51802,-0.2083 -1.03381,-0.41854 -1.54768,-0.63099c-2.25703,0.95213 -4.3489,1.10566 -6.51238,0.66011c0.44483,2.62748 0.28485,5.50074 -1.34105,7.63213c-2.13821,2.76378 -4.30973,5.6715 -7.54008,7.20015c-3.05385,1.44512 -6.93196,2.58052 -10.32546,1.52217c-2.5846,-0.81605 -2.63413,-2.06331 -4.13968,-3.90519c-0.88778,-1.08611 -2.41469,-1.64727 -3.63693,-2.25867c-2.94773,-1.68001 -6.32925,-4.12287 -6.31338,-7.894c0.00982,-2.33301 0.74643,-4.34772 1.58712,-6.36851c-0.94689,-0.24632 -1.91979,-0.54162 -2.96382,-0.88c-1.59866,-0.52017 -3.20882,-1.33883 -4.72974,-2.19508c-1.63567,2.81246 -1.81699,5.81467 -2.57818,8.97639c-0.87734,3.64416 -4.9343,5.11477 -8.32288,3.84942c-3.53271,-1.31916 -5.25785,-4.66633 -5.48434,-8.29029c-0.22027,-3.52441 0.68305,-6.7496 2.08799,-9.96965c0.62472,-1.43182 1.33986,-2.7116 2.20931,-3.83901c-0.1259,-0.04606 -0.25059,-0.09151 -0.37396,-0.13608c-3.01979,-1.56571 -6.33678,-3.00796 -9.06748,-5.05246c-2.78255,-2.08692 -5.36501,-4.20917 -7.43519,-7.03245c-2.19411,-2.99229 -3.73079,-5.75086 -4.56224,-9.38177c-0.90277,-3.99742 1.21096,-6.89677 4.819,-8.2281c3.38264,-1.24816 6.8185,-1.62351 10.4051,-1.47216c3.66083,0.15448 6.83177,1.33271 10.00677,3.08443c3.08616,1.70271 4.97321,4.80165 6.82831,7.69989c1.87167,2.92414 3.47611,6.01954 5.32297,8.96486c0.33928,0.54107 0.70067,1.05859 1.08133,1.55621c0.50224,-1.00482 0.96165,-2.03001 1.41963,-3.05655c-0.09969,-0.08267 -0.19939,-0.16547 -0.29906,-0.24841c-0.38262,-0.23895 -3.41069,-1.96056 -3.45013,-2.15172c-0.05659,-0.27429 1.02719,-1.03506 1.23063,-1.20666c1.25155,-1.05569 2.54676,-2.06795 3.83617,-3.07707c0.60174,-0.47093 1.19347,-0.91498 1.78821,-1.33671zM221.64993,181.0128c-0.2321,0.91592 -0.47428,1.82898 -0.70965,2.74563c0.77397,-0.34785 1.59239,-0.65236 2.47834,-0.91163c-0.43632,-0.47195 -0.87466,-0.94254 -1.30903,-1.41635c-0.15282,-0.14001 -0.30604,-0.2792 -0.45965,-0.41765zM225.82422,185.56049c-0.26171,0.89284 -0.28364,1.76296 -0.09977,2.67796c0.71942,0.4226 1.44181,0.84072 2.16259,1.26096c0.28856,0.16824 0.57702,0.33661 0.86547,0.50504c-0.07703,-0.1902 -0.14619,-0.35655 -0.20802,-0.47317c-0.76056,-1.43447 -1.69869,-2.73402 -2.72027,-3.97079zM229.07652,190.77274c-0.48035,-0.28061 -0.96073,-0.56117 -1.44132,-0.84138c-0.57969,-0.338 -1.16036,-0.67468 -1.73968,-1.01341c0.24108,0.8034 0.62614,1.65157 1.13399,2.58659c1.41613,1.40757 2.85391,2.76089 4.38444,4.00377c0.67258,0.18607 1.34359,0.37005 2.016,0.53835c0.55976,-0.59814 1.03184,-1.24356 1.41138,-1.92996c-1.43219,-0.81835 -2.85828,-1.64726 -4.28302,-2.47861c-0.24052,0.12108 -0.47185,0.18326 -0.66931,0.13338c-0.32038,-0.08094 -0.58897,-0.51807 -0.81248,-0.99873zM231.03695,191.33847c1.34205,0.78275 2.68553,1.56295 4.03441,2.33381c0.43028,-0.89071 0.71062,-1.84493 0.83119,-2.84985c-0.845,-0.39119 -1.69887,-0.76705 -2.52167,-1.16179c-0.45059,0.26816 -0.88033,0.55072 -1.27732,0.82507c-0.24877,0.17192 -0.64716,0.54845 -1.06661,0.85276zM236.39038,188.36984c0.08916,0.73811 0.10282,1.45902 0.04399,2.15846c1.38997,0.65305 2.7458,1.35638 3.89605,2.26223c0.18824,-0.82566 0.36135,-1.65501 0.54024,-2.48254c0.13499,-0.74688 0.25074,-1.49837 0.36859,-2.24872c-1.42773,-0.10181 -2.89132,-0.01183 -4.48179,0.24127c-0.12196,0.0189 -0.24438,0.04212 -0.36707,0.0693zM249.48819,191.04839c-0.33491,0.22671 -0.67002,0.45417 -1.00489,0.68329c-1.42988,1.00176 -3.27943,2.73131 -5.15454,3.99283c1.04464,1.19275 1.93556,2.4564 2.64604,3.89314c0.07038,0.03448 0.14083,0.06886 0.21133,0.10314c2.59473,1.26157 5.19671,2.42236 7.84942,3.52294c0.01811,-0.00793 0.03623,-0.01591 0.05437,-0.02393c2.42522,-1.87329 4.72006,-3.73787 6.94077,-5.81137c-1.85113,-0.86539 -3.68551,-1.76741 -5.45661,-2.77418c-2.04895,-1.16472 -4.05831,-2.38961 -6.08589,-3.58586zM261.51975,197.63609c-2.21837,2.08732 -4.50638,3.97277 -6.93796,5.83314c0.39472,0.16213 0.79062,0.32299 1.18784,0.48272c2.9873,1.21737 7.11101,0.8447 10.11716,0.00007c1.09481,-1.09435 1.91733,-2.14992 2.4303,-3.27307c-1.10609,-0.44725 -2.20766,-0.94223 -3.33402,-1.45793c-1.15188,-0.52739 -2.31005,-1.05023 -3.46332,-1.58494zM270.6201,187.50235c2.03605,-1.8793 4.06407,-3.7659 6.07145,-5.67677c2.65612,-2.50051 2.44292,-6.31042 2.33659,-9.63286c-0.78303,-3.51295 -1.08872,-6.78975 -1.08872,-10.3859c0.04886,-2.94661 -5.66672,-4.66646 -7.7746,-5.71794c-0.52412,-0.26196 -1.4112,-0.50194 -0.43662,-1.13129c0.81115,-0.52382 2.5364,-0.28986 3.48756,-0.58552c1.73582,-0.53956 3.27093,-1.52531 4.65169,-2.66113c2.16917,-1.78438 5.16413,-5.77624 2.78666,-8.3407c-2.26616,-2.44439 -5.76727,-4.06977 -8.83583,-5.2548c-3.33364,-0.5158 -6.97251,0.22242 -7.67688,4.26146c-0.50113,2.74159 -0.3014,5.06008 0.56002,7.42144c0.04402,0.04486 0.08669,0.09125 0.12795,0.13929c-0.01916,0.01661 -0.03837,0.03319 -0.05762,0.04973c0.28051,0.73951 0.62566,1.48443 1.03427,2.24903c1.61554,3.02304 3.6424,5.92494 5.78289,8.60056c2.29561,2.86951 4.07155,6.67409 -0.23043,8.86605c-2.16972,1.08486 -4.31727,1.92747 -6.58106,2.49501c-0.46206,0.76212 -1.01659,1.4776 -1.67266,2.13209c-1.04855,1.04352 -2.15607,2.18669 -3.35584,3.21114c-0.00543,0.3023 -0.01949,0.59974 -0.04232,0.89284c0.86009,0.73432 1.74878,1.43175 2.63327,2.10661c2.79109,2.1296 5.44083,4.43225 8.07594,6.75069c0.06562,0.06934 0.13384,0.13969 0.20426,0.21098zM257.27705,176.14019c-0.76682,-1.0197 -1.55568,-2.02125 -2.3379,-3.02771c-0.00528,-0.00004 -0.01055,-0.00007 -0.01583,-0.00011c0.02839,0.04479 0.05667,0.08949 0.08481,0.1341c0.65483,1.03799 1.42543,1.99633 2.26892,2.89372zM251.11368,164.33299c0.36885,-0.17927 0.73739,-0.35916 1.1052,-0.54044c0.01346,-0.01292 0.0276,-0.02636 0.04237,-0.04031c-0.35042,-0.23001 -0.71399,-0.44871 -1.08993,-0.661c-0.02319,0.24855 -0.04042,0.50328 -0.05188,0.76451c-0.00701,0.15975 -0.00883,0.31883 -0.00576,0.47723zM261.56579,148.32851c1.08729,-1.67812 1.66199,-3.52591 0.91404,-5.76976c-1.00786,-3.02597 -2.94463,-6.26502 -6.34473,-6.46612c-3.18037,1.90747 -1.9487,6.19154 -0.28352,8.72028c1.55145,1.36237 2.92862,2.42042 4.85983,3.21325c0.27037,0.111 0.55852,0.20836 0.85438,0.30235zM252.02253,158.66413c0.13228,-0.21787 0.27449,-0.43007 0.4269,-0.63702c-0.3924,0.26978 -0.75498,0.61996 -1.07903,1.06405c0.18514,-0.11812 0.36906,-0.23784 0.55159,-0.35943c0.03357,-0.02237 0.06709,-0.0449 0.10054,-0.0676zM246.91809,161.68696c-2.89278,-0.17295 -5.64858,-0.2555 -8.6026,0.06614c-3.37521,1.08426 -6.495,2.27887 -9.69183,3.81393c-1.66494,0.79948 -3.07592,1.82773 -4.32885,3.03489c0.44003,0.68495 0.94384,1.34661 1.50725,1.9871c1.7764,2.01942 3.69665,3.93485 5.33641,6.06842c1.38293,-1.80282 2.85188,-3.52713 4.38005,-5.24276c2.39896,-2.69323 4.62439,-5.17693 7.54778,-7.30597c1.22055,-0.88799 2.52695,-1.66598 3.85179,-2.42174zM230.48634,177.52243c-1.83047,-0.75008 -3.47232,-1.8661 -4.96794,-3.36172c-1.22288,-1.22288 -2.00392,-2.7904 -2.29915,-4.43885c-0.5286,0.59255 -1.03063,1.21872 -1.51501,1.8739c0.61802,1.45706 0.8889,3.05604 0.90204,5.04019c-0.21812,1.29505 -0.5057,2.56551 -0.81873,3.82813c0.22599,0.20267 0.45119,0.40686 0.67552,0.61277c0.49734,0.54148 0.99939,1.07913 1.4976,1.61949c1.06786,-0.27989 2.16918,-0.47135 3.28495,-0.60768c0.39139,-0.48531 0.7897,-0.96867 1.19563,-1.44761c0.14389,-0.3332 0.32271,-0.66297 0.53867,-0.98681c0.48808,-0.72616 0.9907,-1.43547 1.50641,-2.13182zM227.98754,182.5072c-0.15984,0.01643 -0.31947,0.03386 -0.4788,0.05239c-0.69331,0.87178 -1.18403,1.67415 -1.49357,2.44967c1.11803,1.33275 2.14659,2.73276 2.97108,4.2878c0.07467,0.14084 0.26677,0.65158 0.47209,1.11965c0.37262,0.21768 0.74524,0.43537 1.11793,0.65293c0.46661,-0.30075 1.00046,-0.82762 1.24304,-0.99526c0.3258,-0.22515 0.67084,-0.4532 1.02994,-0.67413c-0.42658,-0.21374 -0.84206,-0.43481 -1.24056,-0.66826c-2.28896,-1.34626 -3.78471,-3.75232 -3.62114,-6.2248zM245.60079,199.99099c-1.80089,-0.88703 -3.56337,-1.83779 -5.31553,-2.81043c-0.19693,0.04285 -0.39154,0.07201 -0.58329,0.08588c-2.10336,0.15215 -4.11404,-0.18261 -6.10985,-0.66739c-0.10646,0.10796 -0.2157,0.21434 -0.3277,0.3191c0.56936,0.4047 1.15372,0.79291 1.75621,1.16218c2.99784,1.83739 6.07156,3.368 9.29323,4.77855c0.88567,0.38778 1.73828,0.69953 2.57412,0.92301c-0.14169,-0.6487 -0.31594,-1.27134 -0.50588,-1.84824c-0.2258,-0.68583 -0.48695,-1.33061 -0.78132,-1.94267zM246.99769,204.3255c-0.93827,-0.23319 -1.8934,-0.57471 -2.88435,-1.00858c-3.24252,-1.41968 -6.33666,-2.96095 -9.35398,-4.81027c-0.6441,-0.39478 -1.26941,-0.81068 -1.8787,-1.24513c-0.07828,0.06701 -0.15775,0.1333 -0.23842,0.19884c-2.95676,2.40237 -5.79757,3.22519 -9.48829,3.74879c-2.56953,0.08477 -4.66388,-0.17844 -6.85822,-0.71444c-0.83058,1.98419 -1.55965,3.96445 -1.56926,6.24896c-0.01502,3.56943 3.26978,5.86519 6.04912,7.45095c1.28045,0.63993 2.86589,1.23409 3.78652,2.38098c1.43543,1.78822 1.42664,2.96455 3.9049,3.74703c3.25408,1.04165 7.0379,-0.11405 9.96105,-1.49732c3.15521,-1.49309 5.27031,-4.35506 7.35848,-7.05415c1.60183,-2.03627 1.68319,-4.89431 1.21115,-7.44566zM216.49209,200.02911c2.11132,0.51059 4.12984,0.76028 6.61837,0.68193c3.59758,-0.51776 6.33002,-1.2935 9.21647,-3.63874c0.04598,-0.03735 0.09155,-0.07496 0.13671,-0.11281c-0.44189,-0.325 -0.8755,-0.65967 -1.30194,-1.00299c-0.58366,-0.16109 -1.16877,-0.32332 -1.75724,-0.47824c-3.36155,-1.03433 -6.65241,-2.11103 -9.84265,-3.6005c-0.12662,-0.05912 -0.25288,-0.11888 -0.37877,-0.17924c-0.39176,1.75662 -0.83686,3.49826 -1.4342,5.20557c-0.37713,1.07691 -0.82396,2.10466 -1.25675,3.12503zM219.85103,188.52922c0.71969,-0.09704 1.45256,-0.14858 2.14743,-0.12548c-0.65345,-0.51205 -1.23988,-1.11339 -1.74993,-1.77369c-0.01752,0.08029 -0.03485,0.16064 -0.05199,0.24108c-0.11776,0.55263 -0.23193,1.10553 -0.34552,1.65808zM217.99642,166.66023c0.41637,-0.28716 0.83567,-0.56396 1.26232,-0.83196c0.73848,-1.17587 1.53448,-2.3221 2.43815,-3.4529c-0.02398,-0.35808 -0.03441,-0.72125 -0.03098,-1.08962c0.0297,-3.18637 0.65014,-7.6394 3.02253,-10.02209c1.78212,-1.77284 3.68523,-3.01958 5.80247,-4.06381c0.18596,-1.75457 0.55695,-4.08685 1.72074,-4.61019c0.26379,-0.11862 0.61989,-0.13249 1.01614,-0.08607c-0.48295,-0.5433 -1.0119,-1.08218 -1.56591,-1.63635c-2.36308,-2.38693 -6.11427,-3.20348 -9.24032,-3.93686c-2.89662,-0.26604 -5.30619,-0.21789 -7.85344,0.57699c0.37481,0.35521 0.60031,0.78902 0.61499,1.31574c-0.49706,1.79484 -1.8401,2.25349 -3.5658,2.21829c-0.73796,-0.01505 -2.47494,0.05085 -2.29908,-1.12341c0.13287,-0.88718 2.14932,-1.6838 2.87402,-2.02082c0.36053,-0.16766 0.71587,-0.32008 1.06743,-0.45821c-0.18928,-0.07254 -0.37014,-0.13851 -0.52239,-0.20413c-1.99096,-0.85804 -5.01471,-0.90027 -7.10954,-0.47782c-3.70693,0.74756 -6.45128,2.46655 -5.60966,6.47426c0.65082,3.15685 3.27939,6.11901 5.14448,8.65019c1.992,2.70624 4.4347,5.19468 6.62467,7.74964c2.02023,2.35692 4.06,4.77654 6.20919,7.02913zM213.91729,137.72576c-0.49616,0.17814 -0.99941,0.38536 -1.5142,0.62477c-0.41155,0.1914 -0.77484,0.36435 -1.15763,0.60825c-3.35661,2.13861 2.71493,2.30031 3.4424,-0.20442c0.02312,-0.48256 -0.32985,-0.79593 -0.77057,-1.0286zM235.33457,145.77211c-0.59729,0.18035 -1.18204,0.38409 -1.74844,0.61065c-0.91574,0.3663 -1.79072,0.74146 -2.63104,1.14649c-0.0505,0.5223 -0.08499,0.96563 -0.1195,1.24017c-0.0334,1.49059 2.26662,5.61703 4.0694,3.37893c0.512,-0.63563 0.67398,-1.96043 0.78161,-2.74211c0.19174,-1.39246 0.04114,-2.57249 -0.35204,-3.63413zM231.01564,146.94709c0.7655,-0.36026 1.55904,-0.69827 2.38479,-1.02857c0.56525,-0.2261 1.14829,-0.42997 1.74362,-0.61106c-0.35505,-0.78898 -0.84412,-1.51653 -1.42217,-2.22507c-0.52168,-0.11632 -1.00181,-0.16157 -1.31033,-0.03444c-0.86875,0.35799 -1.2172,2.31286 -1.3959,3.89913zM234.51272,143.2955c0.44237,0.59821 0.82012,1.21522 1.11069,1.8718c0.86898,-0.24398 1.76057,-0.4401 2.65819,-0.58664c-0.72919,-0.33776 -1.47324,-0.61268 -2.22943,-0.79896c-0.3525,-0.08773 -0.93092,-0.30065 -1.53946,-0.4862zM239.06522,144.96974c-1.09725,0.14638 -2.1921,0.36872 -3.25295,0.66384c0.41385,1.12534 0.57169,2.37371 0.36967,3.84087c-0.1198,0.87001 -0.3142,2.27576 -0.88755,2.98756c-2.18338,2.7106 -5.00287,-1.81139 -4.95743,-3.72941c0.03075,-0.24724 0.05991,-0.57257 0.09536,-0.9451c-1.95716,0.99137 -3.72706,2.17509 -5.39126,3.83062c-2.28579,2.2489 -2.84701,6.64893 -2.87518,9.67228c-0.00197,0.21155 0.00079,0.42124 0.0082,0.62914c2.89085,-2.00861 5.80245,-3.00322 9.24948,-3.75258c3.4185,-0.74305 6.73669,-1.25271 10.22545,-1.45207c3.53506,-0.20201 6.93111,-0.01454 10.42988,0.4736c0.12983,0.01845 0.29751,0.04795 0.48996,0.08776c-0.16422,-0.2372 -0.33258,-0.47228 -0.50532,-0.70512c-2.08987,-2.81679 -4.36052,-5.3368 -7.13046,-7.5082c-1.77125,-1.38852 -3.75061,-2.9735 -5.86785,-4.09321zM255.05948,161.58829c-0.60462,0.80021 -1.39128,1.54957 -1.99181,2.1003c1.48309,1.0735 2.71386,2.40732 3.62545,4.3318c0.76367,1.61219 1.28303,3.06664 1.65741,4.54649c0.13955,-0.00592 0.27919,-0.01248 0.41894,-0.01972c-0.41086,-2.35289 -1.05165,-4.6318 -1.94924,-6.90564c-0.544,-1.37811 -1.11888,-2.73448 -1.76075,-4.05324zM258.85248,173.04302c-0.12754,0.00674 -0.25498,0.01292 -0.38234,0.01858c0.31435,1.36204 0.51646,2.76243 0.68251,4.34168c0.03344,-0.02775 0.0668,-0.0556 0.1001,-0.08356c0.00189,-0.51062 -0.02132,-1.03654 -0.06896,-1.58091c-0.07932,-0.9121 -0.18928,-1.80948 -0.3313,-2.69579zM258.74213,180.96304c0.05566,-0.87686 0.06367,-1.75207 -0.00086,-2.61091c-1.23019,0.92598 -2.55811,1.67981 -4.01526,2.05477c-3.43696,0.87251 -6.77841,1.27859 -10.32475,1.39606c-0.34828,0.01154 -0.69657,0.02281 -1.04485,0.0339c-0.10256,0.24235 -0.1984,0.48564 -0.28826,0.72987c0.79368,1.46023 2.38903,2.57717 4.23327,3.11341c2.21177,0.65267 4.50173,1.22916 6.81465,1.52315c0.8467,-0.6353 1.67718,-1.29556 2.4839,-1.99656c1.0058,-1.4073 1.71248,-2.78728 2.14216,-4.24369zM230.22704,195.18114c-1.24623,-1.06401 -2.43556,-2.19872 -3.59768,-3.3768c-0.65295,-1.17441 -1.11344,-2.23479 -1.34705,-3.24619c-1.62844,-0.95946 -3.23968,-1.94468 -4.78177,-3.03109c-0.03695,0.15536 -0.0734,0.31094 -0.10928,0.46677c0.69671,0.98695 1.56462,1.8566 2.57366,2.49764c0.85349,0.13363 1.59818,0.42155 2.11656,0.93072l0.08336,-0.08336l0.30931,0.30931c0.04524,0.04524 0.07322,0.10774 0.07322,0.17677c0,0.13807 -0.11193,0.25 -0.25,0.25c-0.04199,0 -0.08156,-0.01035 -0.1163,-0.02864l-0.29338,-0.14669c-0.1506,-0.05103 -0.3012,-0.10204 -0.4518,-0.15307c-0.30023,-0.10375 -0.59232,-0.22521 -0.87579,-0.36275c-0.35107,-0.1052 -0.6947,-0.20294 -0.97971,-0.22812c-0.98887,-0.08732 -1.93,-0.09811 -2.85438,-0.01808c-0.14141,0.68764 -0.28364,1.37442 -0.43253,2.05921c0.15936,0.07696 0.3193,0.15295 0.47985,0.22791c3.16621,1.47826 6.4323,2.54542 9.76833,3.57275c0.22892,0.06021 0.45733,0.12162 0.68537,0.18369zM214.13203,188.34499c0.16389,-0.1293 0.32627,-0.26015 0.48694,-0.39267c1.51658,-1.25086 2.92473,-2.33157 4.44613,-3.22366c-0.06698,-0.13606 -0.13111,-0.27319 -0.19233,-0.41119c-0.00806,-0.00634 -0.01612,-0.01269 -0.02418,-0.01904c-2.07751,-1.63682 -4.04483,-3.33775 -5.70167,-5.35348c-0.27372,0.52042 -0.56161,1.03419 -0.86957,1.5386c-0.97673,1.59979 -1.93318,3.35838 -3.08452,4.93402c0.51397,0.24326 1.03214,0.52506 1.55935,0.8492c1.12796,0.69423 2.24939,1.39515 3.37986,2.07822zM208.73206,185.2093c1.17237,-1.58587 2.13478,-3.37499 3.11854,-4.98629c0.34034,-0.55743 0.65608,-1.1264 0.95524,-1.70323c-0.44407,-0.56744 -0.86355,-1.16009 -1.25424,-1.78315c-1.84602,-2.94397 -3.44969,-6.03816 -5.32048,-8.96093c-1.80796,-2.82461 -3.64074,-5.87207 -6.64873,-7.53166c-3.10792,-1.71472 -6.20187,-2.8714 -9.78631,-3.02266c-3.52146,-0.14861 -6.88956,0.21614 -10.21093,1.44169c-3.35911,1.23948 -5.37772,3.8928 -4.50469,7.64741c0.81617,3.56422 2.32375,6.2597 4.47807,9.19772c2.04095,2.78341 4.5888,4.87073 7.33197,6.92811c2.6971,2.02652 5.98738,3.43605 8.96804,4.99445c0.16507,0.05921 0.3329,0.12038 0.50317,0.18279c1.13944,-1.36658 2.53396,-2.49342 4.30949,-3.37984c3.02008,-0.29339 5.50634,-0.1248 8.06086,0.97559zM208.37904,196.87364c1.4774,0.83312 3.0741,1.64323 4.6249,2.14377c1.06302,0.34454 2.04748,0.64347 3.00453,0.8907c0.43579,-1.03388 0.88629,-2.07585 1.26844,-3.16915c0.60396,-1.72623 1.05078,-3.4882 1.44455,-5.26523c-0.93406,-0.46175 -1.84922,-0.95541 -2.75299,-1.46922c-3.3439,1.27122 -5.49151,3.73716 -7.4512,6.65819c-0.04709,0.07019 -0.09315,0.1405 -0.13823,0.21094zM219.27893,184.0005c0.1516,0.11835 0.30411,0.23538 0.45747,0.35116c0.20296,-0.10894 0.40837,-0.21464 0.61675,-0.31706c0.288,-1.13608 0.58993,-2.26533 0.87449,-3.39981c-0.84978,-0.75551 -1.71033,-1.49048 -2.57733,-2.21649c-0.20079,1.15696 -0.23594,2.31025 -0.04221,3.37578c0.13351,0.73427 0.36007,1.48067 0.67083,2.20642zM218.76085,177.85523c0.87545,0.73147 1.7444,1.47142 2.60275,2.23115c0.28196,-1.15195 0.5409,-2.31126 0.74428,-3.49045c-0.01872,-1.77387 -0.24363,-3.21528 -0.74928,-4.52374c-0.05874,0.08246 -0.11724,0.16535 -0.17553,0.24865c-1.05792,1.51202 -1.97888,3.50787 -2.42222,5.5344zM247.82496,161.74347c-1.53422,0.86611 -3.05761,1.74384 -4.4643,2.76941c-2.89434,2.10789 -5.09307,4.56723 -7.46877,7.23436c-1.55109,1.74135 -3.04088,3.49132 -4.44083,5.32437c0.04064,0.05487 0.08107,0.10988 0.12131,0.16506c0.90353,-0.89343 1.84516,-1.74421 2.8307,-2.53203c2.77952,-2.2219 5.51391,-4.25561 8.54908,-6.1154c2.21683,-1.35836 4.54886,-2.50455 6.88825,-3.63888c-0.25145,-0.8736 -0.35108,-1.76286 -0.24251,-2.68846c-0.30762,-0.15387 -0.62169,-0.30782 -0.94188,-0.46395c-0.27873,-0.0185 -0.55564,-0.03674 -0.83104,-0.05448zM252.68291,164.03929c-0.0641,0.05843 -0.12362,0.11293 -0.17775,0.16318c-0.45255,0.22908 -0.90668,0.4546 -1.36152,0.67832c0.11605,1.29671 0.54392,2.54668 1.11917,3.74804c0.06471,0.09676 0.13023,0.19376 0.19646,0.29107c0.86282,1.26766 1.78794,2.48595 2.72555,3.69482c0.88608,0.00485 1.76975,-0.0005 2.65606,-0.0289c-0.3641,-1.411 -0.86635,-2.80335 -1.59964,-4.35139c-0.89884,-1.89755 -2.10532,-3.1681 -3.55833,-4.19514zM258.55422,182.87598c-0.41478,0.89756 -0.94099,1.77925 -1.58434,2.66714c-0.69195,0.60922 -1.40304,1.18666 -2.12793,1.74285c0.7942,0.07976 1.59044,0.12378 2.38646,0.12378c0.62841,0.09008 0.84831,-1.51368 0.93555,-2.01529c0.14289,-0.82161 0.28074,-1.6657 0.39027,-2.51848zM259.35409,173.01353c0.14011,0.88204 0.24894,1.77489 0.32781,2.68196c0.03526,0.40808 0.05725,0.80669 0.0657,1.19691c1.07128,-0.94945 2.06589,-1.98261 3.00449,-2.91671c0.50561,-0.5019 0.94779,-1.04209 1.3314,-1.61321c-0.84784,0.18939 -1.71356,0.34059 -2.60419,0.45192c-0.71337,0.08915 -1.42095,0.15345 -2.1252,0.19912zM270.25266,187.84135c-0.06363,-0.06438 -0.12506,-0.12775 -0.18391,-0.19007c-2.62329,-2.30307 -5.25612,-4.59498 -8.03215,-6.71309c-0.48829,-0.37257 -0.97761,-0.75203 -1.4627,-1.14066c1.40526,1.90474 2.80353,3.81644 4.00931,5.84752c0.98705,1.66263 1.9242,3.31277 2.73377,5.02652c0.54782,-0.58209 1.10994,-1.14908 1.69734,-1.6896c0.413,-0.38004 0.82582,-0.76021 1.23834,-1.14063zM266.95011,191.06573c-0.82172,-1.76451 -1.783,-3.45766 -2.79683,-5.16542c-1.35857,-2.28845 -2.96346,-4.42459 -4.54567,-6.5708c-0.08555,0.59272 -0.20974,1.16916 -0.37383,1.73431c-0.0985,1.49152 -0.3284,2.98562 -0.57721,4.41631c-0.15674,0.90123 -0.36938,2.35408 -1.42816,2.42962c-0.98987,0 -1.98017,-0.0668 -2.96667,-0.18507c-1.40467,1.04728 -2.85497,2.02657 -4.31316,3.01232c1.95574,1.15621 3.89512,2.33848 5.87259,3.46256c1.81697,1.03285 3.70102,1.95475 5.60127,2.84015c0.1648,-0.15635 0.32919,-0.31394 0.49322,-0.47285c1.78362,-1.72788 3.35209,-3.67496 5.03444,-5.50114zM255.3865,161.12045c0.69711,1.40838 1.31576,2.86049 1.8988,4.33749c0.91726,2.32369 1.57034,4.65375 1.98661,7.06021c0.71083,-0.04538 1.42509,-0.10983 2.14536,-0.19988c1.04526,-0.13066 2.05527,-0.31717 3.04199,-0.55672c1.22366,-2.10536 1.72637,-4.57028 1.72637,-7.06283c0,-3.82097 -3.44582,-4.9949 -6.5779,-6.32173c-1.64659,-0.69753 -3.47252,-1.25141 -5.10218,-1.08048c-0.14186,0.13238 -0.28487,0.26262 -0.42907,0.39045c0.79221,0.27341 1.53662,0.64339 1.7506,1.08331c0.34467,0.7086 0.07716,1.54042 -0.44058,2.35017zM218.20131,167.59265c-0.09441,-0.09672 -0.18861,-0.19379 -0.28259,-0.2912c-0.60388,0.43786 -1.2022,0.89811 -1.81679,1.3791c-1.2846,1.00533 -2.57511,2.01372 -3.82193,3.06551c-0.3281,0.27678 -1.06695,0.29844 -1.06248,0.72767c0.0047,0.45121 0.94233,0.09145 1.305,0.35995c0.67108,0.49681 1.22339,1.02889 1.9476,1.48342c0.07247,0.06003 0.14495,0.11999 0.21742,0.17989c0.52334,-1.17159 1.05313,-2.34112 1.65091,-3.48028c0.61918,-1.17938 1.22728,-2.3171 1.86286,-3.42406zM208.41979,185.62007c-2.41138,-1.00806 -4.73406,-1.13182 -7.61044,-0.90583c-1.61004,0.84123 -2.88739,1.86181 -3.94167,3.08522c2.78468,1.02239 6.10922,2.18053 8.66956,0.54255c1.11798,-0.71523 2.05414,-1.66322 2.88255,-2.72194zM235.2746,194.36383c-0.35525,0.64175 -0.78695,1.2493 -1.29137,1.81741c1.82214,0.42944 3.66052,0.71697 5.5743,0.59391c-0.94299,-0.52699 -1.88412,-1.05865 -2.82776,-1.58841c-0.48593,-0.2728 -0.97092,-0.54721 -1.45516,-0.82291zM268.98133,200.40586c1.9228,0.75131 3.87265,1.34436 6.00865,1.6317c0.67377,0.09143 1.92598,0.29761 2.52846,-0.13504c0.29227,-0.20989 -1.38954,-1.71294 -1.52296,-1.85515c-1.03662,-1.10484 -1.87555,-2.17488 -2.47486,-3.56076c-0.66933,-1.59316 0.53264,-3.27522 -0.04611,-4.86232c-0.44504,-1.22044 -1.82236,-2.42566 -2.86514,-3.43175c-0.41856,0.38601 -0.83742,0.77175 -1.25648,1.15736c-0.62763,0.57754 -1.22638,1.18544 -1.80968,1.80974c0.54735,1.20423 1.02907,2.44291 1.41876,3.74189c0.63354,2.1118 0.61689,3.88823 0.01935,5.50431zM213.70889,188.67299c-1.07594,-0.6521 -2.14444,-1.31917 -3.21879,-1.98041c-0.54497,-0.33578 -1.07726,-0.62288 -1.60343,-0.86674c-0.88,1.14249 -1.87743,2.16803 -3.07997,2.93735c-2.77078,1.77261 -6.30618,0.53336 -9.27657,-0.55565c-0.88923,1.11983 -1.6138,2.39987 -2.24923,3.85625c-1.37344,3.14785 -2.26254,6.29361 -2.04723,9.73851c0.21442,3.43062 1.81111,6.60246 5.16023,7.85307c3.11275,1.16234 6.85455,-0.14482 7.66186,-3.49805c0.77303,-3.21089 0.97282,-6.24957 2.62978,-9.10621c-0.38339,-0.21965 -0.76034,-0.44013 -1.12919,-0.6571c-0.39737,-0.23374 -1.73875,-0.77138 -1.77568,-1.31101c-0.02791,-0.40786 0.88915,-1.06677 1.173,-1.26013c2.54846,-1.72006 5.30333,-3.28165 7.75522,-5.14988zM234.23918,181.65344c2.62461,-0.11766 5.2502,-0.19618 7.87597,-0.27784c-0.12509,-0.6487 -0.11372,-1.33707 0.06274,-2.05225c-2.06969,-0.72552 -6.05062,-0.59715 -7.4068,-0.74246c-0.90508,-0.09697 -1.77041,-0.25851 -2.59925,-0.48567c0.07434,0.11152 0.14777,0.22376 0.22022,0.33675c0.66559,1.03798 1.2925,2.11236 1.84713,3.22146zM231.5083,178.0086c-0.92146,0.93637 -1.80271,1.91545 -2.65049,2.91421c-0.14171,0.34062 -0.24309,0.68505 -0.30717,1.03005c1.71985,-0.15075 3.45628,-0.2027 5.14123,-0.2751c-0.52166,-1.0228 -1.10466,-2.01516 -1.72071,-2.97589c-0.15019,-0.23423 -0.30464,-0.4652 -0.46286,-0.69326zM207.94405,196.62588c0.0514,-0.08073 0.10405,-0.1613 0.15801,-0.24174c1.94268,-2.89568 4.08344,-5.35139 7.31313,-6.69738c-0.41738,-0.24203 -0.83265,-0.4879 -1.24654,-0.73639c-2.49937,1.927 -5.32419,3.52462 -7.93525,5.28694c-0.1362,0.09096 -0.95166,0.65229 -0.95332,0.82135c-0.00198,0.20352 1.73931,1.02764 1.96075,1.1579c0.23027,0.13546 0.46492,0.27232 0.70323,0.40932zM214.58958,188.6201c0.47231,0.28251 0.94655,0.56135 1.42386,0.83475c0.81377,-0.29209 2.01994,-0.63263 3.31111,-0.84644c0.12593,-0.61363 0.25219,-1.22773 0.38298,-1.84148c0.04827,-0.2265 0.09803,-0.45237 0.14905,-0.67771c-0.20193,-0.29718 -0.38922,-0.60379 -0.5611,-0.91743c-1.48962,0.87557 -2.86761,1.9367 -4.35835,3.16624c-0.11501,0.09485 -0.23087,0.18886 -0.34754,0.28206zM265.12035,171.59226c2.05883,-0.55475 4.02625,-1.34232 6.01454,-2.33647c4.05248,-1.98034 2.12359,-5.53149 0.0636,-8.10648c-2.15956,-2.69944 -4.20351,-5.6273 -5.83344,-8.67726c-0.38881,-0.72755 -0.72189,-1.43944 -0.99824,-2.14655c-2.36244,1.91838 -5.29042,3.39641 -7.90799,4.96049c-0.45928,0.51264 -0.93131,1.01486 -1.4171,1.49515c1.5469,-0.02001 3.21343,0.47985 4.76104,1.13546c3.33322,1.41204 6.88287,2.70907 6.88287,6.78212c0,2.42112 -0.46519,4.80847 -1.56529,6.89353zM267.17484,191.55808c-1.63621,1.78712 -3.17124,3.68225 -4.91127,5.36791c-0.11764,0.11397 -0.23547,0.22731 -0.35347,0.34004c1.09301,0.50537 2.18994,1.00079 3.28112,1.50038c1.12121,0.51334 2.21703,1.00643 3.31745,1.45147c0.56272,-1.50231 0.58236,-3.14613 -0.0256,-5.17265c-0.36255,-1.20848 -0.80593,-2.36364 -1.30822,-3.48714zM215.08567,174.82554c1.08579,0.89468 2.17031,1.77845 3.24604,2.67218c0.4762,-2.00461 1.3894,-3.95956 2.44168,-5.46353c0.11816,-0.16887 0.23724,-0.33609 0.35737,-0.50156c-0.56288,-1.22644 -1.39501,-2.35562 -2.56269,-3.56499c-0.60835,1.06063 -1.19302,2.15023 -1.78693,3.28149c-0.61478,1.17045 -1.15778,2.3727 -1.69548,3.57641zM253.70029,158.08545c0.51729,0.82525 0.99247,1.67256 1.43567,2.53748c0.33891,-0.58588 0.4886,-1.15153 0.25652,-1.60541c-0.18715,-0.36602 -0.93064,-0.69219 -1.69219,-0.93206zM242.85838,183.17038c-0.47523,1.44951 -0.76435,2.93083 -1.02285,4.44034c1.67804,0.17853 3.32261,0.62132 5.06925,1.37125c0.86234,0.48039 1.7163,0.97386 2.56635,1.47354c1.37306,-0.92999 2.73921,-1.85213 4.07001,-2.82625c-2.16537,-0.31333 -4.30741,-0.85761 -6.38123,-1.46957c-1.80934,-0.54085 -3.3896,-1.60321 -4.30152,-2.98931zM249.68069,161.74018c0.08306,-0.41487 0.20872,-0.83757 0.38184,-1.26989c-0.4809,0.28072 -0.96589,0.55597 -1.45159,0.83005c0.0578,0.00476 0.11567,0.00957 0.1736,0.01441c0.30402,0.14187 0.60283,0.2832 0.89615,0.42543zM218.21158,178.05207c-1.10626,-0.92076 -2.22179,-1.83019 -3.33767,-2.7522c-0.47445,1.06248 -0.95156,2.123 -1.47708,3.16069c1.48995,1.84934 3.24645,3.42587 5.11253,4.92868c-0.16997,-0.49886 -0.3019,-1.00354 -0.3932,-1.50572c-0.21977,-1.20874 -0.16057,-2.52279 0.09543,-3.83145zM247.42435,203.91355c1.98549,0.44285 3.895,0.3647 5.9524,-0.40266c-2.38462,-0.99801 -4.73043,-2.04673 -7.06857,-3.17539c0.20081,0.46153 0.38401,0.94114 0.54885,1.4418c0.22072,0.67039 0.41669,1.39033 0.56733,2.13625zM233.35866,189.09779c0.78927,-0.4512 1.63119,-0.84898 2.47577,-1.09673c-0.3131,-2.03687 -1.00021,-3.98369 -1.89866,-5.83347c-1.78245,0.07883 -3.62824,0.12708 -5.45276,0.29184c-0.19034,2.3201 1.2417,4.5948 3.37842,5.84115c0.47902,0.28062 0.98131,0.5435 1.49724,0.7972zM257.80616,153.72025c2.05343,-1.49322 4.35895,-3.26263 6.41432,-3.78343c-0.00212,-0.00585 -0.00423,-0.0117 -0.00635,-0.01755c-0.5873,-0.01113 -1.73924,-0.75166 -2.26274,-0.9335c-0.06403,-0.02224 -0.12763,-0.04464 -0.19083,-0.06721c-0.68385,0.9914 -1.52271,1.93127 -2.36821,2.861c-0.5115,0.6298 -1.03957,1.28432 -1.58619,1.94069zM250.69552,162.82915c-0.20388,-0.10972 -0.41111,-0.21823 -0.62159,-0.32625c-0.06753,0.76585 0.01722,1.50396 0.21627,2.22948c0.11054,-0.05355 0.22108,-0.10711 0.33161,-0.16069c-0.0118,-0.24428 -0.01277,-0.49023 -0.0019,-0.73785c0.01514,-0.34515 0.04022,-0.67984 0.0756,-1.00469zM241.3176,187.56405c0.27361,-1.71173 0.58268,-3.41094 1.18146,-5.02925c-0.1025,-0.21491 -0.18947,-0.43606 -0.25958,-0.66283c-2.58748,0.08055 -5.17482,0.15748 -7.76121,0.27133c0.86704,1.8217 1.52956,3.73481 1.84268,5.7323c0.1195,-0.02642 0.23886,-0.04946 0.35794,-0.06885c1.64372,-0.26157 3.15946,-0.35212 4.63872,-0.24271zM219.68052,166.11126c-0.29178,0.4642 -0.5748,0.93275 -0.85208,1.40681c1.17768,1.20533 2.03865,2.34141 2.6386,3.55974c0.52871,-0.70185 1.07932,-1.37006 1.66214,-1.99901c-0.05174,-0.51022 -0.05732,-1.02484 -0.01549,-1.53626c-0.434,-0.86029 -0.77548,-1.75525 -1.0176,-2.68744c-0.28038,0.10387 -0.51816,0.20023 -0.65112,0.26685c-0.61906,0.31021 -1.20213,0.64036 -1.76444,0.98931zM222.56855,164.68691c0.17121,0.66922 0.39553,1.31827 0.67029,1.94851c0.15419,-0.78914 0.42603,-1.55947 0.82036,-2.28203c0.21947,-0.19909 -0.66977,0.05212 -1.49065,0.33352zM242.64621,179.51979c-0.14651,0.64214 -0.14651,1.25912 -0.02536,1.84004c0.12683,-0.00397 0.25366,-0.00795 0.38049,-0.01196c0.13975,-0.29021 0.29149,-0.57711 0.45682,-0.86025c-0.03101,-0.41126 -0.33383,-0.72588 -0.81195,-0.96783zM223.65932,168.52688c-0.0239,-0.03949 -0.04761,-0.07906 -0.07111,-0.11871c0.00134,0.06141 0.0034,0.12281 0.00617,0.18417c0.0216,-0.02187 0.04325,-0.0437 0.06494,-0.06546zM221.76456,163.09934c-0.53894,0.70442 -1.04036,1.41325 -1.51573,2.1309c0.55232,-0.3204 1.1215,-0.62882 1.71624,-0.92828c-0.08446,-0.39426 -0.15147,-0.79508 -0.20051,-1.20262zM220.78158,184.38195c-0.05217,0.20709 -0.1038,0.41443 -0.1547,0.6221c1.46216,1.04059 2.98938,1.98622 4.5359,2.90302c-0.12722,-0.945 -0.04233,-1.8584 0.28428,-2.79623c-0.53492,-0.6285 -1.08887,-1.24272 -1.64905,-1.85249c-1.09847,0.30683 -2.08897,0.6825 -3.01643,1.1236zM235.9503,190.30318c0.03772,-0.58663 0.02224,-1.18924 -0.0483,-1.80542c-0.67579,0.20325 -1.35203,0.51119 -1.99689,0.86346c0.67165,0.31812 1.36015,0.6261 2.04519,0.94196zM252.64808,163.39604c0.60785,-0.55596 1.53954,-1.41833 2.17224,-2.29105c-0.47217,-0.93831 -0.98102,-1.85629 -1.53984,-2.74809c-0.29174,0.23218 -0.58819,0.45318 -0.88953,0.66098c-0.60195,1.02304 -0.97562,2.17846 -1.15683,3.521c0.49154,0.27142 0.96344,0.55433 1.41397,0.85716zM254.26543,156.83806c0.07505,-0.07079 0.14977,-0.14218 0.22415,-0.21413c-0.08883,0.07244 -0.17571,0.14553 -0.26066,0.21929c0.01216,-0.00176 0.02432,-0.00348 0.0365,-0.00516zM227.9538,182.00941c0.03023,-0.00309 0.06046,-0.00614 0.0907,-0.00916c0.00682,-0.04287 0.01416,-0.08574 0.02201,-0.1286c-0.03763,0.0459 -0.07521,0.09181 -0.11272,0.13775zM240.96306,196.98445c1.40417,0.7755 2.81649,1.53468 4.25149,2.25588c-0.64517,-1.17533 -1.42032,-2.23305 -2.30826,-3.24019c-0.65379,0.41265 -1.30709,0.75761 -1.94323,0.98432zM218.68982,166.75786c-0.12046,0.08234 -0.24036,0.16557 -0.35985,0.24967c0.04389,0.0454 0.08783,0.09072 0.13181,0.13596c0.07554,-0.12894 0.15153,-0.25748 0.22804,-0.38563zM259.23115,177.97068c0.00161,0.00221 0.00321,0.00442 0.00482,0.00663c0.00018,-0.00365 0.00035,-0.00729 0.00052,-0.01093c-0.00178,0.00143 -0.00356,0.00287 -0.00534,0.0043zM219.20456,189.19265c-0.87138,0.10883 -1.73294,0.3017 -2.61108,0.59076c0.7364,0.41227 1.48109,0.81003 2.23812,1.18686c0.12782,-0.59134 0.25086,-1.18414 0.37296,-1.77763zM220.0613,185.21342c-0.09822,-0.0711 -0.19614,-0.14265 -0.29373,-0.21466c0.07833,0.14144 0.15993,0.2814 0.24474,0.41962c0.01623,-0.06836 0.03257,-0.13668 0.04899,-0.20496zM255.57409,173.11542c1.03028,1.3228 2.06731,2.64094 3.04556,4.00704c-0.16103,-1.4627 -0.35749,-2.7676 -0.65666,-4.04103c-0.79733,0.02706 -1.59242,0.03534 -2.38889,0.034zM242.77029,181.85538c-0.0047,0.00015 -0.00939,0.0003 -0.01409,0.00045c0.00204,0.00602 0.00409,0.01204 0.00616,0.01806c0.00264,-0.00617 0.00529,-0.01234 0.00794,-0.0185zM233.02415,196.45726c-0.2006,-0.05133 -0.40112,-0.10387 -0.60165,-0.15725c0.14198,0.10755 0.28483,0.21411 0.42862,0.31963c0.05845,-0.05368 0.11613,-0.10781 0.17303,-0.16237zM250.86932,166.25554c-0.09074,-0.37595 -0.15987,-0.75608 -0.20345,-1.14042c-0.07435,0.03637 -0.14871,0.07271 -0.22308,0.10903c0.1193,0.34535 0.26287,0.68859 0.42653,1.0314zM250.76565,162.28652c0.14938,-0.99346 0.40425,-1.89147 0.77677,-2.71249c-0.24166,0.15295 -0.48533,0.30326 -0.73055,0.45152c-0.33881,0.67303 -0.55445,1.31818 -0.66652,1.94323c0.20981,0.10484 0.41662,0.21057 0.62029,0.31774zM220.18938,184.68834c0.0011,-0.00446 0.0022,-0.00892 0.0033,-0.01337c-0.00421,0.00218 -0.00841,0.00437 -0.01261,0.00656c0.0031,0.00227 0.00621,0.00454 0.00931,0.00681zM225.65445,184.58495c0.27501,-0.62501 0.6573,-1.26514 1.15532,-1.9364c-0.83462,0.1158 -1.65912,0.26623 -2.46512,0.46587c0.44348,0.4851 0.88211,0.9737 1.3098,1.47053zM230.96953,177.71031c-0.14129,0.18991 -0.2816,0.38077 -0.42091,0.57268c0.17114,-0.18054 0.34366,-0.35975 0.5176,-0.53747c-0.03229,-0.01163 -0.06452,-0.02336 -0.09669,-0.03521z" fill="#fffcb9" stroke="none" stroke-width="0.5"/><path d="M276.67877,137.17886c0.26013,-0.16187 -0.46625,-0.45429 -0.76855,-0.50412c-0.47094,-0.07762 -1.09109,0.00511 -1.4917,0.25387c0,0 -0.08366,0.0502 -0.17782,0.03561c-0.07606,0.07091 -0.14465,0.13161 -0.20201,0.17935c-0.15727,0.10478 -0.31731,0.20381 -0.47997,0.29767c0.90642,0.0257 2.4333,0.16497 3.12005,-0.26238zM277.1684,137.28019c-0.36057,0.90195 -3.05185,0.65737 -3.83653,0.65737c-0.22181,-0.00067 -0.4435,0.01416 -0.66483,0.03721c0.06019,0.01439 0.12128,0.02779 0.18329,0.04019c0,0 0.24515,0.04903 0.19612,0.29417c-0.04903,0.24515 -0.29417,0.19612 -0.29417,0.19612c-0.43675,-0.08735 -0.83425,-0.22078 -1.19043,-0.39626l-0.02013,0.00034c0,0 -0.16335,0 -0.22597,-0.13205c-1.23518,-0.71641 -1.90706,-1.98648 -1.91341,-3.61045c0.0812,-1.03291 1.18348,-0.7389 1.65515,-0.08892c0.0751,0.10349 0.14782,0.20829 0.21782,0.31441c0.61372,-1.03866 1.89708,-2.23767 2.06143,-0.01709c0.01965,0.26546 -0.001,0.51583 -0.04259,0.75816c0.33639,-0.29964 0.60147,-0.65846 1.12749,-0.75529c1.91156,-0.35186 1.22651,0.83903 0.43603,1.74653c1.03363,-0.13863 2.71282,-0.05017 2.31075,0.95558zM273.73954,136.74294c2.14116,-1.78656 1.2729,-1.66034 -0.61827,-0.68277c-0.106,0.38535 -0.215,0.76842 -0.23968,1.18097c0.295,-0.1492 0.58183,-0.31399 0.85795,-0.4982zM272.38086,137.26097c0.0577,-1.21734 0.76048,-5.32591 -0.78732,-2.20981c0,0 -0.00678,0.01355 -0.02033,0.03232c0.41374,0.74818 0.67652,1.5579 0.67652,2.43232v0.00708c0.01187,-0.00157 0.02374,-0.00312 0.03561,-0.00467c0.01881,-0.00804 0.03759,-0.01612 0.05635,-0.02426zM271.74973,137.5158c0,-1.34505 -1.8562,-3.19884 -1.84742,-3.14898c-0.00694,1.49318 0.61349,2.62272 1.76852,3.23785c0.0263,-0.00378 0.05259,-0.00757 0.07889,-0.01138z" fill="#fffcb9" stroke="none" stroke-width="0.5"/><path d="M267.82323,203.85826l0.2886,-0.06334c1.27151,-0.08202 1.6547,-0.56072 2.39356,-1.43875c0.18525,-0.22014 -0.54866,0.18237 -0.83306,0.22589c-0.72351,0.11072 -1.66858,-0.00647 -2.27469,0.46066c0,0 -0.2,0.15 -0.35,-0.05c-0.15,-0.2 0.05,-0.35 0.05,-0.35c0.44891,-0.32979 3.6896,-1.10748 3.87725,-0.45853c0.32623,1.1282 -1.34823,1.82456 -2.3477,2.03833c0.83601,0.26337 1.63969,0.5476 2.4977,0.9096c0,0 0.02763,0.01184 0.05962,0.03689c0.07418,-0.00746 0.17376,0.01133 0.23727,0.13834c0.1118,0.22361 -0.1118,0.33541 -0.1118,0.33541l-0.15571,0.07347c-1.08862,0.31744 -2.53261,0.31057 -3.6808,-0.10097c0.5398,0.68569 0.97832,1.36519 1.3225,2.41825c0.16163,0.06026 0.32563,0.12197 0.49116,0.18799l0.15797,0.0522c0,0 0.23717,0.07906 0.15811,0.31623c-0.07906,0.23717 -0.31623,0.15811 -0.31623,0.15811l-0.18555,-0.06231c-0.05788,-0.02323 -0.11551,-0.04602 -0.17284,-0.06846l0.0004,0.00811c0,0 0,0.25 -0.25,0.25c-0.25,0 -0.25,-0.25 -0.25,-0.25l0.00904,-0.0479c-0.01558,-0.05684 -0.03135,-0.11257 -0.04732,-0.16724c-0.9378,-0.36064 -1.77384,-0.713 -2.40237,-1.53641c-0.12739,0.72682 -0.37137,1.41539 -0.66197,2.17086c0.04877,0.0589 0.09758,0.16185 0.01088,0.2919c-0.0512,0.07679 -0.11184,0.10634 -0.16798,0.11305c-0.03106,0.07971 -0.06248,0.16031 -0.09418,0.2419l-0.13861,0.21759c0,0 -0.13868,0.20801 -0.34669,0.06934c-0.20801,-0.13868 -0.06934,-0.34669 -0.06934,-0.34669l0.0904,-0.12593c0.03738,-0.09137 0.07431,-0.18143 0.11068,-0.27036c-0.40249,-0.26283 -0.62098,-0.72854 -0.73576,-1.2724c-0.33476,0.70094 -0.86094,1.30463 -1.61682,1.6919l-0.29584,0.11857c0,0 -0.23212,0.09285 -0.32497,-0.13927c-0.02177,-0.05442 -0.02567,-0.10118 -0.0189,-0.14089c-0.03773,0.01377 -0.08429,0.01836 -0.14154,0.00691c-0.24515,-0.04903 -0.19612,-0.29417 -0.19612,-0.29417l0.05725,-0.28627c0.33627,-1.68133 0.74375,-3.67737 2.484,-4.43897c0.0285,-0.02279 0.06644,-0.04113 0.11679,-0.0512c0.00445,-0.00089 0.00883,-0.00168 0.01315,-0.00238c0.04212,-0.01633 0.08497,-0.03197 0.12859,-0.0469c0,0 0.23717,-0.07906 0.31623,0.15811c0.06033,0.18098 -0.06348,0.26989 -0.12553,0.30186c0.10057,0.63379 0.10019,1.31555 -0.02482,1.97152c0.01444,0.80034 0.12884,1.59541 0.55685,1.94731c0.54329,-1.36813 0.88615,-2.52879 0.54253,-4.20711c0,0 -0.04903,-0.24515 0.19612,-0.29417c0.08927,-0.01785 0.15253,0.0033 0.19689,0.03742c0.00606,-0.05171 0.03219,-0.10762 0.09674,-0.15926c0.19522,-0.15617 0.35139,0.03904 0.35139,0.03904c0.18574,0.23502 0.36343,0.4509 0.53323,0.65561c0.10342,-0.0285 0.20174,0.03049 0.20174,0.03049c0.90203,0.54434 2.25954,0.68698 3.37137,0.51132c-1.15904,-0.46642 -2.23752,-0.78007 -3.50164,-1.14181l-0.2764,-0.05507c0,0 -0.24515,-0.04903 -0.19612,-0.29417c0.04903,-0.24515 0.29417,-0.19612 0.29417,-0.19612l0.29614,0.05944c0.2265,0.06462 0.44767,0.12834 0.66485,0.19206c0.05821,-0.0609 0.13811,-0.07865 0.13811,-0.07865zM266.07432,206.12939c0.04806,0.03721 0.07354,0.08179 0.07354,0.08179c0.50002,0.87951 1.22248,1.26716 2.04208,1.59255c-0.5248,-1.40043 -1.23696,-2.03292 -2.22274,-3.24249c0.10383,0.57004 0.1336,1.08383 0.10713,1.56815zM261.88742,209.30933l0.2767,-0.11045c0.99502,-0.47942 1.51408,-1.43014 1.70561,-2.44552c-0.00974,-0.63016 0.03456,-1.25028 0.03615,-1.71002c-1.38232,0.74645 -1.68647,2.57326 -1.96674,3.97459l-0.05725,0.28627c0,0 -0.00062,0.00309 -0.00206,0.00851c0.00482,-0.00228 0.0076,-0.00339 0.0076,-0.00339z" fill="#fffcb9" stroke="none" stroke-width="0.5"/><path d="M201.04777,153.18691v-0.12c0.00545,-1.23406 -0.00406,-2.13303 -0.89176,-2.79176c0.01869,0.88176 -0.06732,2.51785 -1.04266,2.90272c-0.31651,0.1249 -0.60965,0.14155 -0.86524,0.07961c0.63188,0.3887 2.14123,0.43374 2.89821,0.13555c-0.09855,-0.07171 -0.09855,-0.20612 -0.09855,-0.20612zM199.90951,149.54316c1.54461,0.7723 1.63225,1.92192 1.63826,3.52374v0.05701c0.03395,-0.0298 0.19037,-0.1502 0.34679,0.00622c0.17678,0.17678 0,0.35355 0,0.35355l-0.06,0.06c-0.91028,0.89839 -4.65094,0.82659 -4.35119,-0.84433c-0.26457,-0.41359 -0.32173,-0.97959 -0.06936,-1.48433c0,0 0.0076,-0.0152 0.02279,-0.03568c-0.04167,-0.28559 0.16222,-0.59203 0.46822,-0.78989c-0.05206,-0.0351 -0.09738,-0.09622 -0.09738,-0.20267c0,-0.11433 0.05229,-0.17638 0.10904,-0.21005c-0.13515,-0.1674 0.02419,-0.32674 0.02419,-0.32674l0.12498,-0.10683c0.66574,-0.33254 1.12773,-0.27597 1.54029,0.06008c0.11755,-0.153 0.30339,-0.06008 0.30339,-0.06008zM197.92943,152.24327c0.22361,0.1118 0.1118,0.33541 0.1118,0.33541c-0.00257,0.00433 -0.00508,0.00865 -0.00753,0.01295c0.20702,0.17198 0.51385,0.24054 0.8883,0.12429c0.70651,-0.21934 0.73283,-1.77137 0.75854,-2.33008c-0.45396,-0.5352 -0.68661,-0.71779 -1.29198,-0.44287l0.02653,0.0005c1.0309,0.49589 0.89129,2.24171 -0.3765,1.80054c-0.0972,-0.03383 -0.18128,-0.0721 -0.25324,-0.11391c-0.06047,0.20381 -0.05784,0.40651 -0.00188,0.58338c0.04175,-0.00506 0.09041,0.00202 0.14596,0.02979zM198.55831,150.67873c-0.31856,0.02893 -1.09323,0.37569 -0.36162,0.59094c0.48129,0.1416 0.55082,-0.27692 0.36162,-0.59094z" fill="#ffdf85" stroke="none" stroke-width="0.5"/><path d="M223.53598,211.22347c0.25,0 0.25,0.25 0.25,0.25l-0.03294,0.024c0.59089,1.04129 1.42716,1.57782 2.44179,1.88965c-0.07642,-0.11129 -0.15179,-0.23993 -0.22525,-0.38701c-0.22881,-0.68732 -0.59657,-2.08033 0.01953,-2.6545c0.03347,-0.03119 0.06747,-0.06035 0.10192,-0.08754c-0.64856,-0.08611 -1.29941,-0.10005 -1.66143,0.27602l-0.12723,0.26169c0,0 -0.1118,0.22361 -0.33541,0.1118c-0.22361,-0.1118 -0.1118,-0.33541 -0.1118,-0.33541l0.16883,-0.33044c0.90585,-0.88936 2.34388,-0.29868 3.4595,-0.3012c0,0 0.25,0 0.25,0.25c0,0.01168 -0.00055,0.02281 -0.00159,0.03343c0.38869,0.28624 0.63342,0.77601 0.54097,1.33995c0,0 -0.02233,0.13398 -0.13283,0.18797c0.24027,0.49754 0.23222,1.06912 -0.28218,1.36749c-0.08444,0.26914 -0.20825,0.48581 -0.35769,0.63239c0.02895,0.04235 0.04587,0.1007 0.03254,0.18066c-0.0411,0.2466 -0.2877,0.2055 -0.2877,0.2055c-1.67937,-0.27999 -3.04345,-0.85725 -3.92608,-2.39238l-0.03294,-0.27207c0,0 0,-0.25 0.25,-0.25zM226.31329,210.72627c-0.40901,0.31338 -0.01475,1.68424 0.11822,2.0825c0.41183,0.82266 0.72992,0.8105 0.90307,0.4061c-0.55857,-0.17689 -0.75866,-1.32163 -0.13469,-1.82366c-0.08698,-0.0413 -0.17537,-0.06415 -0.25919,-0.06249h-0.04934c0,0 -0.25,0 -0.25,-0.25c0,-0.25 0.25,-0.25 0.25,-0.25h0.04934c0.26871,0.00397 0.54001,0.13993 0.76833,0.34654c0.01488,-0.00084 0.04512,-0.0012 0.08024,0.00592c-0.07987,-0.66771 -0.86216,-0.92521 -1.47598,-0.4549zM227.4802,212.26297v-0.19737c0,0 0,-0.20343 0.18351,-0.24328c-0.02563,-0.04145 -0.05405,-0.08164 -0.08472,-0.12002c-0.46447,0.1424 -0.25599,0.72561 -0.11569,0.93921c0.01156,-0.11893 0.01731,-0.2461 0.0169,-0.37854z" fill="#ffdf85" stroke="none" stroke-width="0.5"/><path d="M291.34153,167.63238l0.01788,-0.00209c-0.07388,-0.1926 -1.24955,-1.30631 -1.23002,-0.81232c0.01688,0.42713 0.61081,0.90954 1.04661,1.29823l0.04954,-0.06192l0.23555,0.18844c0.00305,0.00239 0.00604,0.00486 0.00897,0.00739c-0.02533,-0.13236 -0.02738,-0.26716 -0.00305,-0.395c-0.12547,-0.06483 -0.12547,-0.22271 -0.12547,-0.22271zM291.36227,168.68317l-0.3678,0.09195c-1.46725,0.48504 -0.20925,2.17917 0.88579,1.49732c0.07373,-0.04591 0.20263,-0.22911 0.32847,-0.42251l-0.08747,-0.03749l0.14014,-0.32699c0.03695,-0.09192 0.12692,-0.15682 0.23206,-0.15682c0.13807,0 0.25,0.11193 0.25,0.25v0.23771c0.27192,0.521 1.54186,0.03207 1.74301,-0.45641c0.17782,-0.43185 -0.44856,-0.7779 -0.93386,-1.08909c-0.07092,0.37427 -0.32479,0.70493 -0.81005,0.83863c-0.56617,0.15599 -1.00658,-0.17425 -1.19412,-0.60611c-0.02361,0.08943 -0.09554,0.15924 -0.18617,0.1798zM293.56168,167.71656l-0.00002,0.0032l0.00974,-0.00294c2.60219,0.22273 1.25492,-1.47751 -0.18475,-0.74752l-0.10926,0.17481c-0.00474,0.00786 -0.0099,0.01545 -0.01545,0.02272c0.12926,0.16037 0.22193,0.35082 0.27111,0.54953zM292.86141,166.70469c-0.00504,-3.05555 -2.716,-1.04393 -0.71354,0.22868l0.25065,-0.21557c0.16104,0.00716 0.30928,0.04659 0.44228,0.11059zM291.72664,167.24578c0.01873,0.03326 0.03649,0.06701 0.05315,0.10125c0.01454,-0.0108 0.02959,-0.02124 0.04517,-0.03131c-0.03383,-0.02319 -0.0666,-0.04651 -0.09832,-0.06994zM290.59733,168.40363c-0.89827,-0.39053 -1.02187,-3.24187 0.41041,-2.00757c-0.64481,-1.54968 2.00672,-2.87387 2.32168,-0.19893c0.85897,-0.75135 4.351,1.88876 1.23961,2.05055c-0.05594,0.00291 -0.11193,0.00479 -0.16794,0.00577c0.29515,0.27645 0.54506,0.66008 0.57158,0.86741c0.15359,1.2005 -1.57212,1.66369 -2.41514,1.11504c-0.10728,0.41078 -0.93559,0.59123 -1.29828,0.5896c-1.55705,-0.00703 -1.91559,-1.77505 -0.66192,-2.42188z" fill="#fff764" stroke="none" stroke-width="0.5"/><path d="M233.78213,167.9051c-0.18387,0.132 -0.40712,0.23716 -0.67379,0.3035c-0.00895,0.12365 -0.03532,0.24673 -0.08162,0.36479h0.35086v0.00532c0.89407,-0.26574 1.75924,-0.58906 0.40454,-0.6736zM233.21318,167.40098c0.11007,-0.00163 0.21381,0.00065 0.31148,0.0065c0.97963,-0.85655 0.42967,-2.7316 -0.74548,-0.97327c-0.07445,0.31819 -0.15825,0.48266 -0.25203,0.53964c0.19095,0.11671 0.34971,0.30962 0.45338,0.53796zM230.46746,165.45777c-0.96845,0.34869 0.15104,1.49536 0.67934,1.66206c0.18451,-0.1655 0.45485,-0.29832 0.8302,-0.37574c0,0 0.06273,-0.01255 0.13106,0.00679c-0.41296,-0.4948 -0.95171,-1.54114 -1.6406,-1.29311zM230.0164,168.02949c-0.88971,1.46622 0.51192,2.08855 1.43499,0.99319c-0.44119,-0.33138 -0.74256,-0.93846 -0.59292,-1.45301c-0.34559,0.07447 -0.67612,0.18635 -0.84207,0.45982zM232.07179,169.95671c0.58386,0.55461 1.09084,-0.29506 0.91992,-0.8471l-0.16968,-0.04242c-0.03814,-0.00866 -0.07297,-0.02603 -0.10228,-0.04992c-0.02898,0.02646 -0.05973,0.05208 -0.0923,0.07677c-0.22577,0.17114 -0.47777,0.20701 -0.72023,0.1499c0.01759,0.30657 0.05789,0.61144 0.16458,0.71277zM234.16721,167.51902c1.4309,0.46411 0.43492,2.10706 -0.67614,1.58719c0.74576,1.90259 -1.84344,1.42722 -2.10673,0.59905c-0.03588,0.02929 -0.07298,0.06005 -0.11159,0.09305c-2.52435,2.1579 -2.00388,-1.79897 -1.02491,-2.69275c-0.67588,-0.64702 -1.06166,-1.69416 0.0615,-2.12213c1.5322,-0.58383 1.83062,1.94193 2.0116,1.25074c1.5237,-2.38015 2.78579,-0.03681 1.84627,1.28485zM231.72158,167.92497c0.02665,-0.00207 0.0533,-0.00468 0.0795,-0.00774c0.01098,-0.02252 0.02491,-0.04113 0.04044,-0.05652c0,-0.04722 0,-0.08541 0,-0.08541c0,-0.00802 0.00038,-0.01594 0.00112,-0.02377c-0.00078,-0.00006 -0.00156,-0.00012 -0.00235,-0.00018c-0.0547,0.05858 -0.09306,0.11734 -0.11872,0.17361z" fill="#fff764" stroke="none" stroke-width="0.5"/><path d="M251.59568,213.55631c-0.10236,0.02291 -0.2126,0.04154 -0.3311,0.0553c-0.01619,0.03566 -0.0337,0.07039 -0.05237,0.10383l0.17483,0.08742l-0.00613,0.01225l0.0405,0.00854c0.26327,0.26327 0.39478,0.3327 0.50256,0.72455c0.06713,0.24407 0.09748,0.4487 0.09815,0.6183c0.04305,0.05302 0.08818,0.09662 0.13641,0.12654c0.51275,0.31811 0.0023,-1.18927 -0.56284,-1.73673zM250.65396,214.23557l-0.01606,-0.00229c-0.01387,0.03512 -0.03628,0.09185 -0.06299,0.15945c0.06506,0.54981 0.20411,1.14689 0.54182,1.06701c0.12069,-0.02855 0.20352,-0.08546 0.25675,-0.16021c-0.23527,-0.17543 -0.41781,-0.5113 -0.47041,-1.05963l-0.04674,0.00935l-0.03136,-0.15678c-0.05433,0.01793 -0.10634,0.03033 -0.15596,0.03768zM251.56784,212.92301l-0.02601,0.00257c0.05318,0.02152 0.10457,0.0434 0.1542,0.06563c1.17466,-0.46064 0.29471,-1.75875 -0.37094,-0.41671l-0.05485,0.1097c0.03828,0.04684 0.0665,0.10173 0.08579,0.16221c0.11868,-0.01654 0.21182,0.0766 0.21182,0.0766zM250.16324,214.08104l0.01432,-0.0859c-0.13282,-0.12078 -0.20949,-0.30563 -0.2242,-0.50621c-0.01884,-0.01702 -0.03622,-0.03546 -0.05191,-0.05535c-1.19045,0.70279 -0.32837,2.09199 0.2618,0.64746zM251.20235,211.85873c1.00616,-1.12769 2.25072,0.65328 1.04428,1.43861c1.24665,0.87149 0.53039,2.01117 -0.25528,2.14329c-0.19919,0.77082 -1.31317,0.3735 -1.79737,-0.23398c-1.38969,1.70075 -1.74427,-2.1781 -0.83069,-2.34949c-0.52043,-0.73728 0.02144,-1.97388 1.11772,-1.6756c0.22379,0.06089 0.5595,0.37437 0.72134,0.67717zM250.64933,213.62194c0.00262,-0.00049 0.00526,-0.00103 0.00792,-0.00162c-0.00012,-0.00004 -0.00024,-0.00009 -0.00037,-0.00013c-0.00251,0.0006 -0.00503,0.00118 -0.00755,0.00176zM250.72118,212.44091c-0.68565,-1.39988 -1.18315,-0.03468 -0.76521,0.29336c0.17453,-0.21 0.47655,-0.31317 0.76521,-0.29336z" fill="#fff764" stroke="none" stroke-width="0.5"/></g></g></svg>