<svg version="1.1" xmlns="http://www.w3.org/2000/svg" xmlns:xlink="http://www.w3.org/1999/xlink" width="497.45783" height="332.33561" viewBox="0,0,497.45783,332.33561"><g transform="translate(8.9875,-13.83221)"><g data-paper-data="{&quot;isPaintingLayer&quot;:true}" fill-rule="nonzero" stroke="#000000" stroke-width="10" stroke-linecap="butt" stroke-linejoin="miter" stroke-dasharray="" stroke-dashoffset="0" style="mix-blend-mode: normal"><path d="M437.82409,93.03605v247.74543h-30.90608v-247.74542z" fill-opacity="0.98947" fill="#313131" stroke-miterlimit="10"/><path d="M437.82409,18.8324v48.68331h-30.90608v-48.68331z" fill-opacity="0.98947" fill="#313131" stroke-miterlimit="10"/><path d="M47.93145,44.3526v-25.52039h389.89288v25.52039z" fill-opacity="0.98947" fill="#313131" stroke-miterlimit="10"/><path d="M47.93145,341.16782v-25.52038h389.89288v25.52038z" fill-opacity="0.98947" fill="#313131" stroke-miterlimit="10"/><path d="M473.04905,62.45179h-30.5603l-4.66464,-5.53021h39.88824z" fill-opacity="0.98947" fill="#313131" stroke-miterlimit="3.7"/><path d="M473.04905,99.58021v-36.23339l4.66327,-5.53021v47.29268z" fill-opacity="0.98947" fill="#313131" stroke-miterlimit="3.7"/><path d="M442.48874,98.68541h30.5603l4.6633,5.52908h-39.88824z" fill-opacity="0.98947" fill="#313131" stroke-miterlimit="3.7"/><path d="M437.82409,104.21449v-11.17844h4.66464v5.64937z" fill-opacity="0.98947" fill="#313131" stroke-miterlimit="3.7"/><path d="M442.48874,62.45179v5.06392h-4.66464v-10.59413z" fill-opacity="0.98947" fill="#313131" stroke-miterlimit="3.7"/><path d="M332.20904,142.87291v96.16364h-13.48125v-96.16364z" fill-opacity="0.98947" fill="#313131" stroke-miterlimit="10"/><path d="M332.20904,114.07039v18.89668h-13.48125v-18.89668z" fill-opacity="0.98947" fill="#313131" stroke-miterlimit="10"/><path d="M162.1376,123.97618v-9.90586h170.07154v9.90586z" fill-opacity="0.98947" fill="#313131" stroke-miterlimit="10"/><path d="M162.1376,114.07031h13.48128v124.96636h-13.48128z" fill-opacity="0.98947" fill="#313131" stroke-miterlimit="10"/><path d="M162.1376,114.07031h13.48128v124.96636h-13.48128z" fill-opacity="0.98947" fill="#313131" stroke-miterlimit="10"/><path d="M162.1376,239.18653v-9.90587h170.07154v9.90587z" fill-opacity="0.98947" fill="#313131" stroke-miterlimit="10"/><path d="M332.22538,130.42127v18.89667h-13.48126v-18.89667z" fill-opacity="0.98947" fill="#313131" stroke-miterlimit="10"/><path d="M171.03604,230.06976v-109.9573h149.92887v109.9573z" fill-opacity="0.98947" fill="#313131" stroke-miterlimit="10"/><path d="M45.12593,266.77091v-247.74542h33.19181v247.74543z" data-paper-data="{&quot;index&quot;:null}" fill-opacity="0.98947" fill="#313131" stroke-miterlimit="10"/><path d="M45.12593,340.97454v-48.68331h33.19181v48.68331z" data-paper-data="{&quot;index&quot;:null}" fill-opacity="0.98947" fill="#313131" stroke-miterlimit="10"/><path d="M7.29584,297.35516h32.82047l5.00963,5.53021h-42.83826z" data-paper-data="{&quot;index&quot;:null}" fill-opacity="0.98947" fill="#313131" stroke-miterlimit="3.7"/><path d="M7.29584,260.22674v36.23339l-5.00814,5.53021v-47.29267z" data-paper-data="{&quot;index&quot;:null}" fill-opacity="0.98947" fill="#313131" stroke-miterlimit="3.7"/><path d="M40.1163,261.12153h-32.82047l-5.00818,-5.52908h42.83826z" data-paper-data="{&quot;index&quot;:null}" fill-opacity="0.98947" fill="#313131" stroke-miterlimit="3.7"/><path d="M45.12593,255.59245v11.17846h-5.00963v-5.64937z" data-paper-data="{&quot;index&quot;:null}" fill-opacity="0.98947" fill="#313131" stroke-miterlimit="3.7"/><path d="M40.1163,297.35516v-5.06392h5.00963v10.59413z" data-paper-data="{&quot;index&quot;:null}" fill-opacity="0.98947" fill="#313131" stroke-miterlimit="3.7"/><path d="M417.79784,99.14729v-45.04505h11.38639v45.04505z" fill="#313131" stroke-miterlimit="10"/></g></g></svg>