<svg version="1.1" xmlns="http://www.w3.org/2000/svg" xmlns:xlink="http://www.w3.org/1999/xlink" width="519.51953" height="393.39341" viewBox="0,0,519.51953,393.39341"><g transform="translate(7.84158,24.20421)"><g data-paper-data="{&quot;isPaintingLayer&quot;:true}" fill-rule="nonzero" stroke-linecap="butt" stroke-linejoin="miter" stroke-dasharray="" stroke-dashoffset="0" style="mix-blend-mode: normal"><path d="M437.1757,92.8123v248.38289h-30.98561v-248.38289z" fill-opacity="0.98947" fill="#313131" stroke="none" stroke-width="0.56813" stroke-miterlimit="10"/><path d="M437.1757,18.4177v48.80859h-30.98561v-48.80859z" fill-opacity="0.98947" fill="#313131" stroke="none" stroke-width="0.56813" stroke-miterlimit="10"/><path d="M46.27982,44.00355v-25.58606h390.8961v25.58606z" fill-opacity="0.98947" fill="#313131" stroke="none" stroke-width="0.56813" stroke-miterlimit="10"/><path d="M46.27982,341.58255v-25.58606h390.8961v25.58606z" fill-opacity="0.98947" fill="#313131" stroke="none" stroke-width="0.56813" stroke-miterlimit="10"/><path d="M472.49128,62.14933h-30.63894l-4.67665,-5.54444h39.99088z" fill-opacity="0.98947" fill="#313131" stroke="none" stroke-width="0.09102" stroke-miterlimit="3.7"/><path d="M472.49128,99.37331v-36.32662l4.67526,-5.54445v47.41437z" fill-opacity="0.98947" fill="#313131" stroke="none" stroke-width="0.09102" stroke-miterlimit="3.7"/><path d="M441.85234,98.47621h30.63894l4.67529,5.5433h-39.99088z" fill-opacity="0.98947" fill="#313131" stroke="none" stroke-width="0.09102" stroke-miterlimit="3.7"/><path d="M437.1757,104.0195v-11.20721h4.67665v5.66391z" fill-opacity="0.98947" fill="#313131" stroke="none" stroke-width="0.09102" stroke-miterlimit="3.7"/><path d="M441.85234,62.14933v5.07695h-4.67665v-10.62139z" fill-opacity="0.98947" fill="#313131" stroke="none" stroke-width="0.09102" stroke-miterlimit="3.7"/><path d="M112.42359,290.21245v-219.47106h11.18045v219.47106z" fill-opacity="0.98947" fill="#313131" stroke="none" stroke-width="0" stroke-miterlimit="10"/><path d="M164.83297,182.45419v-12.56883h203.11156v12.56883z" fill-opacity="0.98947" fill="#313131" stroke="none" stroke-width="0" stroke-miterlimit="10"/><path d="M164.83297,137.01303v-15.46933h203.11157v15.46933z" fill-opacity="0.98947" fill="#313131" stroke="none" stroke-width="0" stroke-miterlimit="10"/><path d="M164.83297,88.6714v-15.46933h203.11157v15.46933z" fill-opacity="0.98947" fill="#313131" stroke="none" stroke-width="0" stroke-miterlimit="10"/><path d="M164.83297,284.93845v-13.2362h203.11156v13.2362z" fill-opacity="0.98947" fill="#313131" stroke="none" stroke-width="0" stroke-miterlimit="10"/><path d="M164.83297,237.0845v-16.29071h203.11157v16.29071z" fill-opacity="0.98947" fill="#313131" stroke="none" stroke-width="0" stroke-miterlimit="10"/><path d="M164.83297,186.17607v-16.29071h203.11157v16.29071z" fill-opacity="0.98947" fill="#313131" stroke="none" stroke-width="0" stroke-miterlimit="10"/><path d="M164.85022,186.34269v-63.81097h12.92281v63.81097z" fill-opacity="0.98947" fill="#313131" stroke="none" stroke-width="0" stroke-miterlimit="10"/><path d="M355.02663,234.9405v-63.81097h12.92281v63.81097z" fill-opacity="0.98947" fill="#313131" stroke="none" stroke-width="0" stroke-miterlimit="10"/><path d="M41.60999,266.99418v-248.3829h32.37149v248.3829z" data-paper-data="{&quot;index&quot;:null}" fill-opacity="0.98947" fill="#313131" stroke="none" stroke-width="0.56813" stroke-miterlimit="10"/><path d="M41.60999,341.38878v-48.80858h32.37149v48.80858z" data-paper-data="{&quot;index&quot;:null}" fill-opacity="0.98947" fill="#313131" stroke="none" stroke-width="0.56813" stroke-miterlimit="10"/><path d="M4.71485,297.65716h32.00932l4.88583,5.54444h-41.77955z" data-paper-data="{&quot;index&quot;:null}" fill-opacity="0.98947" fill="#313131" stroke="none" stroke-width="0.09102" stroke-miterlimit="3.7"/><path d="M4.71485,260.43318v36.32663l-4.88437,5.54444v-47.41437z" data-paper-data="{&quot;index&quot;:null}" fill-opacity="0.98947" fill="#313131" stroke="none" stroke-width="0.09102" stroke-miterlimit="3.7"/><path d="M36.72417,261.33027h-32.00932l-4.8844,-5.54331h41.77955z" data-paper-data="{&quot;index&quot;:null}" fill-opacity="0.98947" fill="#313131" stroke="none" stroke-width="0.09102" stroke-miterlimit="3.7"/><path d="M41.60999,255.78699v11.20722h-4.88582v-5.66391z" data-paper-data="{&quot;index&quot;:null}" fill-opacity="0.98947" fill="#313131" stroke="none" stroke-width="0.09102" stroke-miterlimit="3.7"/><path d="M36.72417,297.65716v-5.07695h4.88582v10.62139z" data-paper-data="{&quot;index&quot;:null}" fill-opacity="0.98947" fill="#313131" stroke="none" stroke-width="0.09102" stroke-miterlimit="3.7"/><path d="M-1.83556,256.57658v-261.26126h45.04505v261.26126z" fill="#b171ff" stroke="none" stroke-width="0" stroke-miterlimit="10"/><path d="M-4.83856,19.33933v-43.54354h513.51351v43.54354z" fill="#b171ff" stroke="none" stroke-width="0" stroke-miterlimit="10"/><path d="M-7.84158,369.18921v-28.52853h498.4985v28.52853z" fill="#b171ff" stroke="none" stroke-width="0" stroke-miterlimit="10"/><path d="M-0.33407,366.18621v-63.06306h42.04204v63.06306z" fill="#b171ff" stroke="none" stroke-width="0" stroke-miterlimit="10"/><path d="M50.93595,302.85598v-45.04505h11.38639v45.04505z" fill="#313131" stroke="#000000" stroke-width="0" stroke-miterlimit="10"/><path d="M440.17871,92.8123v248.38289h-30.98561v-248.38289z" fill-opacity="0.98947" fill="#313131" stroke="none" stroke-width="0.56813" stroke-miterlimit="10"/><path d="M440.17871,18.41771v48.80859h-30.98561v-48.80859z" fill-opacity="0.98947" fill="#313131" stroke="none" stroke-width="0.56813" stroke-miterlimit="10"/><path d="M49.28283,44.00356v-25.58606h390.8961v25.58606z" fill-opacity="0.98947" fill="#313131" stroke="none" stroke-width="0.56813" stroke-miterlimit="10"/><path d="M49.28283,341.58255v-25.58606h390.8961v25.58606z" fill-opacity="0.98947" fill="#313131" stroke="none" stroke-width="0.56813" stroke-miterlimit="10"/><path d="M475.49429,62.14934h-30.63894l-4.67665,-5.54444h39.99088z" fill-opacity="0.98947" fill="#313131" stroke="none" stroke-width="0.09102" stroke-miterlimit="3.7"/><path d="M475.49429,99.37331v-36.32662l4.67526,-5.54445v47.41437z" fill-opacity="0.98947" fill="#313131" stroke="none" stroke-width="0.09102" stroke-miterlimit="3.7"/><path d="M444.85535,98.47621h30.63894l4.67529,5.5433h-39.99088z" fill-opacity="0.98947" fill="#313131" stroke="none" stroke-width="0.09102" stroke-miterlimit="3.7"/><path d="M440.17871,104.01951v-11.20721h4.67665v5.66391z" fill-opacity="0.98947" fill="#313131" stroke="none" stroke-width="0.09102" stroke-miterlimit="3.7"/><path d="M444.85535,62.14934v5.07695h-4.67665v-10.62139z" fill-opacity="0.98947" fill="#313131" stroke="none" stroke-width="0.09102" stroke-miterlimit="3.7"/><path d="M115.4266,290.21245v-219.47106h11.18045v219.47106z" fill-opacity="0.98947" fill="#313131" stroke="none" stroke-width="0" stroke-miterlimit="10"/><path d="M167.83598,182.45419v-12.56883h203.11156v12.56883z" fill-opacity="0.98947" fill="#313131" stroke="none" stroke-width="0" stroke-miterlimit="10"/><path d="M167.83598,137.01304v-15.46933h203.11157v15.46933z" fill-opacity="0.98947" fill="#313131" stroke="none" stroke-width="0" stroke-miterlimit="10"/><path d="M167.83598,88.6714v-15.46933h203.11157v15.46933z" fill-opacity="0.98947" fill="#313131" stroke="none" stroke-width="0" stroke-miterlimit="10"/><path d="M167.83598,284.93845v-13.2362h203.11156v13.2362z" fill-opacity="0.98947" fill="#313131" stroke="none" stroke-width="0" stroke-miterlimit="10"/><path d="M167.83598,237.08451v-16.29071h203.11157v16.29071z" fill-opacity="0.98947" fill="#313131" stroke="none" stroke-width="0" stroke-miterlimit="10"/><path d="M167.83598,186.17607v-16.29071h203.11157v16.29071z" fill-opacity="0.98947" fill="#313131" stroke="none" stroke-width="0" stroke-miterlimit="10"/><path d="M167.85323,186.34269v-63.81097h12.92281v63.81097z" fill-opacity="0.98947" fill="#313131" stroke="none" stroke-width="0" stroke-miterlimit="10"/><path d="M358.02964,234.94051v-63.81097h12.92281v63.81097z" fill-opacity="0.98947" fill="#313131" stroke="none" stroke-width="0" stroke-miterlimit="10"/><path d="M44.613,266.99419v-248.3829h32.37149v248.3829z" data-paper-data="{&quot;index&quot;:null}" fill-opacity="0.98947" fill="#313131" stroke="none" stroke-width="0.56813" stroke-miterlimit="10"/><path d="M44.613,341.38878v-48.80858h32.37149v48.80858z" data-paper-data="{&quot;index&quot;:null}" fill-opacity="0.98947" fill="#313131" stroke="none" stroke-width="0.56813" stroke-miterlimit="10"/><path d="M7.71786,297.65716h32.00932l4.88583,5.54444h-41.77955z" data-paper-data="{&quot;index&quot;:null}" fill-opacity="0.98947" fill="#313131" stroke="none" stroke-width="0.09102" stroke-miterlimit="3.7"/><path d="M7.71786,260.43318v36.32663l-4.88437,5.54444v-47.41437z" data-paper-data="{&quot;index&quot;:null}" fill-opacity="0.98947" fill="#313131" stroke="none" stroke-width="0.09102" stroke-miterlimit="3.7"/><path d="M39.72718,261.33027h-32.00932l-4.8844,-5.54331h41.77955z" data-paper-data="{&quot;index&quot;:null}" fill-opacity="0.98947" fill="#313131" stroke="none" stroke-width="0.09102" stroke-miterlimit="3.7"/><path d="M44.613,255.78699v11.20722h-4.88582v-5.66391z" data-paper-data="{&quot;index&quot;:null}" fill-opacity="0.98947" fill="#313131" stroke="none" stroke-width="0.09102" stroke-miterlimit="3.7"/><path d="M39.72718,297.65716v-5.07695h4.88582v10.62139z" data-paper-data="{&quot;index&quot;:null}" fill-opacity="0.98947" fill="#313131" stroke="none" stroke-width="0.09102" stroke-miterlimit="3.7"/><path d="M1.16745,256.57659v-261.26126h45.04505v261.26126z" fill="#b171ff" stroke="none" stroke-width="0" stroke-miterlimit="10"/><path d="M-1.83555,19.33933v-43.54354h513.51351v43.54354z" fill="#b171ff" stroke="none" stroke-width="0" stroke-miterlimit="10"/><path d="M-4.83857,369.18921v-28.52853h498.4985v28.52853z" fill="#b171ff" stroke="none" stroke-width="0" stroke-miterlimit="10"/><path d="M2.66894,366.18621v-63.06306h42.04204v63.06306z" fill="#b171ff" stroke="none" stroke-width="0" stroke-miterlimit="10"/><path d="M53.93896,302.85598v-45.04505h11.38639v45.04505z" fill="#313131" stroke="#000000" stroke-width="0" stroke-miterlimit="10"/></g></g></svg>