<svg version="1.1" xmlns="http://www.w3.org/2000/svg" xmlns:xlink="http://www.w3.org/1999/xlink" width="516.51653" height="393.39342" viewBox="0,0,516.51653,393.39342"><g transform="translate(6.34007,24.20421)"><g data-paper-data="{&quot;isPaintingLayer&quot;:true}" fill-rule="nonzero" stroke="none" stroke-linecap="butt" stroke-linejoin="miter" stroke-dasharray="" stroke-dashoffset="0" style="mix-blend-mode: normal"><path d="M437.82411,93.03609v247.74543h-30.90608v-247.74542z" fill-opacity="0.98947" fill="#313131" stroke-width="0.56813" stroke-miterlimit="10"/><path d="M437.82411,18.8324v48.68331h-30.90608v-48.68331z" fill-opacity="0.98947" fill="#313131" stroke-width="0.56813" stroke-miterlimit="10"/><path d="M47.93147,44.35263v-25.52039h389.89288v25.52039z" fill-opacity="0.98947" fill="#313131" stroke-width="0.56813" stroke-miterlimit="10"/><path d="M47.93147,341.16786v-25.52038h389.89288v25.52038z" fill-opacity="0.98947" fill="#313131" stroke-width="0.56813" stroke-miterlimit="10"/><path d="M473.04907,62.4518h-30.5603l-4.66464,-5.53021h39.88824z" fill-opacity="0.98947" fill="#313131" stroke-width="0.09102" stroke-miterlimit="3.7"/><path d="M473.04907,99.58025v-36.23339l4.66327,-5.53021v47.29268z" fill-opacity="0.98947" fill="#313131" stroke-width="0.09102" stroke-miterlimit="3.7"/><path d="M442.48876,98.68545h30.5603l4.6633,5.52908h-39.88824z" fill-opacity="0.98947" fill="#313131" stroke-width="0.09102" stroke-miterlimit="3.7"/><path d="M437.82411,104.21452v-11.17844h4.66464v5.64937z" fill-opacity="0.98947" fill="#313131" stroke-width="0.09102" stroke-miterlimit="3.7"/><path d="M442.48876,62.4518v5.06392h-4.66464v-10.59413z" fill-opacity="0.98947" fill="#313131" stroke-width="0.09102" stroke-miterlimit="3.7"/><path d="M332.20905,142.87291v96.16364h-13.48125v-96.16364z" fill-opacity="0.98947" fill="#313131" stroke-width="0.56813" stroke-miterlimit="10"/><path d="M332.20905,114.07039v18.89668h-13.48125v-18.89668z" fill-opacity="0.98947" fill="#313131" stroke-width="0.56813" stroke-miterlimit="10"/><path d="M162.13761,123.97618v-9.90586h170.07154v9.90586z" fill-opacity="0.98947" fill="#313131" stroke-width="0.56813" stroke-miterlimit="10"/><path d="M162.13761,114.07035h13.48128v124.96636h-13.48128z" fill-opacity="0.98947" fill="#313131" stroke-width="0.56813" stroke-miterlimit="10"/><path d="M162.13761,114.07035h13.48128v124.96636h-13.48128z" fill-opacity="0.98947" fill="#313131" stroke-width="0.56813" stroke-miterlimit="10"/><path d="M162.13761,239.18656v-9.90587h170.07154v9.90587z" fill-opacity="0.98947" fill="#313131" stroke-width="0.56813" stroke-miterlimit="10"/><path d="M332.22538,130.42127v18.89667h-13.48126v-18.89667z" fill-opacity="0.98947" fill="#313131" stroke-width="0.56813" stroke-miterlimit="10"/><path d="M171.03606,230.0698v-109.9573h149.92887v109.9573z" fill-opacity="0.98947" fill="#313131" stroke-width="0" stroke-miterlimit="10"/><path d="M45.12595,266.77092v-247.74542h33.19181v247.74543z" data-paper-data="{&quot;index&quot;:null}" fill-opacity="0.98947" fill="#313131" stroke-width="0.56813" stroke-miterlimit="10"/><path d="M45.12595,340.97458v-48.68331h33.19181v48.68331z" data-paper-data="{&quot;index&quot;:null}" fill-opacity="0.98947" fill="#313131" stroke-width="0.56813" stroke-miterlimit="10"/><path d="M7.29586,297.35517h32.82047l5.00963,5.53021h-42.83826z" data-paper-data="{&quot;index&quot;:null}" fill-opacity="0.98947" fill="#313131" stroke-width="0.09102" stroke-miterlimit="3.7"/><path d="M7.29586,260.22675v36.23339l-5.00814,5.53021v-47.29267z" data-paper-data="{&quot;index&quot;:null}" fill-opacity="0.98947" fill="#313131" stroke-width="0.09102" stroke-miterlimit="3.7"/><path d="M40.11632,261.12154h-32.82047l-5.00818,-5.52908h42.83826z" data-paper-data="{&quot;index&quot;:null}" fill-opacity="0.98947" fill="#313131" stroke-width="0.09102" stroke-miterlimit="3.7"/><path d="M45.12595,255.59247v11.17846h-5.00963v-5.64937z" data-paper-data="{&quot;index&quot;:null}" fill-opacity="0.98947" fill="#313131" stroke-width="0.09102" stroke-miterlimit="3.7"/><path d="M40.11632,297.35517v-5.06392h5.00963v10.59413z" data-paper-data="{&quot;index&quot;:null}" fill-opacity="0.98947" fill="#313131" stroke-width="0.09102" stroke-miterlimit="3.7"/><path d="M-0.33405,256.57658v-261.26126h45.04505v261.26126z" fill="#b171ff" stroke-width="0" stroke-miterlimit="10"/><path d="M-3.33705,19.33933v-43.54354h513.51351v43.54354z" fill="#b171ff" stroke-width="0" stroke-miterlimit="10"/><path d="M-6.34007,369.18922v-28.52853h498.4985v28.52853z" fill="#b171ff" stroke-width="0" stroke-miterlimit="10"/><path d="M1.16744,366.18622v-63.06306h42.04204v63.06306z" fill="#b171ff" stroke-width="0" stroke-miterlimit="10"/><path d="M417.79783,99.14728v-45.04505h11.38639v45.04505z" fill="#313131" stroke-width="0" stroke-miterlimit="10"/></g></g></svg>