<svg version="1.1" xmlns="http://www.w3.org/2000/svg" xmlns:xlink="http://www.w3.org/1999/xlink" width="115.12448" height="153.36479" viewBox="0,0,115.12448,153.36479"><defs><radialGradient cx="239.17969" cy="180.5625" r="10.8125" gradientUnits="userSpaceOnUse" id="color-1"><stop offset="0" stop-color="#fdffef"/><stop offset="1" stop-color="#fdffef" stop-opacity="0"/></radialGradient></defs><g transform="translate(-134.86771,-36.44771)"><g data-paper-data="{&quot;isPaintingLayer&quot;:true}" fill-rule="nonzero" stroke-linecap="butt" stroke-linejoin="miter" stroke-miterlimit="10" stroke-dasharray="" stroke-dashoffset="0" style="mix-blend-mode: normal"><path d="M249.99219,180.5625c0,5.10863 -4.84092,9.25 -10.8125,9.25c-5.97158,0 -10.8125,-4.14137 -10.8125,-9.25c0,-5.10863 4.84092,-9.25 10.8125,-9.25c5.97158,0 10.8125,4.14137 10.8125,9.25z" fill="url(#color-1)" stroke="none" stroke-width="0"/><text transform="translate(135,36.58) scale(0.26458,0.26458)" font-size="16" xml:space="preserve" fill="#ffb833" fill-rule="nonzero" stroke="none" stroke-width="1" stroke-linecap="butt" stroke-linejoin="miter" stroke-miterlimit="10" stroke-dasharray="" stroke-dashoffset="0" font-family="&quot;Helvetica Neue&quot;, Helvetica, Arial, sans-serif" font-weight="400" text-anchor="start" style="mix-blend-mode: normal"><tspan x="0" dy="0"> </tspan></text><text transform="translate(135,36.58) scale(0.26458,0.26458)" font-size="53.3333" xml:space="preserve" fill="#ffb833" fill-rule="nonzero" stroke="none" stroke-width="1" stroke-linecap="butt" stroke-linejoin="miter" stroke-miterlimit="10" stroke-dasharray="" stroke-dashoffset="0" font-family="&quot;Helvetica Neue&quot;, Helvetica, Arial, sans-serif" font-weight="400" text-anchor="start" style="mix-blend-mode: normal"><tspan x="0" dy="0"> </tspan></text><g stroke="#ff8e00" stroke-width="0"><path d="M233.74734,176.58455h10.65076v7.23911h-10.65076z" fill="#ffcc33"/><path d="M232.49041,175.41867l1.25693,1.16587v7.23911l-1.25693,1.16587z" fill="#ffb833"/><path d="M244.39809,176.58455l1.25693,-1.16587v9.57086l-1.25693,-1.16587z" fill="#ffb833"/><path d="M235.56495,178.68837c0,-0.81853 0.44091,-1.48208 0.98479,-1.48208c0.54389,0 0.98479,0.66355 0.98479,1.48208c0,0.81853 -0.44091,1.48208 -0.98479,1.48208c-0.54389,0 -0.98479,-0.66355 -0.98479,-1.48208z" fill="#ffffff"/><path d="M240.6109,178.68837c0,-0.81853 0.44091,-1.48208 0.98479,-1.48208c0.54389,0 0.98479,0.66355 0.98479,1.48208c0,0.81853 -0.44091,1.48208 -0.98479,1.48208c-0.54389,0 -0.98479,-0.66355 -0.98479,-1.48208z" fill="#ffffff"/><path d="M240.95925,178.9828c0,-0.52898 0.28494,-0.95781 0.63643,-0.95781c0.35149,0 0.63643,0.42883 0.63643,0.95781c0,0.52898 -0.28494,0.95781 -0.63643,0.95781c-0.35149,0 -0.63643,-0.42883 -0.63643,-0.95781z" fill="#000000"/><path d="M235.91331,178.9828c0,-0.52898 0.28494,-0.95781 0.63643,-0.95781c0.35149,0 0.63643,0.42883 0.63643,0.95781c0,0.52898 -0.28494,0.95781 -0.63643,0.95781c-0.35149,0 -0.63643,-0.42883 -0.63643,-0.95781z" fill="#000000"/><path d="M240.61573,181.73977c0,0.48375 -0.73088,0.8759 -1.63246,0.8759c-0.90158,0 -1.63246,-0.39215 -1.63246,-0.8759z" fill="#000000"/><path d="M239.09933,181.73899h1.27527c0,0.32341 -0.57096,0.58558 -1.27527,0.58558z" fill="#ffffff"/><path d="M238.8672,182.32457c-0.70431,0 -1.27527,-0.26217 -1.27527,-0.58558h1.27527z" fill="#ffffff"/></g></g></g></svg>