<svg version="1.1" xmlns="http://www.w3.org/2000/svg" xmlns:xlink="http://www.w3.org/1999/xlink" width="497.04559" height="334.58578" viewBox="0,0,497.04559,334.58578"><g transform="translate(8.53993,-12.70711)"><g data-paper-data="{&quot;isPaintingLayer&quot;:true}" fill-rule="nonzero" stroke="#000000" stroke-width="10" stroke-linecap="butt" stroke-linejoin="miter" stroke-dasharray="" stroke-dashoffset="0" style="mix-blend-mode: normal"><path d="M437.58101,92.42895v249.47489h-31.12183v-249.47489z" fill-opacity="0.98947" fill="#313131" stroke-miterlimit="10"/><path d="M437.58101,17.70731v49.02316h-31.12183v-49.02316z" fill-opacity="0.98947" fill="#313131" stroke-miterlimit="10"/><path d="M44.9666,43.40565v-25.69854h392.61464v25.69854z" fill-opacity="0.98947" fill="#313131" stroke-miterlimit="10"/><path d="M44.9666,342.29289v-25.69854h392.61464v25.69854z" fill-opacity="0.98947" fill="#313131" stroke-miterlimit="10"/><path d="M473.05186,61.63119h-30.77364l-4.69721,-5.56882h40.16669z" fill-opacity="0.98947" fill="#313131" stroke-miterlimit="3.7"/><path d="M473.05186,99.0188v-36.48634l4.69582,-5.56882v47.62282z" fill-opacity="0.98947" fill="#313131" stroke-miterlimit="3.7"/><path d="M442.27821,98.11776h30.77364l4.69584,5.56768h-40.16669z" fill-opacity="0.98947" fill="#313131" stroke-miterlimit="3.7"/><path d="M437.58101,103.68544v-11.25648h4.69721v5.68881z" fill-opacity="0.98947" fill="#313131" stroke-miterlimit="3.7"/><path d="M442.27821,61.63119v5.09927h-4.69721v-10.66809z" fill-opacity="0.98947" fill="#313131" stroke-miterlimit="3.7"/><path d="M111.98551,276.81163v-179.54407h11.22961v179.54407z" fill-opacity="0.98947" fill="#313131" stroke-miterlimit="10"/><path d="M112.66576,109.66021v-12.39744h56.23087v12.39744z" fill-opacity="0.98947" fill="#313131" stroke-miterlimit="10"/><path d="M303.92801,209.28702v-115.9023h11.22961v115.9023z" fill-opacity="0.98947" fill="#313131" stroke-miterlimit="10"/><path d="M348.917,209.25399v-115.12165h12.59294v115.12165z" fill-opacity="0.98947" fill="#313131" stroke-miterlimit="10"/><path d="M256.08046,271.25891v-181.55981h11.22961v181.55981z" fill-opacity="0.98947" fill="#313131" stroke-miterlimit="10"/><path d="M256.61725,271.21102v-11.82081h104.87774v11.82081z" fill-opacity="0.98947" fill="#313131" stroke-miterlimit="10"/><path d="M200.47272,326.6275v-181.55981h11.22961v181.55981z" fill-opacity="0.98947" fill="#313131" stroke-miterlimit="10"/><path d="M160.87281,155.65038v-12.39743h50.99755v12.39743z" fill-opacity="0.98947" fill="#313131" stroke-miterlimit="10"/><path d="M156.56022,276.89784v-133.55031h11.91452v133.55031z" fill-opacity="0.98947" fill="#313131" stroke-miterlimit="10"/><path d="M112.21348,276.7797v-12.39744h56.23087v12.39744z" fill-opacity="0.98947" fill="#313131" stroke-miterlimit="10"/><path d="M303.90196,104.19046v-12.39744h57.653v12.39744z" fill-opacity="0.98947" fill="#313131" stroke-miterlimit="10"/><path d="M42.61737,267.37662v-249.47489h31.27553v249.47489z" data-paper-data="{&quot;index&quot;:null}" fill-opacity="0.98947" fill="#313131" stroke-miterlimit="10"/><path d="M42.61737,342.09826v-49.02316h31.27553v49.02316z" data-paper-data="{&quot;index&quot;:null}" fill-opacity="0.98947" fill="#313131" stroke-miterlimit="10"/><path d="M6.97133,298.17438h30.92563l4.72041,5.56882h-40.36507z" data-paper-data="{&quot;index&quot;:null}" fill-opacity="0.98947" fill="#313131" stroke-miterlimit="3.7"/><path d="M6.97133,260.78677v36.48634l-4.71901,5.56882v-47.62282z" data-paper-data="{&quot;index&quot;:null}" fill-opacity="0.98947" fill="#313131" stroke-miterlimit="3.7"/><path d="M37.89696,261.68781h-30.92563l-4.71903,-5.56768h40.36507z" data-paper-data="{&quot;index&quot;:null}" fill-opacity="0.98947" fill="#313131" stroke-miterlimit="3.7"/><path d="M42.61737,256.12013v11.25648h-4.72041v-5.68881z" data-paper-data="{&quot;index&quot;:null}" fill-opacity="0.98947" fill="#313131" stroke-miterlimit="3.7"/><path d="M37.89696,298.17438v-5.09927h4.72041v10.66809z" data-paper-data="{&quot;index&quot;:null}" fill-opacity="0.98947" fill="#313131" stroke-miterlimit="3.7"/><path d="M417.79784,99.14729v-45.04505h11.38639v45.04505z" fill="#313131" stroke-miterlimit="10"/></g></g></svg>