<svg version="1.1" xmlns="http://www.w3.org/2000/svg" xmlns:xlink="http://www.w3.org/1999/xlink" width="519.51953" height="393.39339" viewBox="0,0,519.51953,393.39339"><g transform="translate(7.84159,24.20421)"><g data-paper-data="{&quot;isPaintingLayer&quot;:true}" fill-rule="nonzero" stroke-linecap="butt" stroke-linejoin="miter" stroke-dasharray="" stroke-dashoffset="0" style="mix-blend-mode: normal"><path d="M437.20604,92.287v249.87929h-31.17228v-249.87929z" fill-opacity="0.98947" fill="#313131" stroke="none" stroke-width="0.56813" stroke-miterlimit="10"/><path d="M437.20604,17.44423v49.10263h-31.17228v-49.10263z" fill-opacity="0.98947" fill="#313131" stroke="none" stroke-width="0.56813" stroke-miterlimit="10"/><path d="M43.95519,43.18423v-25.7402h393.25108v25.7402z" fill-opacity="0.98947" fill="#313131" stroke="none" stroke-width="0.56813" stroke-miterlimit="10"/><path d="M43.95519,342.55597v-25.7402h393.25108v25.7402z" fill-opacity="0.98947" fill="#313131" stroke="none" stroke-width="0.56813" stroke-miterlimit="10"/><g fill-opacity="0.98947" fill="#313131" stroke="none" stroke-width="0.32815" stroke-miterlimit="10"><path d="M98.25937,118.02717v-25.7402h68.1923v25.7402z"/><path d="M206.48459,118.02717v-25.7402h68.19229v25.7402z"/><path d="M314.7098,118.02717v-25.7402h68.1923v25.7402z"/></g><g fill-opacity="0.98947" fill="#313131" stroke="none" stroke-width="0.32815" stroke-miterlimit="10"><path d="M98.25937,192.87012v-25.7402h68.1923v25.7402z"/><path d="M206.48459,192.87012v-25.7402h68.19229v25.7402z"/><path d="M314.7098,192.87012v-25.7402h68.1923v25.7402z"/></g><g fill-opacity="0.98947" fill="#313131" stroke="none" stroke-width="0.32815" stroke-miterlimit="10"><path d="M98.25937,267.71306v-25.7402h68.1923v25.7402z"/><path d="M206.48459,267.71306v-25.7402h68.19229v25.7402z"/><path d="M314.7098,267.71306v-25.7402h68.1923v25.7402z"/></g><path d="M472.73438,61.43932h-30.82353l-4.70482,-5.57785h40.2318z" fill-opacity="0.98947" fill="#313131" stroke="none" stroke-width="0.09102" stroke-miterlimit="3.7"/><path d="M472.73438,98.88753v-36.54548l4.70343,-5.57785v47.70002z" fill-opacity="0.98947" fill="#313131" stroke="none" stroke-width="0.09102" stroke-miterlimit="3.7"/><path d="M441.91085,97.98503h30.82353l4.70346,5.5767h-40.2318z" fill-opacity="0.98947" fill="#313131" stroke="none" stroke-width="0.09102" stroke-miterlimit="3.7"/><path d="M437.20604,103.56173v-11.27473h4.70482v5.69803z" fill-opacity="0.98947" fill="#313131" stroke="none" stroke-width="0.09102" stroke-miterlimit="3.7"/><path d="M441.91085,61.43932v5.10753h-4.70482v-10.68538z" fill-opacity="0.98947" fill="#313131" stroke="none" stroke-width="0.09102" stroke-miterlimit="3.7"/><path d="M40.09927,267.51826v-249.87929h31.41116v249.87929z" data-paper-data="{&quot;index&quot;:null}" fill-opacity="0.98947" fill="#313131" stroke="none" stroke-width="0.56813" stroke-miterlimit="10"/><path d="M40.09927,342.36103v-49.10263h31.41116v49.10263z" data-paper-data="{&quot;index&quot;:null}" fill-opacity="0.98947" fill="#313131" stroke="none" stroke-width="0.56813" stroke-miterlimit="10"/><path d="M4.29866,298.36593h31.05973l4.74087,5.57785h-40.5401z" data-paper-data="{&quot;index&quot;:null}" fill-opacity="0.98947" fill="#313131" stroke="none" stroke-width="0.09102" stroke-miterlimit="3.7"/><path d="M4.29866,260.91773v36.54548l-4.73947,5.57785v-47.70002z" data-paper-data="{&quot;index&quot;:null}" fill-opacity="0.98947" fill="#313131" stroke="none" stroke-width="0.09102" stroke-miterlimit="3.7"/><path d="M35.35839,261.82023h-31.05973l-4.7395,-5.5767h40.5401z" data-paper-data="{&quot;index&quot;:null}" fill-opacity="0.98947" fill="#313131" stroke="none" stroke-width="0.09102" stroke-miterlimit="3.7"/><path d="M40.09927,256.24352v11.27473h-4.74087v-5.69803z" data-paper-data="{&quot;index&quot;:null}" fill-opacity="0.98947" fill="#313131" stroke="none" stroke-width="0.09102" stroke-miterlimit="3.7"/><path d="M35.35839,298.36593v-5.10753h4.74087v10.68538z" data-paper-data="{&quot;index&quot;:null}" fill-opacity="0.98947" fill="#313131" stroke="none" stroke-width="0.09102" stroke-miterlimit="3.7"/><path d="M-1.83558,256.57658v-261.26126h45.04505v261.26126z" fill="#b171ff" stroke="none" stroke-width="0" stroke-miterlimit="10"/><path d="M-4.83858,19.33933v-43.54354h513.51351v43.54354z" fill="#b171ff" stroke="none" stroke-width="0" stroke-miterlimit="10"/><path d="M-7.84159,369.18919v-28.52853h498.4985v28.52853z" fill="#b171ff" stroke="none" stroke-width="0" stroke-miterlimit="10"/><path d="M-0.33408,366.18619v-63.06306h42.04204v63.06306z" fill="#b171ff" stroke="none" stroke-width="0" stroke-miterlimit="10"/><path d="M50.93595,302.85597v-45.04505h11.38639v45.04505z" fill="#313131" stroke="#000000" stroke-width="0" stroke-miterlimit="10"/><path d="M440.20905,92.287v249.87929h-31.17228v-249.87929z" fill-opacity="0.98947" fill="#313131" stroke="none" stroke-width="0.56813" stroke-miterlimit="10"/><path d="M440.20905,17.44423v49.10263h-31.17228v-49.10263z" fill-opacity="0.98947" fill="#313131" stroke="none" stroke-width="0.56813" stroke-miterlimit="10"/><path d="M46.9582,43.18423v-25.7402h393.25108v25.7402z" fill-opacity="0.98947" fill="#313131" stroke="none" stroke-width="0.56813" stroke-miterlimit="10"/><path d="M46.9582,342.55597v-25.7402h393.25108v25.7402z" fill-opacity="0.98947" fill="#313131" stroke="none" stroke-width="0.56813" stroke-miterlimit="10"/><g fill-opacity="0.98947" fill="#313131" stroke="none" stroke-width="0.32815" stroke-miterlimit="10"><path d="M101.26238,118.02717v-25.7402h68.1923v25.7402z"/><path d="M209.4876,118.02717v-25.7402h68.19229v25.7402z"/><path d="M317.71281,118.02717v-25.7402h68.1923v25.7402z"/></g><g fill-opacity="0.98947" fill="#313131" stroke="none" stroke-width="0.32815" stroke-miterlimit="10"><path d="M101.26238,192.87012v-25.7402h68.1923v25.7402z"/><path d="M209.4876,192.87012v-25.7402h68.19229v25.7402z"/><path d="M317.71281,192.87012v-25.7402h68.1923v25.7402z"/></g><g fill-opacity="0.98947" fill="#313131" stroke="none" stroke-width="0.32815" stroke-miterlimit="10"><path d="M101.26238,267.71306v-25.7402h68.1923v25.7402z"/><path d="M209.4876,267.71306v-25.7402h68.19229v25.7402z"/><path d="M317.71281,267.71306v-25.7402h68.1923v25.7402z"/></g><path d="M475.73739,61.43932h-30.82353l-4.70482,-5.57785h40.2318z" fill-opacity="0.98947" fill="#313131" stroke="none" stroke-width="0.09102" stroke-miterlimit="3.7"/><path d="M475.73739,98.88753v-36.54548l4.70343,-5.57785v47.70002z" fill-opacity="0.98947" fill="#313131" stroke="none" stroke-width="0.09102" stroke-miterlimit="3.7"/><path d="M444.91386,97.98503h30.82353l4.70346,5.5767h-40.2318z" fill-opacity="0.98947" fill="#313131" stroke="none" stroke-width="0.09102" stroke-miterlimit="3.7"/><path d="M440.20905,103.56173v-11.27473h4.70482v5.69803z" fill-opacity="0.98947" fill="#313131" stroke="none" stroke-width="0.09102" stroke-miterlimit="3.7"/><path d="M444.91386,61.43932v5.10753h-4.70482v-10.68538z" fill-opacity="0.98947" fill="#313131" stroke="none" stroke-width="0.09102" stroke-miterlimit="3.7"/><path d="M43.10228,267.51826v-249.87929h31.41116v249.87929z" data-paper-data="{&quot;index&quot;:null}" fill-opacity="0.98947" fill="#313131" stroke="none" stroke-width="0.56813" stroke-miterlimit="10"/><path d="M43.10228,342.36103v-49.10263h31.41116v49.10263z" data-paper-data="{&quot;index&quot;:null}" fill-opacity="0.98947" fill="#313131" stroke="none" stroke-width="0.56813" stroke-miterlimit="10"/><path d="M7.30167,298.36593h31.05973l4.74087,5.57785h-40.5401z" data-paper-data="{&quot;index&quot;:null}" fill-opacity="0.98947" fill="#313131" stroke="none" stroke-width="0.09102" stroke-miterlimit="3.7"/><path d="M7.30167,260.91773v36.54548l-4.73947,5.57785v-47.70002z" data-paper-data="{&quot;index&quot;:null}" fill-opacity="0.98947" fill="#313131" stroke="none" stroke-width="0.09102" stroke-miterlimit="3.7"/><path d="M38.3614,261.82023h-31.05973l-4.7395,-5.5767h40.5401z" data-paper-data="{&quot;index&quot;:null}" fill-opacity="0.98947" fill="#313131" stroke="none" stroke-width="0.09102" stroke-miterlimit="3.7"/><path d="M43.10228,256.24352v11.27473h-4.74087v-5.69803z" data-paper-data="{&quot;index&quot;:null}" fill-opacity="0.98947" fill="#313131" stroke="none" stroke-width="0.09102" stroke-miterlimit="3.7"/><path d="M38.3614,298.36593v-5.10753h4.74087v10.68538z" data-paper-data="{&quot;index&quot;:null}" fill-opacity="0.98947" fill="#313131" stroke="none" stroke-width="0.09102" stroke-miterlimit="3.7"/><path d="M1.16743,256.57658v-261.26126h45.04505v261.26126z" fill="#b171ff" stroke="none" stroke-width="0" stroke-miterlimit="10"/><path d="M-1.83557,19.33933v-43.54354h513.51351v43.54354z" fill="#b171ff" stroke="none" stroke-width="0" stroke-miterlimit="10"/><path d="M-4.83858,369.18919v-28.52853h498.4985v28.52853z" fill="#b171ff" stroke="none" stroke-width="0" stroke-miterlimit="10"/><path d="M2.66893,366.18619v-63.06306h42.04204v63.06306z" fill="#b171ff" stroke="none" stroke-width="0" stroke-miterlimit="10"/><path d="M53.93896,302.85597v-45.04505h11.38639v45.04505z" fill="#313131" stroke="#000000" stroke-width="0" stroke-miterlimit="10"/></g></g></svg>