<svg version="1.1" xmlns="http://www.w3.org/2000/svg" xmlns:xlink="http://www.w3.org/1999/xlink" width="516.51653" height="393.3934" viewBox="0,0,516.51653,393.3934"><g transform="translate(6.34007,24.20421)"><g data-paper-data="{&quot;isPaintingLayer&quot;:true}" fill-rule="nonzero" stroke-linecap="butt" stroke-linejoin="miter" stroke-dasharray="" stroke-dashoffset="0" style="mix-blend-mode: normal"><path d="M437.58103,92.42897v249.47489h-31.12183v-249.47489z" fill-opacity="0.98947" fill="#313131" stroke="none" stroke-width="0.56813" stroke-miterlimit="10"/><path d="M437.58103,17.70731v49.02316h-31.12183v-49.02316z" fill-opacity="0.98947" fill="#313131" stroke="none" stroke-width="0.56813" stroke-miterlimit="10"/><path d="M44.96662,43.40567v-25.69854h392.61464v25.69854z" fill-opacity="0.98947" fill="#313131" stroke="none" stroke-width="0.56813" stroke-miterlimit="10"/><path d="M44.96662,342.2929v-25.69854h392.61464v25.69854z" fill-opacity="0.98947" fill="#313131" stroke="none" stroke-width="0.56813" stroke-miterlimit="10"/><path d="M473.05188,61.63119h-30.77364l-4.69721,-5.56882h40.16669z" fill-opacity="0.98947" fill="#313131" stroke="none" stroke-width="0.09102" stroke-miterlimit="3.7"/><path d="M473.05188,99.01882v-36.48634l4.69582,-5.56882v47.62282z" fill-opacity="0.98947" fill="#313131" stroke="none" stroke-width="0.09102" stroke-miterlimit="3.7"/><path d="M442.27823,98.11778h30.77364l4.69584,5.56768h-40.16669z" fill-opacity="0.98947" fill="#313131" stroke="none" stroke-width="0.09102" stroke-miterlimit="3.7"/><path d="M437.58103,103.68546v-11.25648h4.69721v5.68881z" fill-opacity="0.98947" fill="#313131" stroke="none" stroke-width="0.09102" stroke-miterlimit="3.7"/><path d="M442.27823,61.63119v5.09927h-4.69721v-10.66809z" fill-opacity="0.98947" fill="#313131" stroke="none" stroke-width="0.09102" stroke-miterlimit="3.7"/><path d="M111.98553,276.81163v-179.54407h11.22961v179.54407z" fill-opacity="0.98947" fill="#313131" stroke="none" stroke-width="0" stroke-miterlimit="10"/><path d="M112.66578,109.66023v-12.39744h56.23087v12.39744z" fill-opacity="0.98947" fill="#313131" stroke="none" stroke-width="0" stroke-miterlimit="10"/><path d="M303.92801,209.28703v-115.9023h11.22961v115.9023z" fill-opacity="0.98947" fill="#313131" stroke="none" stroke-width="0" stroke-miterlimit="10"/><path d="M348.91702,209.25399v-115.12165h12.59294v115.12165z" fill-opacity="0.98947" fill="#313131" stroke="none" stroke-width="0" stroke-miterlimit="10"/><path d="M256.08047,271.25892v-181.55981h11.22961v181.55981z" fill-opacity="0.98947" fill="#313131" stroke="none" stroke-width="0" stroke-miterlimit="10"/><path d="M256.61726,271.21103v-11.82081h104.87774v11.82081z" fill-opacity="0.98947" fill="#313131" stroke="none" stroke-width="0" stroke-miterlimit="10"/><path d="M200.47274,326.62751v-181.55981h11.22961v181.55981z" fill-opacity="0.98947" fill="#313131" stroke="none" stroke-width="0" stroke-miterlimit="10"/><path d="M160.87282,155.65039v-12.39743h50.99755v12.39743z" fill-opacity="0.98947" fill="#313131" stroke="none" stroke-width="0" stroke-miterlimit="10"/><path d="M156.56023,276.89784v-133.55031h11.91452v133.55031z" fill-opacity="0.98947" fill="#313131" stroke="none" stroke-width="0" stroke-miterlimit="10"/><path d="M112.2135,276.7797v-12.39744h56.23087v12.39744z" fill-opacity="0.98947" fill="#313131" stroke="none" stroke-width="0" stroke-miterlimit="10"/><path d="M303.90198,104.19046v-12.39744h57.653v12.39744z" fill-opacity="0.98947" fill="#313131" stroke="none" stroke-width="0" stroke-miterlimit="10"/><path d="M42.61739,267.37663v-249.47489h31.27553v249.47489z" data-paper-data="{&quot;index&quot;:null}" fill-opacity="0.98947" fill="#313131" stroke="none" stroke-width="0.56813" stroke-miterlimit="10"/><path d="M42.61739,342.09828v-49.02316h31.27553v49.02316z" data-paper-data="{&quot;index&quot;:null}" fill-opacity="0.98947" fill="#313131" stroke="none" stroke-width="0.56813" stroke-miterlimit="10"/><path d="M6.97135,298.17438h30.92563l4.72041,5.56882h-40.36507z" data-paper-data="{&quot;index&quot;:null}" fill-opacity="0.98947" fill="#313131" stroke="none" stroke-width="0.09102" stroke-miterlimit="3.7"/><path d="M6.97135,260.78677v36.48634l-4.71901,5.56882v-47.62282z" data-paper-data="{&quot;index&quot;:null}" fill-opacity="0.98947" fill="#313131" stroke="none" stroke-width="0.09102" stroke-miterlimit="3.7"/><path d="M37.89698,261.68782h-30.92563l-4.71903,-5.56768h40.36507z" data-paper-data="{&quot;index&quot;:null}" fill-opacity="0.98947" fill="#313131" stroke="none" stroke-width="0.09102" stroke-miterlimit="3.7"/><path d="M42.61739,256.12014v11.25648h-4.72041v-5.68881z" data-paper-data="{&quot;index&quot;:null}" fill-opacity="0.98947" fill="#313131" stroke="none" stroke-width="0.09102" stroke-miterlimit="3.7"/><path d="M37.89698,298.17438v-5.09927h4.72041v10.66809z" data-paper-data="{&quot;index&quot;:null}" fill-opacity="0.98947" fill="#313131" stroke="none" stroke-width="0.09102" stroke-miterlimit="3.7"/><path d="M-0.33405,256.57658v-261.26126h45.04505v261.26126z" fill="#b171ff" stroke="none" stroke-width="0" stroke-miterlimit="10"/><path d="M-3.33705,19.33933v-43.54354h513.51351v43.54354z" fill="#b171ff" stroke="none" stroke-width="0" stroke-miterlimit="10"/><path d="M-6.34007,369.1892v-28.52853h498.4985v28.52853z" fill="#b171ff" stroke="none" stroke-width="0" stroke-miterlimit="10"/><path d="M1.16744,366.1862v-63.06306h42.04204v63.06306z" fill="#b171ff" stroke="none" stroke-width="0" stroke-miterlimit="10"/><path d="M52.43746,302.85597v-45.04505h11.38639v45.04505z" fill="#313131" stroke="#000000" stroke-width="0" stroke-miterlimit="10"/></g></g></svg>