<svg version="1.1" xmlns="http://www.w3.org/2000/svg" xmlns:xlink="http://www.w3.org/1999/xlink" width="519.51953" height="393.39343" viewBox="0,0,519.51953,393.39343"><g transform="translate(9.34307,24.20421)"><g data-paper-data="{&quot;isPaintingLayer&quot;:true}" fill-rule="nonzero" stroke-linecap="butt" stroke-linejoin="miter" stroke-dasharray="" stroke-dashoffset="0" style="mix-blend-mode: normal"><path d="M434.82111,93.0361v247.74543h-30.90608v-247.74542z" fill-opacity="0.98947" fill="#313131" stroke="none" stroke-width="0.56813" stroke-miterlimit="10"/><path d="M434.82111,18.83241v48.68331h-30.90608v-48.68331z" fill-opacity="0.98947" fill="#313131" stroke="none" stroke-width="0.56813" stroke-miterlimit="10"/><path d="M44.92847,44.35263v-25.52039h389.89288v25.52039z" fill-opacity="0.98947" fill="#313131" stroke="none" stroke-width="0.56813" stroke-miterlimit="10"/><path d="M44.92847,341.16787v-25.52038h389.89288v25.52038z" fill-opacity="0.98947" fill="#313131" stroke="none" stroke-width="0.56813" stroke-miterlimit="10"/><path d="M470.04607,62.45183h-30.5603l-4.66464,-5.53021h39.88824z" fill-opacity="0.98947" fill="#313131" stroke="none" stroke-width="0.09102" stroke-miterlimit="3.7"/><path d="M470.04607,99.58026v-36.23339l4.66327,-5.53021v47.29268z" fill-opacity="0.98947" fill="#313131" stroke="none" stroke-width="0.09102" stroke-miterlimit="3.7"/><path d="M439.48576,98.68546h30.5603l4.6633,5.52908h-39.88824z" fill-opacity="0.98947" fill="#313131" stroke="none" stroke-width="0.09102" stroke-miterlimit="3.7"/><path d="M434.82111,104.21452v-11.17844h4.66464v5.64937z" fill-opacity="0.98947" fill="#313131" stroke="none" stroke-width="0.09102" stroke-miterlimit="3.7"/><path d="M439.48576,62.45183v5.06392h-4.66464v-10.59413z" fill-opacity="0.98947" fill="#313131" stroke="none" stroke-width="0.09102" stroke-miterlimit="3.7"/><path d="M329.20605,142.87292v96.16364h-13.48125v-96.16364z" fill-opacity="0.98947" fill="#313131" stroke="none" stroke-width="0.56813" stroke-miterlimit="10"/><path d="M329.20605,114.07042v18.89668h-13.48125v-18.89668z" fill-opacity="0.98947" fill="#313131" stroke="none" stroke-width="0.56813" stroke-miterlimit="10"/><path d="M159.13461,123.97619v-9.90586h170.07154v9.90586z" fill-opacity="0.98947" fill="#313131" stroke="none" stroke-width="0.56813" stroke-miterlimit="10"/><path d="M159.13461,114.07036h13.48128v124.96636h-13.48128z" fill-opacity="0.98947" fill="#313131" stroke="none" stroke-width="0.56813" stroke-miterlimit="10"/><path d="M159.13461,114.07036h13.48128v124.96636h-13.48128z" fill-opacity="0.98947" fill="#313131" stroke="none" stroke-width="0.56813" stroke-miterlimit="10"/><path d="M159.13461,239.18656v-9.90587h170.07154v9.90587z" fill-opacity="0.98947" fill="#313131" stroke="none" stroke-width="0.56813" stroke-miterlimit="10"/><path d="M329.22238,130.42128v18.89667h-13.48126v-18.89667z" fill-opacity="0.98947" fill="#313131" stroke="none" stroke-width="0.56813" stroke-miterlimit="10"/><path d="M168.03306,230.0698v-109.9573h149.92887v109.9573z" fill-opacity="0.98947" fill="#313131" stroke="none" stroke-width="0" stroke-miterlimit="10"/><path d="M42.12295,266.77092v-247.74542h33.19181v247.74543z" data-paper-data="{&quot;index&quot;:null}" fill-opacity="0.98947" fill="#313131" stroke="none" stroke-width="0.56813" stroke-miterlimit="10"/><path d="M42.12295,340.97459v-48.68331h33.19181v48.68331z" data-paper-data="{&quot;index&quot;:null}" fill-opacity="0.98947" fill="#313131" stroke="none" stroke-width="0.56813" stroke-miterlimit="10"/><path d="M4.29286,297.35517h32.82047l5.00963,5.53021h-42.83826z" data-paper-data="{&quot;index&quot;:null}" fill-opacity="0.98947" fill="#313131" stroke="none" stroke-width="0.09102" stroke-miterlimit="3.7"/><path d="M4.29286,260.22677v36.23339l-5.00814,5.53021v-47.29267z" data-paper-data="{&quot;index&quot;:null}" fill-opacity="0.98947" fill="#313131" stroke="none" stroke-width="0.09102" stroke-miterlimit="3.7"/><path d="M37.11332,261.12156h-32.82047l-5.00818,-5.52908h42.83826z" data-paper-data="{&quot;index&quot;:null}" fill-opacity="0.98947" fill="#313131" stroke="none" stroke-width="0.09102" stroke-miterlimit="3.7"/><path d="M42.12295,255.5925v11.17846h-5.00963v-5.64937z" data-paper-data="{&quot;index&quot;:null}" fill-opacity="0.98947" fill="#313131" stroke="none" stroke-width="0.09102" stroke-miterlimit="3.7"/><path d="M37.11332,297.35517v-5.06392h5.00963v10.59413z" data-paper-data="{&quot;index&quot;:null}" fill-opacity="0.98947" fill="#313131" stroke="none" stroke-width="0.09102" stroke-miterlimit="3.7"/><path d="M-3.33705,256.5766v-261.26126h45.04505v261.26126z" fill="#b171ff" stroke="none" stroke-width="0" stroke-miterlimit="10"/><path d="M-6.34005,19.33933v-43.54354h513.51351v43.54354z" fill="#b171ff" stroke="none" stroke-width="0" stroke-miterlimit="10"/><path d="M-9.34307,369.18923v-28.52853h498.4985v28.52853z" fill="#b171ff" stroke="none" stroke-width="0" stroke-miterlimit="10"/><path d="M-1.83556,366.18623v-63.06306h42.04204v63.06306z" fill="#b171ff" stroke="none" stroke-width="0" stroke-miterlimit="10"/><path d="M49.43446,302.85598v-45.04505h11.38639v45.04505z" fill="#313131" stroke="#000000" stroke-width="0" stroke-miterlimit="10"/><path d="M437.82412,93.0361v247.74543h-30.90608v-247.74542z" fill-opacity="0.98947" fill="#313131" stroke="none" stroke-width="0.56813" stroke-miterlimit="10"/><path d="M437.82412,18.83242v48.68331h-30.90608v-48.68331z" fill-opacity="0.98947" fill="#313131" stroke="none" stroke-width="0.56813" stroke-miterlimit="10"/><path d="M47.93148,44.35264v-25.52039h389.89288v25.52039z" fill-opacity="0.98947" fill="#313131" stroke="none" stroke-width="0.56813" stroke-miterlimit="10"/><path d="M47.93148,341.16787v-25.52038h389.89288v25.52038z" fill-opacity="0.98947" fill="#313131" stroke="none" stroke-width="0.56813" stroke-miterlimit="10"/><path d="M473.04908,62.45183h-30.5603l-4.66464,-5.53021h39.88824z" fill-opacity="0.98947" fill="#313131" stroke="none" stroke-width="0.09102" stroke-miterlimit="3.7"/><path d="M473.04908,99.58026v-36.23339l4.66327,-5.53021v47.29268z" fill-opacity="0.98947" fill="#313131" stroke="none" stroke-width="0.09102" stroke-miterlimit="3.7"/><path d="M442.48877,98.68546h30.5603l4.6633,5.52908h-39.88824z" fill-opacity="0.98947" fill="#313131" stroke="none" stroke-width="0.09102" stroke-miterlimit="3.7"/><path d="M437.82412,104.21453v-11.17844h4.66464v5.64937z" fill-opacity="0.98947" fill="#313131" stroke="none" stroke-width="0.09102" stroke-miterlimit="3.7"/><path d="M442.48877,62.45183v5.06392h-4.66464v-10.59413z" fill-opacity="0.98947" fill="#313131" stroke="none" stroke-width="0.09102" stroke-miterlimit="3.7"/><path d="M332.20905,142.87293v96.16364h-13.48125v-96.16364z" fill-opacity="0.98947" fill="#313131" stroke="none" stroke-width="0.56813" stroke-miterlimit="10"/><path d="M332.20905,114.07042v18.89668h-13.48125v-18.89668z" fill-opacity="0.98947" fill="#313131" stroke="none" stroke-width="0.56813" stroke-miterlimit="10"/><path d="M162.13762,123.9762v-9.90586h170.07154v9.90586z" fill-opacity="0.98947" fill="#313131" stroke="none" stroke-width="0.56813" stroke-miterlimit="10"/><path d="M162.13762,114.07036h13.48128v124.96636h-13.48128z" fill-opacity="0.98947" fill="#313131" stroke="none" stroke-width="0.56813" stroke-miterlimit="10"/><path d="M162.13762,114.07036h13.48128v124.96636h-13.48128z" fill-opacity="0.98947" fill="#313131" stroke="none" stroke-width="0.56813" stroke-miterlimit="10"/><path d="M162.13762,239.18657v-9.90587h170.07154v9.90587z" fill-opacity="0.98947" fill="#313131" stroke="none" stroke-width="0.56813" stroke-miterlimit="10"/><path d="M332.22539,130.42129v18.89667h-13.48126v-18.89667z" fill-opacity="0.98947" fill="#313131" stroke="none" stroke-width="0.56813" stroke-miterlimit="10"/><path d="M171.03607,230.06981v-109.9573h149.92887v109.9573z" fill-opacity="0.98947" fill="#313131" stroke="none" stroke-width="0" stroke-miterlimit="10"/><path d="M45.12596,266.77092v-247.74542h33.19181v247.74543z" data-paper-data="{&quot;index&quot;:null}" fill-opacity="0.98947" fill="#313131" stroke="none" stroke-width="0.56813" stroke-miterlimit="10"/><path d="M45.12596,340.97459v-48.68331h33.19181v48.68331z" data-paper-data="{&quot;index&quot;:null}" fill-opacity="0.98947" fill="#313131" stroke="none" stroke-width="0.56813" stroke-miterlimit="10"/><path d="M7.29587,297.35517h32.82047l5.00963,5.53021h-42.83826z" data-paper-data="{&quot;index&quot;:null}" fill-opacity="0.98947" fill="#313131" stroke="none" stroke-width="0.09102" stroke-miterlimit="3.7"/><path d="M7.29587,260.22677v36.23339l-5.00814,5.53021v-47.29267z" data-paper-data="{&quot;index&quot;:null}" fill-opacity="0.98947" fill="#313131" stroke="none" stroke-width="0.09102" stroke-miterlimit="3.7"/><path d="M40.11633,261.12156h-32.82047l-5.00818,-5.52908h42.83826z" data-paper-data="{&quot;index&quot;:null}" fill-opacity="0.98947" fill="#313131" stroke="none" stroke-width="0.09102" stroke-miterlimit="3.7"/><path d="M45.12596,255.5925v11.17846h-5.00963v-5.64937z" data-paper-data="{&quot;index&quot;:null}" fill-opacity="0.98947" fill="#313131" stroke="none" stroke-width="0.09102" stroke-miterlimit="3.7"/><path d="M40.11633,297.35517v-5.06392h5.00963v10.59413z" data-paper-data="{&quot;index&quot;:null}" fill-opacity="0.98947" fill="#313131" stroke="none" stroke-width="0.09102" stroke-miterlimit="3.7"/><path d="M-0.33404,256.5766v-261.26126h45.04505v261.26126z" fill="#b171ff" stroke="none" stroke-width="0" stroke-miterlimit="10"/><path d="M-3.33704,19.33933v-43.54354h513.51351v43.54354z" fill="#b171ff" stroke="none" stroke-width="0" stroke-miterlimit="10"/><path d="M-6.34006,369.18923v-28.52853h498.4985v28.52853z" fill="#b171ff" stroke="none" stroke-width="0" stroke-miterlimit="10"/><path d="M1.16745,366.18623v-63.06306h42.04204v63.06306z" fill="#b171ff" stroke="none" stroke-width="0" stroke-miterlimit="10"/><path d="M52.43747,302.85598v-45.04505h11.38639v45.04505z" fill="#313131" stroke="#000000" stroke-width="0" stroke-miterlimit="10"/></g></g></svg>