<svg version="1.1" xmlns="http://www.w3.org/2000/svg" xmlns:xlink="http://www.w3.org/1999/xlink" width="519.51953" height="393.39341" viewBox="0,0,519.51953,393.39341"><g transform="translate(7.84158,24.20421)"><g data-paper-data="{&quot;isPaintingLayer&quot;:true}" fill-rule="nonzero" stroke-linecap="butt" stroke-linejoin="miter" stroke-dasharray="" stroke-dashoffset="0" style="mix-blend-mode: normal"><path d="M435.81365,93.12885v247.4811h-30.87311v-247.48109z" fill-opacity="0.98947" fill="#313131" stroke="none" stroke-width="0.56813" stroke-miterlimit="10"/><path d="M435.81365,19.00435v48.63137h-30.87311v-48.63137z" fill-opacity="0.98947" fill="#313131" stroke="none" stroke-width="0.56813" stroke-miterlimit="10"/><path d="M46.33699,44.49733v-25.49316h389.47688v25.49316z" fill-opacity="0.98947" fill="#313131" stroke="none" stroke-width="0.56813" stroke-miterlimit="10"/><path d="M46.33699,340.99588v-25.49316h389.47688v25.49316z" fill-opacity="0.98947" fill="#313131" stroke="none" stroke-width="0.56813" stroke-miterlimit="10"/><path d="M471.001,62.5772h-30.52769l-4.65966,-5.52431h39.84568z" fill-opacity="0.98947" fill="#313131" stroke="none" stroke-width="0.09102" stroke-miterlimit="3.7"/><path d="M471.001,99.66603v-36.19474l4.65828,-5.52431v47.24222z" fill-opacity="0.98947" fill="#313131" stroke="none" stroke-width="0.09102" stroke-miterlimit="3.7"/><path d="M440.47331,98.77219h30.52771l4.65832,5.52317h-39.84568z" fill-opacity="0.98947" fill="#313131" stroke="none" stroke-width="0.09102" stroke-miterlimit="3.7"/><path d="M435.81365,104.29536v-11.16652h4.65966v5.64334z" fill-opacity="0.98947" fill="#313131" stroke="none" stroke-width="0.09102" stroke-miterlimit="3.7"/><path d="M440.47331,62.5772v5.05852h-4.65966v-10.58283z" fill-opacity="0.98947" fill="#313131" stroke="none" stroke-width="0.09102" stroke-miterlimit="3.7"/><path d="M102.36613,323.14619v-218.67423h9.28687v218.67423z" fill-opacity="0.98947" fill="#313131" stroke="none" stroke-width="0" stroke-miterlimit="10"/><path d="M154.59489,255.52738v-218.67423h9.28687v218.67423z" fill-opacity="0.98947" fill="#313131" stroke="none" stroke-width="0" stroke-miterlimit="10"/><path d="M208.51065,323.18931v-218.67423h9.61576v218.67423z" fill-opacity="0.98947" fill="#313131" stroke="none" stroke-width="0" stroke-miterlimit="10"/><path d="M208.72222,323.35666v-218.67423h9.28688v218.67423z" fill-opacity="0.98947" fill="#313131" stroke="none" stroke-width="0" stroke-miterlimit="10"/><path d="M260.95097,255.73785v-218.67423h9.28688v218.67423z" fill-opacity="0.98947" fill="#313131" stroke="none" stroke-width="0" stroke-miterlimit="10"/><path d="M314.86674,323.39975v-218.67423h9.61575v218.67423z" fill-opacity="0.98947" fill="#313131" stroke="none" stroke-width="0" stroke-miterlimit="10"/><path d="M209.64531,323.04909v-218.67423h9.28688v218.67423z" fill-opacity="0.98947" fill="#313131" stroke="none" stroke-width="0" stroke-miterlimit="10"/><path d="M261.87408,255.4303v-218.67423h9.28688v218.67423z" fill-opacity="0.98947" fill="#313131" stroke="none" stroke-width="0" stroke-miterlimit="10"/><path d="M315.78983,323.0922v-218.67423h9.61576v218.67423z" fill-opacity="0.98947" fill="#313131" stroke="none" stroke-width="0" stroke-miterlimit="10"/><path d="M316.00138,323.25955v-218.67423h9.28688v218.67423z" fill-opacity="0.98947" fill="#313131" stroke="none" stroke-width="0" stroke-miterlimit="10"/><path d="M368.23017,255.64074v-218.67423h9.28688v218.67423z" fill-opacity="0.98947" fill="#313131" stroke="none" stroke-width="0" stroke-miterlimit="10"/><path d="M42.78819,266.6783v-247.48109h32.11655v247.48109z" data-paper-data="{&quot;index&quot;:null}" fill-opacity="0.98947" fill="#313131" stroke="none" stroke-width="0.56813" stroke-miterlimit="10"/><path d="M42.78819,340.80281v-48.63138h32.11655v48.63138z" data-paper-data="{&quot;index&quot;:null}" fill-opacity="0.98947" fill="#313131" stroke="none" stroke-width="0.56813" stroke-miterlimit="10"/><path d="M6.18362,297.22995h31.75724l4.84733,5.5243h-41.4505z" data-paper-data="{&quot;index&quot;:null}" fill-opacity="0.98947" fill="#313131" stroke="none" stroke-width="0.09102" stroke-miterlimit="3.7"/><path d="M6.18362,260.14113v36.19474l-4.84591,5.52431v-47.24222z" data-paper-data="{&quot;index&quot;:null}" fill-opacity="0.98947" fill="#313131" stroke="none" stroke-width="0.09102" stroke-miterlimit="3.7"/><path d="M37.94085,261.03497h-31.75724l-4.84594,-5.52317h41.4505z" data-paper-data="{&quot;index&quot;:null}" fill-opacity="0.98947" fill="#313131" stroke="none" stroke-width="0.09102" stroke-miterlimit="3.7"/><path d="M42.78819,255.5118v11.16651h-4.84733v-5.64334z" data-paper-data="{&quot;index&quot;:null}" fill-opacity="0.98947" fill="#313131" stroke="none" stroke-width="0.09102" stroke-miterlimit="3.7"/><path d="M37.94085,297.22995v-5.05852h4.84733v10.58283z" data-paper-data="{&quot;index&quot;:null}" fill-opacity="0.98947" fill="#313131" stroke="none" stroke-width="0.09102" stroke-miterlimit="3.7"/><path d="M-1.83556,256.57658v-261.26126h45.04505v261.26126z" fill="#b171ff" stroke="none" stroke-width="0" stroke-miterlimit="10"/><path d="M-4.83856,19.33933v-43.54354h513.51351v43.54354z" fill="#b171ff" stroke="none" stroke-width="0" stroke-miterlimit="10"/><path d="M-7.84158,369.18921v-28.52853h498.4985v28.52853z" fill="#b171ff" stroke="none" stroke-width="0" stroke-miterlimit="10"/><path d="M-0.33407,366.18621v-63.06306h42.04204v63.06306z" fill="#b171ff" stroke="none" stroke-width="0" stroke-miterlimit="10"/><path d="M50.93595,302.85598v-45.04505h11.38639v45.04505z" fill="#313131" stroke="#000000" stroke-width="0" stroke-miterlimit="10"/><path d="M438.81666,93.12885v247.4811h-30.87311v-247.48109z" fill-opacity="0.98947" fill="#313131" stroke="none" stroke-width="0.56813" stroke-miterlimit="10"/><path d="M438.81666,19.00436v48.63137h-30.87311v-48.63137z" fill-opacity="0.98947" fill="#313131" stroke="none" stroke-width="0.56813" stroke-miterlimit="10"/><path d="M49.34,44.49734v-25.49316h389.47688v25.49316z" fill-opacity="0.98947" fill="#313131" stroke="none" stroke-width="0.56813" stroke-miterlimit="10"/><path d="M49.34,340.99588v-25.49316h389.47688v25.49316z" fill-opacity="0.98947" fill="#313131" stroke="none" stroke-width="0.56813" stroke-miterlimit="10"/><path d="M474.00401,62.57721h-30.52769l-4.65966,-5.52431h39.84568z" fill-opacity="0.98947" fill="#313131" stroke="none" stroke-width="0.09102" stroke-miterlimit="3.7"/><path d="M474.00401,99.66603v-36.19474l4.65828,-5.52431v47.24222z" fill-opacity="0.98947" fill="#313131" stroke="none" stroke-width="0.09102" stroke-miterlimit="3.7"/><path d="M443.47632,98.77219h30.52771l4.65832,5.52317h-39.84568z" fill-opacity="0.98947" fill="#313131" stroke="none" stroke-width="0.09102" stroke-miterlimit="3.7"/><path d="M438.81666,104.29536v-11.16652h4.65966v5.64334z" fill-opacity="0.98947" fill="#313131" stroke="none" stroke-width="0.09102" stroke-miterlimit="3.7"/><path d="M443.47632,62.57721v5.05852h-4.65966v-10.58283z" fill-opacity="0.98947" fill="#313131" stroke="none" stroke-width="0.09102" stroke-miterlimit="3.7"/><path d="M105.36914,323.14619v-218.67423h9.28687v218.67423z" fill-opacity="0.98947" fill="#313131" stroke="none" stroke-width="0" stroke-miterlimit="10"/><path d="M157.5979,255.52739v-218.67423h9.28687v218.67423z" fill-opacity="0.98947" fill="#313131" stroke="none" stroke-width="0" stroke-miterlimit="10"/><path d="M211.51366,323.18932v-218.67423h9.61576v218.67423z" fill-opacity="0.98947" fill="#313131" stroke="none" stroke-width="0" stroke-miterlimit="10"/><path d="M211.72523,323.35666v-218.67423h9.28688v218.67423z" fill-opacity="0.98947" fill="#313131" stroke="none" stroke-width="0" stroke-miterlimit="10"/><path d="M263.95398,255.73785v-218.67423h9.28688v218.67423z" fill-opacity="0.98947" fill="#313131" stroke="none" stroke-width="0" stroke-miterlimit="10"/><path d="M317.86975,323.39976v-218.67423h9.61575v218.67423z" fill-opacity="0.98947" fill="#313131" stroke="none" stroke-width="0" stroke-miterlimit="10"/><path d="M212.64832,323.0491v-218.67423h9.28688v218.67423z" fill-opacity="0.98947" fill="#313131" stroke="none" stroke-width="0" stroke-miterlimit="10"/><path d="M264.87709,255.43031v-218.67423h9.28688v218.67423z" fill-opacity="0.98947" fill="#313131" stroke="none" stroke-width="0" stroke-miterlimit="10"/><path d="M318.79284,323.0922v-218.67423h9.61576v218.67423z" fill-opacity="0.98947" fill="#313131" stroke="none" stroke-width="0" stroke-miterlimit="10"/><path d="M319.00439,323.25955v-218.67423h9.28688v218.67423z" fill-opacity="0.98947" fill="#313131" stroke="none" stroke-width="0" stroke-miterlimit="10"/><path d="M371.23318,255.64075v-218.67423h9.28688v218.67423z" fill-opacity="0.98947" fill="#313131" stroke="none" stroke-width="0" stroke-miterlimit="10"/><path d="M45.7912,266.67831v-247.48109h32.11655v247.48109z" data-paper-data="{&quot;index&quot;:null}" fill-opacity="0.98947" fill="#313131" stroke="none" stroke-width="0.56813" stroke-miterlimit="10"/><path d="M45.7912,340.80281v-48.63138h32.11655v48.63138z" data-paper-data="{&quot;index&quot;:null}" fill-opacity="0.98947" fill="#313131" stroke="none" stroke-width="0.56813" stroke-miterlimit="10"/><path d="M9.18662,297.22996h31.75724l4.84733,5.5243h-41.4505z" data-paper-data="{&quot;index&quot;:null}" fill-opacity="0.98947" fill="#313131" stroke="none" stroke-width="0.09102" stroke-miterlimit="3.7"/><path d="M9.18662,260.14114v36.19474l-4.84591,5.52431v-47.24222z" data-paper-data="{&quot;index&quot;:null}" fill-opacity="0.98947" fill="#313131" stroke="none" stroke-width="0.09102" stroke-miterlimit="3.7"/><path d="M40.94386,261.03497h-31.75724l-4.84594,-5.52317h41.4505z" data-paper-data="{&quot;index&quot;:null}" fill-opacity="0.98947" fill="#313131" stroke="none" stroke-width="0.09102" stroke-miterlimit="3.7"/><path d="M45.7912,255.51181v11.16651h-4.84733v-5.64334z" data-paper-data="{&quot;index&quot;:null}" fill-opacity="0.98947" fill="#313131" stroke="none" stroke-width="0.09102" stroke-miterlimit="3.7"/><path d="M40.94386,297.22996v-5.05852h4.84733v10.58283z" data-paper-data="{&quot;index&quot;:null}" fill-opacity="0.98947" fill="#313131" stroke="none" stroke-width="0.09102" stroke-miterlimit="3.7"/><path d="M1.16745,256.57659v-261.26126h45.04505v261.26126z" fill="#b171ff" stroke="none" stroke-width="0" stroke-miterlimit="10"/><path d="M-1.83555,19.33933v-43.54354h513.51351v43.54354z" fill="#b171ff" stroke="none" stroke-width="0" stroke-miterlimit="10"/><path d="M-4.83857,369.18921v-28.52853h498.4985v28.52853z" fill="#b171ff" stroke="none" stroke-width="0" stroke-miterlimit="10"/><path d="M2.66894,366.18621v-63.06306h42.04204v63.06306z" fill="#b171ff" stroke="none" stroke-width="0" stroke-miterlimit="10"/><path d="M53.93896,302.85598v-45.04505h11.38639v45.04505z" fill="#313131" stroke="#000000" stroke-width="0" stroke-miterlimit="10"/></g></g></svg>