<svg version="1.1" xmlns="http://www.w3.org/2000/svg" xmlns:xlink="http://www.w3.org/1999/xlink" width="579.40738" height="519.10006" viewBox="0,0,579.40738,519.10006"><defs><linearGradient x1="239.91125" y1="0.62338" x2="239.91125" y2="358.62341" gradientUnits="userSpaceOnUse" id="color-1"><stop offset="0" stop-color="#fffec6"/><stop offset="1" stop-color="#ffbd2e"/></linearGradient><radialGradient cx="479.84875" cy="354.1235" r="241" gradientUnits="userSpaceOnUse" id="color-2"><stop offset="0" stop-color="#ff7d00"/><stop offset="1" stop-color="#ffae00"/></radialGradient></defs><g transform="translate(34.68868,5.97644)"><g data-paper-data="{&quot;isPaintingLayer&quot;:true}" fill-rule="nonzero" stroke-linejoin="miter" stroke-miterlimit="10" stroke-dasharray="" stroke-dashoffset="0" style="mix-blend-mode: normal"><g><path d="M-1.58876,358.62341v-358h483v358z" fill="url(#color-1)" stroke="#e2d300" stroke-width="0.5" stroke-linecap="butt"/><path d="M-5.82203,59.66244v-5.27778h109.33333l-19.33333,5.27778z" fill="#e4d300" stroke="#ff7f00" stroke-width="9" stroke-linecap="butt"/><path d="M-2.82206,59.66241v-5.27777h109.33334l-19.33333,5.27777z" fill="#ffae00" stroke="#c6bc00" stroke-width="0" stroke-linecap="butt"/><path d="M211.5874,144.29016l-20.84273,-13.90176l20.84273,-14.09824h190.71107l19.27953,12.87018l-19.27953,15.12982z" fill="#74faf6" stroke="#ff7f00" stroke-width="4" stroke-linecap="butt"/><path d="M211.5874,204.29022l-20.84274,-13.90176l20.84274,-14.09824h190.71107l19.27953,12.87018l-19.27953,15.12982z" fill="#74faf6" stroke="#ff7f00" stroke-width="4" stroke-linecap="butt"/><path d="M210.5874,260.29008l-20.84274,-13.90175l20.84274,-14.09824h190.71107l19.27953,12.87018l-19.27953,15.12982z" fill="#74faf6" stroke="#ff7f00" stroke-width="4" stroke-linecap="butt"/><text transform="translate(47.73211,134.02351) scale(0.5,0.5)" font-size="40" xml:space="preserve" fill="#ff7f00" fill-rule="nonzero" stroke="none" stroke-width="1" stroke-linecap="butt" stroke-linejoin="miter" stroke-miterlimit="10" stroke-dasharray="" stroke-dashoffset="0" font-family="Pixel" font-weight="normal" text-anchor="start" style="mix-blend-mode: normal"><tspan x="0" dy="0">Resolução:</tspan></text><text transform="translate(47.73211,194.02354) scale(0.5,0.5)" font-size="40" xml:space="preserve" fill="#ff7f00" fill-rule="nonzero" stroke="none" stroke-width="1" stroke-linecap="butt" stroke-linejoin="miter" stroke-miterlimit="10" stroke-dasharray="" stroke-dashoffset="0" font-family="Pixel" font-weight="normal" text-anchor="start" style="mix-blend-mode: normal"><tspan x="0" dy="0">Volume:</tspan></text><text transform="translate(47.73211,251.02353) scale(0.5,0.5)" font-size="40" xml:space="preserve" fill="#ff7f00" fill-rule="nonzero" stroke="none" stroke-width="1" stroke-linecap="butt" stroke-linejoin="miter" stroke-miterlimit="10" stroke-dasharray="" stroke-dashoffset="0" font-family="Pixel" font-weight="normal" text-anchor="start" style="mix-blend-mode: normal"><tspan x="0" dy="0">Dificuldade:</tspan></text><text transform="translate(53.5125,38.15636) scale(0.5,0.5)" font-size="40" xml:space="preserve" fill="#ff7f00" fill-rule="nonzero" stroke="none" stroke-width="1" stroke-linecap="butt" stroke-linejoin="miter" stroke-miterlimit="10" stroke-dasharray="" stroke-dashoffset="0" font-family="Pixel" font-weight="normal" text-anchor="start" style="mix-blend-mode: normal"><tspan x="0" dy="0">Opções</tspan></text><path d="M-1.4887,360.02357v-361h482v361z" fill="none" stroke="url(#color-2)" stroke-width="10" stroke-linecap="butt"/><text transform="translate(52.3342,38.30198) scale(0.5,0.5)" font-size="40" xml:space="preserve" fill="#ffb846" fill-rule="nonzero" stroke="none" stroke-width="1" stroke-linecap="butt" stroke-linejoin="miter" stroke-miterlimit="10" stroke-dasharray="" stroke-dashoffset="0" font-family="Pixel" font-weight="normal" text-anchor="start" style="mix-blend-mode: normal"><tspan x="0" dy="0">Opções</tspan></text><text transform="translate(191.7415,100.02771) scale(0.51323,0.51323)" font-size="40" xml:space="preserve" fill="#ffda5a" fill-rule="nonzero" stroke="#ffda5a" stroke-width="5" stroke-linecap="butt" stroke-linejoin="miter" stroke-miterlimit="10" stroke-dasharray="" stroke-dashoffset="0" font-family="Pixel" font-weight="normal" text-anchor="start" style="mix-blend-mode: normal"><tspan x="0" dy="0">Baixa</tspan></text><text transform="translate(192.18538,99.71955) scale(0.50614,0.50614)" font-size="40" xml:space="preserve" fill="#d0ae30" fill-rule="nonzero" stroke="none" stroke-width="1" stroke-linecap="butt" stroke-linejoin="miter" stroke-miterlimit="10" stroke-dasharray="" stroke-dashoffset="0" font-family="Pixel" font-weight="normal" text-anchor="start" style="mix-blend-mode: normal"><tspan x="0" dy="0">Baixa</tspan></text><text transform="translate(279.58717,101.15634) scale(0.51323,0.51323)" font-size="40" xml:space="preserve" fill="#ffda5a" fill-rule="nonzero" stroke="#ffda5a" stroke-width="5" stroke-linecap="butt" stroke-linejoin="miter" stroke-miterlimit="10" stroke-dasharray="" stroke-dashoffset="0" font-family="Pixel" font-weight="normal" text-anchor="start" style="mix-blend-mode: normal"><tspan x="0" dy="0">Média</tspan></text><text transform="translate(280.03107,100.84818) scale(0.50614,0.50614)" font-size="40" xml:space="preserve" fill="#d0ae30" fill-rule="nonzero" stroke="none" stroke-width="1" stroke-linecap="butt" stroke-linejoin="miter" stroke-miterlimit="10" stroke-dasharray="" stroke-dashoffset="0" font-family="Pixel" font-weight="normal" text-anchor="start" style="mix-blend-mode: normal"><tspan x="0" dy="0">Média</tspan></text><text transform="translate(373.11213,100.83914) scale(0.51323,0.51323)" font-size="40" xml:space="preserve" fill="#ffda5a" fill-rule="nonzero" stroke="#ffda5a" stroke-width="5" stroke-linecap="butt" stroke-linejoin="miter" stroke-miterlimit="10" stroke-dasharray="" stroke-dashoffset="0" font-family="Pixel" font-weight="normal" text-anchor="start" style="mix-blend-mode: normal"><tspan x="0" dy="0">Alta</tspan></text><text transform="translate(373.58335,100.60496) scale(0.50614,0.50614)" font-size="40" xml:space="preserve" fill="#d0ae30" fill-rule="nonzero" stroke="none" stroke-width="1" stroke-linecap="butt" stroke-linejoin="miter" stroke-miterlimit="10" stroke-dasharray="" stroke-dashoffset="0" font-family="Pixel" font-weight="normal" text-anchor="start" style="mix-blend-mode: normal"><tspan x="0" dy="0">Alta</tspan></text><text transform="translate(137.85407,87.25832) scale(0.5,0.5)" font-size="40" xml:space="preserve" fill="#ff7f00" fill-rule="nonzero" stroke="none" stroke-width="1" stroke-linecap="butt" stroke-linejoin="miter" stroke-miterlimit="10" stroke-dasharray="" stroke-dashoffset="0" font-family="Pixel" font-weight="normal" text-anchor="start" style="mix-blend-mode: normal"><tspan x="0" dy="0"> </tspan></text><path d="M171.35044,392.38357c0,0 -98.65392,-38.93792 -133.72201,-69.20566c-27.16142,-23.44337 -59.09299,-97.21551 -59.09299,-97.21551" fill="none" stroke="#efd67e" stroke-width="4" stroke-linecap="round"/><path d="M-1.81557,511.12363c0,0 -60.14943,-159.18982 5.90302,-202.60286c36.52071,-24.00328 192.05349,52.81571 227.24183,56.60075" fill="none" stroke="#e5ce7a" stroke-width="4" stroke-linecap="round"/><path d="M247.23892,395.02604c0,0 -235.8571,-7.52976 -188.09379,-7.70704c27.58793,-0.1024 -35.99144,-27.33694 54.3563,-48.83834c66.07239,-15.72424 402.04715,36.80645 409.6064,43.40348c48.19236,42.05791 -201.30121,39.70715 -201.30121,39.70715" fill="none" stroke="#ffdd64" stroke-width="4" stroke-linecap="round"/><path d="M215.62427,295.58426c0,0 51.65791,44.69113 99.42121,44.51384c72.56051,-0.26932 199.96846,-51.0647 217.86427,-35.44687c48.19236,42.05791 -96.85944,125.54148 -96.85944,125.54148" fill="none" stroke="#ffe586" stroke-width="4" stroke-linecap="round"/><path d="M251.22487,376.10219c0,0 70.02112,-94.21937 83.96066,-84.81518c23.07514,15.56744 -31.73977,84.81518 -31.73977,84.81518" fill="none" stroke="#efd67e" stroke-width="4" stroke-linecap="round"/><path d="M162.38934,308.8753c0,0 17.67958,15.28831 17.61916,28.81258c-0.0925,20.70457 -18.3725,42.11408 -22.19918,36.09123c-5.18779,-8.1651 -74.97907,0.57032 -75.8685,4.79215c-0.18685,0.88695 -46.82149,-5.74852 -48.61092,-4.87892c-31.73884,15.42409 3.57451,6.65772 -11.329,4.85202c-41.99657,-5.08827 -54.68958,-116.48779 -54.68958,-116.48779" fill="none" stroke="#ffe586" stroke-width="4" stroke-linecap="round"/></g></g></g></svg>