<svg version="1.1" xmlns="http://www.w3.org/2000/svg" xmlns:xlink="http://www.w3.org/1999/xlink" width="499.16385" height="333.16503" viewBox="0,0,499.16385,333.16503"><g transform="translate(9.73781,-13.41749)"><g data-paper-data="{&quot;isPaintingLayer&quot;:true}" fill-rule="nonzero" stroke="#000000" stroke-width="10" stroke-linecap="butt" stroke-linejoin="miter" stroke-dasharray="" stroke-dashoffset="0" style="mix-blend-mode: normal"><path d="M438.67719,92.81227v248.38289h-30.98561v-248.38289z" fill-opacity="0.98947" fill="#313131" stroke-miterlimit="10"/><path d="M438.67719,18.4177v48.80859h-30.98561v-48.80859z" fill-opacity="0.98947" fill="#313131" stroke-miterlimit="10"/><path d="M47.78131,44.00355v-25.58606h390.8961v25.58606z" fill-opacity="0.98947" fill="#313131" stroke-miterlimit="10"/><path d="M47.78131,341.58252v-25.58606h390.8961v25.58606z" fill-opacity="0.98947" fill="#313131" stroke-miterlimit="10"/><path d="M473.99277,62.14932h-30.63894l-4.67665,-5.54444h39.99088z" fill-opacity="0.98947" fill="#313131" stroke-miterlimit="3.7"/><path d="M473.99277,99.37328v-36.32662l4.67526,-5.54445v47.41437z" fill-opacity="0.98947" fill="#313131" stroke-miterlimit="3.7"/><path d="M443.35383,98.47618h30.63894l4.67529,5.5433h-39.99088z" fill-opacity="0.98947" fill="#313131" stroke-miterlimit="3.7"/><path d="M438.67719,104.01948v-11.20721h4.67665v5.66391z" fill-opacity="0.98947" fill="#313131" stroke-miterlimit="3.7"/><path d="M443.35383,62.14932v5.07695h-4.67665v-10.62139z" fill-opacity="0.98947" fill="#313131" stroke-miterlimit="3.7"/><path d="M113.92508,290.21244v-219.47106h11.18045v219.47106z" fill-opacity="0.98947" fill="#313131" stroke-miterlimit="10"/><path d="M166.33446,182.45416v-12.56883h203.11156v12.56883z" fill-opacity="0.98947" fill="#313131" stroke-miterlimit="10"/><path d="M166.33446,137.01302v-15.46933h203.11157v15.46933z" fill-opacity="0.98947" fill="#313131" stroke-miterlimit="10"/><path d="M166.33446,88.67137v-15.46933h203.11157v15.46933z" fill-opacity="0.98947" fill="#313131" stroke-miterlimit="10"/><path d="M166.33446,284.93845v-13.2362h203.11156v13.2362z" fill-opacity="0.98947" fill="#313131" stroke-miterlimit="10"/><path d="M166.33446,237.08449v-16.29071h203.11157v16.29071z" fill-opacity="0.98947" fill="#313131" stroke-miterlimit="10"/><path d="M166.33446,186.17604v-16.29071h203.11157v16.29071z" fill-opacity="0.98947" fill="#313131" stroke-miterlimit="10"/><path d="M166.35172,186.34266v-63.81097h12.92281v63.81097z" fill-opacity="0.98947" fill="#313131" stroke-miterlimit="10"/><path d="M356.52812,234.94048v-63.81097h12.92281v63.81097z" fill-opacity="0.98947" fill="#313131" stroke-miterlimit="10"/><path d="M43.11148,266.99417v-248.3829h32.37149v248.3829z" data-paper-data="{&quot;index&quot;:null}" fill-opacity="0.98947" fill="#313131" stroke-miterlimit="10"/><path d="M43.11148,341.38875v-48.80858h32.37149v48.80858z" data-paper-data="{&quot;index&quot;:null}" fill-opacity="0.98947" fill="#313131" stroke-miterlimit="10"/><path d="M6.21634,297.65713h32.00932l4.88583,5.54444h-41.77955z" data-paper-data="{&quot;index&quot;:null}" fill-opacity="0.98947" fill="#313131" stroke-miterlimit="3.7"/><path d="M6.21634,260.43317v36.32663l-4.88437,5.54444v-47.41437z" data-paper-data="{&quot;index&quot;:null}" fill-opacity="0.98947" fill="#313131" stroke-miterlimit="3.7"/><path d="M38.22566,261.33027h-32.00932l-4.8844,-5.54331h41.77955z" data-paper-data="{&quot;index&quot;:null}" fill-opacity="0.98947" fill="#313131" stroke-miterlimit="3.7"/><path d="M43.11148,255.78696v11.20722h-4.88582v-5.66391z" data-paper-data="{&quot;index&quot;:null}" fill-opacity="0.98947" fill="#313131" stroke-miterlimit="3.7"/><path d="M38.22566,297.65713v-5.07695h4.88582v10.62139z" data-paper-data="{&quot;index&quot;:null}" fill-opacity="0.98947" fill="#313131" stroke-miterlimit="3.7"/><path d="M52.43745,302.85597v-45.04505h11.38639v45.04505z" fill="#313131" stroke-miterlimit="10"/></g></g></svg>