<svg version="1.1" xmlns="http://www.w3.org/2000/svg" xmlns:xlink="http://www.w3.org/1999/xlink" width="479.99999" height="359.99995" viewBox="0,0,479.99999,359.99995"><g transform="translate(0.375,0.53124)"><g data-paper-data="{&quot;isPaintingLayer&quot;:true}" fill-opacity="0.98947" fill="#313131" fill-rule="nonzero" stroke="none" stroke-linecap="butt" stroke-linejoin="miter" stroke-dasharray="" stroke-dashoffset="0" style="mix-blend-mode: normal"><path d="M435.07588,82.34319v276.69402h-34.5174v-276.69402z" stroke-width="0.56813" stroke-miterlimit="10"/><path d="M435.07588,-0.53101v54.37187h-34.5174v-54.37187z" stroke-width="0.56813" stroke-miterlimit="10"/><path d="M-0.375,27.97117v-28.5024h435.45113v28.5024z" stroke-width="0.56813" stroke-miterlimit="10"/><path d="M-0.37499,-0.53124h34.51747v359.56877h-34.51747z" stroke-width="0.56813" stroke-miterlimit="10"/><path d="M-0.37499,-0.53124h34.51747v359.56877h-34.51747z" stroke-width="0.56813" stroke-miterlimit="10"/><path d="M-0.375,359.46871v-28.5024h435.45113v28.5024z" stroke-width="0.56813" stroke-miterlimit="10"/><g stroke-width="0.32815" stroke-miterlimit="10"><path d="M59.75661,110.84556v-28.5024h75.51006v28.5024z"/><path d="M179.59555,110.84556v-28.5024h75.51006v28.5024z"/><path d="M299.4345,110.84556v-28.5024h75.51006v28.5024z"/></g><g stroke-width="0.32815" stroke-miterlimit="10"><path d="M59.75661,193.71996v-28.5024h75.51006v28.5024z"/><path d="M179.59555,193.71996v-28.5024h75.51006v28.5024z"/><path d="M299.4345,193.71996v-28.5024h75.51006v28.5024z"/></g><g stroke-width="0.32815" stroke-miterlimit="10"><path d="M59.75661,276.59435v-28.5024h75.51006v28.5024z"/><path d="M179.59555,276.59435v-28.5024h75.51006v28.5024z"/><path d="M299.4345,276.59435v-28.5024h75.51006v28.5024z"/></g><path d="M474.4168,48.18522h-34.13122l-5.2097,-6.17641h44.54911z" stroke-width="0.09102" stroke-miterlimit="3.7"/><path d="M474.4168,89.65203v-40.4672l5.20816,-6.17641v52.81874z" stroke-width="0.09102" stroke-miterlimit="3.7"/><path d="M440.28558,88.65268h34.13122l5.20819,6.17514h-44.54911z" stroke-width="0.09102" stroke-miterlimit="3.7"/><path d="M435.07588,94.82782v-12.48463h5.2097v6.30949z" stroke-width="0.09102" stroke-miterlimit="3.7"/><path d="M440.28558,48.18522v5.65563h-5.2097v-11.83204z" stroke-width="0.09102" stroke-miterlimit="3.7"/></g></g></svg>