<svg version="1.1" xmlns="http://www.w3.org/2000/svg" xmlns:xlink="http://www.w3.org/1999/xlink" width="200" height="217.77032" viewBox="0,0,200,217.77032"><g transform="translate(-140,-80)"><g data-paper-data="{&quot;isPaintingLayer&quot;:true}" fill-rule="nonzero" stroke-linecap="butt" stroke-linejoin="miter" stroke-miterlimit="10" stroke-dasharray="" stroke-dashoffset="0" style="mix-blend-mode: normal"><path d="M140,280v-200h200v200z" fill="none" stroke="none" stroke-width="0"/><path d="M185.43973,284.94628l91.28466,-16.84941l14.12193,11.62717l-91.28467,16.84941z" fill="#de7f00" stroke="#c36f00" stroke-width="2"/><path d="M193.78876,284.53264l76.82373,-14.1802l11.88479,9.78524l-76.82373,14.1802z" fill="#de7f00" stroke="#aa6000" stroke-width="3"/><text transform="translate(205.29455,290.19426) rotate(39.46402) scale(0.03544,0.06242) skewX(-55.99227)" font-size="40" xml:space="preserve" fill="#aa6000" fill-rule="nonzero" stroke="none" stroke-width="1" stroke-linecap="butt" stroke-linejoin="miter" stroke-miterlimit="10" stroke-dasharray="" stroke-dashoffset="0" font-family="Sans Serif" font-weight="normal" text-anchor="start" style="mix-blend-mode: normal"><tspan x="0" dy="0">U-235</tspan></text><text transform="translate(213.98498,288.52767) rotate(-10.45825) scale(0.36613,0.14774) skewX(18.75316)" font-size="40" xml:space="preserve" fill="#aa6000" fill-rule="nonzero" stroke="none" stroke-width="1" stroke-linecap="butt" stroke-linejoin="miter" stroke-miterlimit="10" stroke-dasharray="" stroke-dashoffset="0" font-family="Marker" font-weight="normal" text-anchor="start" style="mix-blend-mode: normal"><tspan x="0" dy="0">tempero</tspan></text><path d="M281.26385,270.13705l-2.49782,-2.13826l5.89886,0.19954z" fill="#f78c00" stroke="#c36f00" stroke-width="2"/><path d="M284.93189,273.15709l-2.49782,-2.13826l5.89885,0.19954z" fill="#f78c00" stroke="#c36f00" stroke-width="2"/><path d="M288.84445,276.37847l-2.49782,-2.13826l5.89886,0.19953z" fill="#f78c00" stroke="#c36f00" stroke-width="2"/><path d="M292.26795,279.19718l-2.49782,-2.13826l5.89886,0.19953z" fill="#f78c00" stroke="#c36f00" stroke-width="2"/><path d="M180.60882,287.40509l3.3424,-1.9053l2.65994,2.10834z" data-paper-data="{&quot;index&quot;:null}" fill="#f78c00" stroke="#c36f00" stroke-width="2"/><path d="M184.27685,290.42514l3.34241,-1.9053l2.65994,2.10834z" data-paper-data="{&quot;index&quot;:null}" fill="#f78c00" stroke="#c36f00" stroke-width="2"/><path d="M188.18942,293.64651l3.34241,-1.90529l2.65994,2.10834z" data-paper-data="{&quot;index&quot;:null}" fill="#f78c00" stroke="#c36f00" stroke-width="2"/><path d="M191.61291,296.46522l3.34241,-1.9053l2.65994,2.10834z" data-paper-data="{&quot;index&quot;:null}" fill="#f78c00" stroke="#c36f00" stroke-width="2"/></g></g></svg>