<svg version="1.1" xmlns="http://www.w3.org/2000/svg" xmlns:xlink="http://www.w3.org/1999/xlink" width="106.98828" height="106.98828" viewBox="0,0,106.98828,106.98828"><defs><radialGradient cx="239.99999" cy="179.99999" r="53.49414" gradientUnits="userSpaceOnUse" id="color-1"><stop offset="0" stop-color="#84fff9"/><stop offset="1" stop-color="#84fff9" stop-opacity="0"/></radialGradient><linearGradient x1="207.705" y1="179.82256" x2="269.58061" y2="179.82256" gradientUnits="userSpaceOnUse" id="color-2"><stop offset="0" stop-color="#94eaff"/><stop offset="1" stop-color="#002060"/></linearGradient><linearGradient x1="207.705" y1="179.82256" x2="269.58061" y2="179.82256" gradientUnits="userSpaceOnUse" id="color-3"><stop offset="0" stop-color="#94eaff"/><stop offset="1" stop-color="#002060"/></linearGradient><linearGradient x1="208.16769" y1="179.62806" x2="270.0433" y2="179.62806" gradientUnits="userSpaceOnUse" id="color-4"><stop offset="0" stop-color="#94eaff"/><stop offset="1" stop-color="#002060"/></linearGradient><linearGradient x1="208.16769" y1="179.62806" x2="270.0433" y2="179.62806" gradientUnits="userSpaceOnUse" id="color-5"><stop offset="0" stop-color="#94eaff"/><stop offset="1" stop-color="#002060"/></linearGradient><linearGradient x1="207.10443" y1="179.64513" x2="268.98003" y2="179.64513" gradientUnits="userSpaceOnUse" id="color-6"><stop offset="0" stop-color="#94eaff"/><stop offset="1" stop-color="#002060"/></linearGradient><linearGradient x1="207.10443" y1="179.64513" x2="268.98003" y2="179.64513" gradientUnits="userSpaceOnUse" id="color-7"><stop offset="0" stop-color="#94eaff"/><stop offset="1" stop-color="#002060"/></linearGradient><linearGradient x1="208.79701" y1="179.50185" x2="270.67262" y2="179.50185" gradientUnits="userSpaceOnUse" id="color-8"><stop offset="0" stop-color="#94eaff"/><stop offset="1" stop-color="#002060"/></linearGradient><linearGradient x1="208.79701" y1="179.50185" x2="270.67262" y2="179.50185" gradientUnits="userSpaceOnUse" id="color-9"><stop offset="0" stop-color="#94eaff"/><stop offset="1" stop-color="#002060"/></linearGradient><linearGradient x1="209.12444" y1="179.64513" x2="271.00005" y2="179.64513" gradientUnits="userSpaceOnUse" id="color-10"><stop offset="0" stop-color="#94eaff"/><stop offset="1" stop-color="#002060"/></linearGradient><linearGradient x1="209.12444" y1="179.64513" x2="271.00005" y2="179.64513" gradientUnits="userSpaceOnUse" id="color-11"><stop offset="0" stop-color="#94eaff"/><stop offset="1" stop-color="#002060"/></linearGradient></defs><g transform="translate(-186.50586,-126.50586)"><g data-paper-data="{&quot;isPaintingLayer&quot;:true}" fill-rule="nonzero" stroke-linecap="butt" stroke-linejoin="miter" stroke-miterlimit="10" stroke-dasharray="" stroke-dashoffset="0" style="mix-blend-mode: normal"><g><path d="M186.50586,179.99999c0,-29.54399 23.95014,-53.49413 53.49414,-53.49413c29.54399,0 53.49414,23.95014 53.49414,53.49414c0,29.54399 -23.95014,53.49414 -53.49414,53.49414c-29.54399,0 -53.49413,-23.95014 -53.49413,-53.49413z" fill="url(#color-1)" stroke="none" stroke-width="0"/><path d="M269.5297,194.24833c0.37516,5.84287 -1.3432,11.46784 -4.50056,16.26407c-9.98134,2.22936 -19.77975,4.62546 -30.0763,5.06303c-7.40968,0.31489 -14.81404,-0.15444 -21.37436,-3.4036c-2.60066,-3.5439 -4.45018,-7.66146 -5.31752,-12.1243c1.99167,-2.22897 5.35723,-3.7365 7.74822,-4.58815c13.49717,-4.80759 27.87215,-6.92464 42.12193,-7.79736c3.36849,-0.14635 6.85001,-0.1277 10.29769,-0.29892c0.68142,2.39557 1.1009,4.74032 1.1009,6.88524z" fill="url(#color-2)" stroke="url(#color-3)" stroke-width="1.5"/><path d="M208.16769,194.05383c0,-5.99796 2.78947,-15.23672 7.15205,-24.65501c4.98276,0.84925 10.13959,0.70916 15.16282,0.77385c6.72567,0.08661 13.43768,0.25004 20.16565,0.24792c3.78217,0.26741 7.54532,0.66938 11.2915,1.20915c1.90231,3.32416 4.13383,7.60327 5.76472,11.95763c-0.47823,0.00454 -0.92758,0.01358 -1.33887,0.03263c-2.65134,0.12285 -5.30304,0.23692 -7.95472,0.35229c-10.09468,0.61784 -20.14893,1.82832 -29.98168,4.24283c-5.01609,1.23174 -10.51018,2.24907 -15.1979,4.49685c-1.70046,0.81537 -3.46673,1.82337 -5.01662,3.04041c-0.03116,-0.56227 -0.04695,-1.12858 -0.04695,-1.69854z" fill="url(#color-4)" stroke="url(#color-5)" stroke-width="1.5"/><path d="M257.03859,165.3312c0.07743,0.16224 0.66726,1.05767 1.5464,2.47526c-2.94822,-0.37059 -5.90695,-0.65851 -8.87709,-0.86666c-6.75494,-0.00205 -13.49424,-0.1629 -20.24694,-0.24984c-4.48891,-0.05779 -9.09447,-0.0684 -13.54117,-0.72081c2.8099,-5.59635 6.12307,-11.12431 9.68416,-15.94128c0.9512,-0.23267 1.91091,-0.4062 2.87782,-0.50402c3.9248,-0.39704 8.21025,0.46297 12.03711,1.16386c4.367,0.79981 8.72913,1.83186 13.04479,3.05353c0.70599,3.87719 1.71253,7.89728 3.47491,11.58996z" fill="url(#color-6)" stroke="url(#color-7)" stroke-width="1.5"/><path d="M247.95265,134.51904c4.93281,0 5.42976,6.87913 6.68212,15.27471c-3.90707,-1.06265 -7.84759,-1.97009 -11.79304,-2.6921c-3.93761,-0.72057 -8.28465,-1.547 -12.34988,-1.26097c5.72194,-6.74564 11.86092,-11.32164 17.4608,-11.32164z" fill="url(#color-8)" stroke="url(#color-9)" stroke-width="1.5"/><path d="M240.03679,224.62794c-7.38672,0 -14.16831,-2.5611 -19.48559,-6.834c13.38021,3.57333 28.63624,0.138 42.36229,-3.04211c-5.75916,5.98908 -14.02227,9.87611 -22.8767,9.87611z" fill="url(#color-10)" stroke="url(#color-11)" stroke-width="1.5"/><path d="M252.38173,146.67207c-0.24476,0.05092 -0.29568,-0.19384 -0.29568,-0.19384l-0.04599,-0.22575c-0.4905,-1.23442 -0.26864,-2.64025 -0.43148,-3.94303c0,0 -0.03101,-0.24806 0.21706,-0.27908c0.24807,-0.03101 0.27908,0.21706 0.27908,0.21706c0.15847,1.26771 -0.06807,2.6637 0.41406,3.86073l0.05678,0.26824c0,0 0.05092,0.24475 -0.19384,0.29567z" fill="#ffffff" stroke="none" stroke-width="0.5"/><path d="M262.76227,209.62169c-0.25,0 -0.25,-0.25 -0.25,-0.25l0.0264,-0.23034c0.57729,-1.14728 1.04295,-2.33076 1.80194,-3.36475c1.13187,-2.27461 2.19576,-5.03527 2.20523,-7.58764c0.76154,-2.28462 0.35239,-5.375 0.35239,-7.78355c0,0 0,-0.25 0.25,-0.25c0.25,0 0.25,0.25 0.25,0.25c0,2.43503 0.41114,5.55365 -0.35885,7.86364c0.01018,2.5988 -1.11246,5.45901 -2.27231,7.76857c-0.75371,1.01969 -1.21618,2.19102 -1.78118,3.32734l0.02639,0.00673c0,0 0,0.25 -0.25,0.25z" fill="#ffffff" stroke="none" stroke-width="0.5"/><path d="M252.67351,221.93686c0,-0.20704 0.17146,-0.24262 0.23039,-0.24874c0.55942,-0.80038 2.12125,-1.56699 2.95546,-1.96925c1.04051,-1.05368 3.66878,-2.05029 4.05788,-3.55096c0,0 0.07906,-0.23717 0.31623,-0.15812c0.23717,0.07906 0.15811,0.31623 0.15811,0.31623c-0.64738,1.70865 -3.00243,2.57515 -4.23987,3.79847c-0.72106,0.37012 -2.58673,1.20576 -2.88605,1.92416l-0.34215,0.1382c0,0 -0.25,0 -0.25,-0.25z" fill="#ffffff" stroke="none" stroke-width="0.5"/><path d="M256.07273,166.32357c0.0729,0.02264 0.16801,0.08173 0.16801,0.23594c0,0.25 -0.25,0.25 -0.25,0.25l-0.32778,-0.17095c-0.09576,-0.31791 -0.44566,-0.78374 -0.68107,-1.0079c-1.12147,-1.76685 -1.71968,-3.83349 -2.39975,-5.78802c-0.54235,-1.6823 -0.46589,-3.65707 -0.46589,-5.42518c0,0 0,-0.25 0.25,-0.25c0.25,0 0.25,0.25 0.25,0.25c0,1.68988 -0.1154,3.67018 0.44024,5.26707c0.59047,1.83158 1.15887,4.04548 2.31208,5.62914c0.24376,0.25316 0.54092,0.65702 0.70416,1.00991z" fill="#ffffff" stroke="none" stroke-width="0.5"/><path d="M264.32111,182.84085c-0.25,0 -0.25,-0.25 -0.25,-0.25l0.02639,-0.06619c-0.60439,-1.21946 -0.81293,-2.78459 -1.26241,-4.13588c-0.45751,-1.83005 -1.54785,-3.65108 -2.38657,-5.29807c0,0 -0.1118,-0.2236 0.11181,-0.33541c0.22361,-0.11181 0.33541,0.11181 0.33541,0.11181c0.82812,1.69427 1.95217,3.51291 2.41941,5.38188c0.43919,1.31458 0.63466,2.87414 1.22957,4.05207l0.02639,0.2898c0,0 0,0.25 -0.25,0.25z" fill="#ffffff" stroke="none" stroke-width="0.5"/></g></g></g></svg>