<svg version="1.1" xmlns="http://www.w3.org/2000/svg" xmlns:xlink="http://www.w3.org/1999/xlink" width="516.51652" height="393.39339" viewBox="0,0,516.51652,393.39339"><g transform="translate(6.34009,24.2042)"><g data-paper-data="{&quot;isPaintingLayer&quot;:true}" fill-rule="nonzero" stroke="none" stroke-linecap="butt" stroke-linejoin="miter" stroke-dasharray="" stroke-dashoffset="0" style="mix-blend-mode: normal"><path d="M438.70754,92.287v249.87929h-31.17228v-249.87929z" fill-opacity="0.98947" fill="#313131" stroke-width="0.56813" stroke-miterlimit="10"/><path d="M438.70754,17.44423v49.10263h-31.17228v-49.10263z" fill-opacity="0.98947" fill="#313131" stroke-width="0.56813" stroke-miterlimit="10"/><path d="M45.45669,43.18423v-25.7402h393.25108v25.7402z" fill-opacity="0.98947" fill="#313131" stroke-width="0.56813" stroke-miterlimit="10"/><path d="M45.45669,342.55597v-25.7402h393.25108v25.7402z" fill-opacity="0.98947" fill="#313131" stroke-width="0.56813" stroke-miterlimit="10"/><g fill-opacity="0.98947" fill="#313131" stroke-width="0.32815" stroke-miterlimit="10"><path d="M99.76087,118.02717v-25.7402h68.1923v25.7402z"/><path d="M207.98609,118.02717v-25.7402h68.19229v25.7402z"/><path d="M316.2113,118.02717v-25.7402h68.1923v25.7402z"/></g><g fill-opacity="0.98947" fill="#313131" stroke-width="0.32815" stroke-miterlimit="10"><path d="M99.76087,192.87012v-25.7402h68.1923v25.7402z"/><path d="M207.98609,192.87012v-25.7402h68.19229v25.7402z"/><path d="M316.2113,192.87012v-25.7402h68.1923v25.7402z"/></g><g fill-opacity="0.98947" fill="#313131" stroke-width="0.32815" stroke-miterlimit="10"><path d="M99.76087,267.71306v-25.7402h68.1923v25.7402z"/><path d="M207.98609,267.71306v-25.7402h68.19229v25.7402z"/><path d="M316.2113,267.71306v-25.7402h68.1923v25.7402z"/></g><path d="M474.23588,61.43932h-30.82353l-4.70482,-5.57785h40.2318z" fill-opacity="0.98947" fill="#313131" stroke-width="0.09102" stroke-miterlimit="3.7"/><path d="M474.23588,98.88753v-36.54548l4.70343,-5.57785v47.70002z" fill-opacity="0.98947" fill="#313131" stroke-width="0.09102" stroke-miterlimit="3.7"/><path d="M443.41235,97.98503h30.82353l4.70346,5.5767h-40.2318z" fill-opacity="0.98947" fill="#313131" stroke-width="0.09102" stroke-miterlimit="3.7"/><path d="M438.70754,103.56173v-11.27473h4.70482v5.69803z" fill-opacity="0.98947" fill="#313131" stroke-width="0.09102" stroke-miterlimit="3.7"/><path d="M443.41235,61.43932v5.10753h-4.70482v-10.68538z" fill-opacity="0.98947" fill="#313131" stroke-width="0.09102" stroke-miterlimit="3.7"/><path d="M41.60077,267.51826v-249.87929h31.41116v249.87929z" data-paper-data="{&quot;index&quot;:null}" fill-opacity="0.98947" fill="#313131" stroke-width="0.56813" stroke-miterlimit="10"/><path d="M41.60077,342.36103v-49.10263h31.41116v49.10263z" data-paper-data="{&quot;index&quot;:null}" fill-opacity="0.98947" fill="#313131" stroke-width="0.56813" stroke-miterlimit="10"/><path d="M5.80016,298.36594h31.05973l4.74087,5.57785h-40.5401z" data-paper-data="{&quot;index&quot;:null}" fill-opacity="0.98947" fill="#313131" stroke-width="0.09102" stroke-miterlimit="3.7"/><path d="M5.80016,260.91773v36.54548l-4.73947,5.57785v-47.70002z" data-paper-data="{&quot;index&quot;:null}" fill-opacity="0.98947" fill="#313131" stroke-width="0.09102" stroke-miterlimit="3.7"/><path d="M36.85989,261.82023h-31.05973l-4.7395,-5.5767h40.5401z" data-paper-data="{&quot;index&quot;:null}" fill-opacity="0.98947" fill="#313131" stroke-width="0.09102" stroke-miterlimit="3.7"/><path d="M41.60077,256.24353v11.27473h-4.74087v-5.69803z" data-paper-data="{&quot;index&quot;:null}" fill-opacity="0.98947" fill="#313131" stroke-width="0.09102" stroke-miterlimit="3.7"/><path d="M36.85989,298.36594v-5.10753h4.74087v10.68538z" data-paper-data="{&quot;index&quot;:null}" fill-opacity="0.98947" fill="#313131" stroke-width="0.09102" stroke-miterlimit="3.7"/><path d="M-0.33408,256.57658v-261.26126h45.04505v261.26126z" fill="#b171ff" stroke-width="0" stroke-miterlimit="10"/><path d="M-3.33708,19.33934v-43.54354h513.51351v43.54354z" fill="#b171ff" stroke-width="0" stroke-miterlimit="10"/><path d="M-6.34009,369.18919v-28.52853h498.4985v28.52853z" fill="#b171ff" stroke-width="0" stroke-miterlimit="10"/><path d="M1.16742,366.18619v-63.06306h42.04204v63.06306z" fill="#b171ff" stroke-width="0" stroke-miterlimit="10"/><path d="M417.79783,99.14728v-45.04505h11.38639v45.04505z" fill="#313131" stroke-width="0" stroke-miterlimit="10"/></g></g></svg>