<svg version="1.1" xmlns="http://www.w3.org/2000/svg" xmlns:xlink="http://www.w3.org/1999/xlink" width="516.51653" height="393.3934" viewBox="0,0,516.51653,393.3934"><g transform="translate(6.34007,24.20421)"><g data-paper-data="{&quot;isPaintingLayer&quot;:true}" fill-rule="nonzero" stroke-linecap="butt" stroke-linejoin="miter" stroke-dasharray="" stroke-dashoffset="0" style="mix-blend-mode: normal"><path d="M437.31516,93.12884v247.4811h-30.87311v-247.48109z" fill-opacity="0.98947" fill="#313131" stroke="none" stroke-width="0.56813" stroke-miterlimit="10"/><path d="M437.31516,19.00435v48.63137h-30.87311v-48.63137z" fill-opacity="0.98947" fill="#313131" stroke="none" stroke-width="0.56813" stroke-miterlimit="10"/><path d="M47.8385,44.49733v-25.49316h389.47688v25.49316z" fill-opacity="0.98947" fill="#313131" stroke="none" stroke-width="0.56813" stroke-miterlimit="10"/><path d="M47.8385,340.99587v-25.49316h389.47688v25.49316z" fill-opacity="0.98947" fill="#313131" stroke="none" stroke-width="0.56813" stroke-miterlimit="10"/><path d="M472.50251,62.5772h-30.52769l-4.65966,-5.52431h39.84568z" fill-opacity="0.98947" fill="#313131" stroke="none" stroke-width="0.09102" stroke-miterlimit="3.7"/><path d="M472.50251,99.66602v-36.19474l4.65828,-5.52431v47.24222z" fill-opacity="0.98947" fill="#313131" stroke="none" stroke-width="0.09102" stroke-miterlimit="3.7"/><path d="M441.97482,98.77218h30.52771l4.65832,5.52317h-39.84568z" fill-opacity="0.98947" fill="#313131" stroke="none" stroke-width="0.09102" stroke-miterlimit="3.7"/><path d="M437.31516,104.29535v-11.16652h4.65966v5.64334z" fill-opacity="0.98947" fill="#313131" stroke="none" stroke-width="0.09102" stroke-miterlimit="3.7"/><path d="M441.97482,62.5772v5.05852h-4.65966v-10.58283z" fill-opacity="0.98947" fill="#313131" stroke="none" stroke-width="0.09102" stroke-miterlimit="3.7"/><path d="M103.86764,323.14619v-218.67423h9.28687v218.67423z" fill-opacity="0.98947" fill="#313131" stroke="none" stroke-width="0" stroke-miterlimit="10"/><path d="M156.0964,255.52738v-218.67423h9.28687v218.67423z" fill-opacity="0.98947" fill="#313131" stroke="none" stroke-width="0" stroke-miterlimit="10"/><path d="M210.01216,323.18931v-218.67423h9.61576v218.67423z" fill-opacity="0.98947" fill="#313131" stroke="none" stroke-width="0" stroke-miterlimit="10"/><path d="M210.22373,323.35665v-218.67423h9.28688v218.67423z" fill-opacity="0.98947" fill="#313131" stroke="none" stroke-width="0" stroke-miterlimit="10"/><path d="M262.45248,255.73784v-218.67423h9.28688v218.67423z" fill-opacity="0.98947" fill="#313131" stroke="none" stroke-width="0" stroke-miterlimit="10"/><path d="M316.36825,323.39975v-218.67423h9.61575v218.67423z" fill-opacity="0.98947" fill="#313131" stroke="none" stroke-width="0" stroke-miterlimit="10"/><path d="M211.14682,323.04909v-218.67423h9.28688v218.67423z" fill-opacity="0.98947" fill="#313131" stroke="none" stroke-width="0" stroke-miterlimit="10"/><path d="M263.37559,255.4303v-218.67423h9.28688v218.67423z" fill-opacity="0.98947" fill="#313131" stroke="none" stroke-width="0" stroke-miterlimit="10"/><path d="M317.29134,323.0922v-218.67423h9.61576v218.67423z" fill-opacity="0.98947" fill="#313131" stroke="none" stroke-width="0" stroke-miterlimit="10"/><path d="M317.50289,323.25955v-218.67423h9.28688v218.67423z" fill-opacity="0.98947" fill="#313131" stroke="none" stroke-width="0" stroke-miterlimit="10"/><path d="M369.73168,255.64074v-218.67423h9.28688v218.67423z" fill-opacity="0.98947" fill="#313131" stroke="none" stroke-width="0" stroke-miterlimit="10"/><path d="M44.2897,266.6783v-247.48109h32.11655v247.48109z" data-paper-data="{&quot;index&quot;:null}" fill-opacity="0.98947" fill="#313131" stroke="none" stroke-width="0.56813" stroke-miterlimit="10"/><path d="M44.2897,340.8028v-48.63138h32.11655v48.63138z" data-paper-data="{&quot;index&quot;:null}" fill-opacity="0.98947" fill="#313131" stroke="none" stroke-width="0.56813" stroke-miterlimit="10"/><path d="M7.68513,297.22995h31.75724l4.84733,5.5243h-41.4505z" data-paper-data="{&quot;index&quot;:null}" fill-opacity="0.98947" fill="#313131" stroke="none" stroke-width="0.09102" stroke-miterlimit="3.7"/><path d="M7.68513,260.14113v36.19474l-4.84591,5.52431v-47.24222z" data-paper-data="{&quot;index&quot;:null}" fill-opacity="0.98947" fill="#313131" stroke="none" stroke-width="0.09102" stroke-miterlimit="3.7"/><path d="M39.44236,261.03497h-31.75724l-4.84594,-5.52317h41.4505z" data-paper-data="{&quot;index&quot;:null}" fill-opacity="0.98947" fill="#313131" stroke="none" stroke-width="0.09102" stroke-miterlimit="3.7"/><path d="M44.2897,255.5118v11.16651h-4.84733v-5.64334z" data-paper-data="{&quot;index&quot;:null}" fill-opacity="0.98947" fill="#313131" stroke="none" stroke-width="0.09102" stroke-miterlimit="3.7"/><path d="M39.44236,297.22995v-5.05852h4.84733v10.58283z" data-paper-data="{&quot;index&quot;:null}" fill-opacity="0.98947" fill="#313131" stroke="none" stroke-width="0.09102" stroke-miterlimit="3.7"/><path d="M-0.33405,256.57658v-261.26126h45.04505v261.26126z" fill="#b171ff" stroke="none" stroke-width="0" stroke-miterlimit="10"/><path d="M-3.33705,19.33933v-43.54354h513.51351v43.54354z" fill="#b171ff" stroke="none" stroke-width="0" stroke-miterlimit="10"/><path d="M-6.34007,369.1892v-28.52853h498.4985v28.52853z" fill="#b171ff" stroke="none" stroke-width="0" stroke-miterlimit="10"/><path d="M1.16744,366.1862v-63.06306h42.04204v63.06306z" fill="#b171ff" stroke="none" stroke-width="0" stroke-miterlimit="10"/><path d="M52.43746,302.85597v-45.04505h11.38639v45.04505z" fill="#313131" stroke="#000000" stroke-width="0" stroke-miterlimit="10"/></g></g></svg>