<svg version="1.1" xmlns="http://www.w3.org/2000/svg" xmlns:xlink="http://www.w3.org/1999/xlink" width="496.11828" height="331.9917" viewBox="0,0,496.11828,331.9917"><g transform="translate(8.19946,-14.00415)"><g data-paper-data="{&quot;isPaintingLayer&quot;:true}" fill-rule="nonzero" stroke="#000000" stroke-width="10" stroke-linecap="butt" stroke-linejoin="miter" stroke-dasharray="" stroke-dashoffset="0" style="mix-blend-mode: normal"><path d="M437.31514,93.12882v247.4811h-30.87311v-247.48109z" fill-opacity="0.98947" fill="#313131" stroke-miterlimit="10"/><path d="M437.31514,19.00435v48.63137h-30.87311v-48.63137z" fill-opacity="0.98947" fill="#313131" stroke-miterlimit="10"/><path d="M47.83848,44.49731v-25.49316h389.47688v25.49316z" fill-opacity="0.98947" fill="#313131" stroke-miterlimit="10"/><path d="M47.83848,340.99585v-25.49316h389.47688v25.49316z" fill-opacity="0.98947" fill="#313131" stroke-miterlimit="10"/><path d="M472.50249,62.57718h-30.52769l-4.65966,-5.52431h39.84568z" fill-opacity="0.98947" fill="#313131" stroke-miterlimit="3.7"/><path d="M472.50249,99.666v-36.19474l4.65828,-5.52431v47.24222z" fill-opacity="0.98947" fill="#313131" stroke-miterlimit="3.7"/><path d="M441.9748,98.77216h30.52771l4.65832,5.52317h-39.84568z" fill-opacity="0.98947" fill="#313131" stroke-miterlimit="3.7"/><path d="M437.31514,104.29533v-11.16652h4.65966v5.64334z" fill-opacity="0.98947" fill="#313131" stroke-miterlimit="3.7"/><path d="M441.9748,62.57718v5.05852h-4.65966v-10.58283z" fill-opacity="0.98947" fill="#313131" stroke-miterlimit="3.7"/><path d="M103.86762,323.14618v-218.67423h9.28687v218.67423z" fill-opacity="0.98947" fill="#313131" stroke-miterlimit="10"/><path d="M156.09638,255.52738v-218.67423h9.28687v218.67423z" fill-opacity="0.98947" fill="#313131" stroke-miterlimit="10"/><path d="M210.01215,323.18931v-218.67423h9.61576v218.67423z" fill-opacity="0.98947" fill="#313131" stroke-miterlimit="10"/><path d="M210.22371,323.35663v-218.67423h9.28688v218.67423z" fill-opacity="0.98947" fill="#313131" stroke-miterlimit="10"/><path d="M262.45247,255.73782v-218.67423h9.28688v218.67423z" fill-opacity="0.98947" fill="#313131" stroke-miterlimit="10"/><path d="M316.36825,323.39975v-218.67423h9.61575v218.67423z" fill-opacity="0.98947" fill="#313131" stroke-miterlimit="10"/><path d="M211.1468,323.04909v-218.67423h9.28688v218.67423z" fill-opacity="0.98947" fill="#313131" stroke-miterlimit="10"/><path d="M263.37557,255.43029v-218.67423h9.28688v218.67423z" fill-opacity="0.98947" fill="#313131" stroke-miterlimit="10"/><path d="M317.29134,323.0922v-218.67423h9.61576v218.67423z" fill-opacity="0.98947" fill="#313131" stroke-miterlimit="10"/><path d="M317.50289,323.25954v-218.67423h9.28688v218.67423z" fill-opacity="0.98947" fill="#313131" stroke-miterlimit="10"/><path d="M369.73166,255.64073v-218.67423h9.28688v218.67423z" fill-opacity="0.98947" fill="#313131" stroke-miterlimit="10"/><path d="M44.28968,266.6783v-247.48109h32.11655v247.48109z" data-paper-data="{&quot;index&quot;:null}" fill-opacity="0.98947" fill="#313131" stroke-miterlimit="10"/><path d="M44.28968,340.80278v-48.63138h32.11655v48.63138z" data-paper-data="{&quot;index&quot;:null}" fill-opacity="0.98947" fill="#313131" stroke-miterlimit="10"/><path d="M7.68511,297.22994h31.75724l4.84733,5.5243h-41.4505z" data-paper-data="{&quot;index&quot;:null}" fill-opacity="0.98947" fill="#313131" stroke-miterlimit="3.7"/><path d="M7.68511,260.14112v36.19474l-4.84591,5.52431v-47.24222z" data-paper-data="{&quot;index&quot;:null}" fill-opacity="0.98947" fill="#313131" stroke-miterlimit="3.7"/><path d="M39.44234,261.03496h-31.75724l-4.84594,-5.52317h41.4505z" data-paper-data="{&quot;index&quot;:null}" fill-opacity="0.98947" fill="#313131" stroke-miterlimit="3.7"/><path d="M44.28968,255.51179v11.16651h-4.84733v-5.64334z" data-paper-data="{&quot;index&quot;:null}" fill-opacity="0.98947" fill="#313131" stroke-miterlimit="3.7"/><path d="M39.44234,297.22994v-5.05852h4.84733v10.58283z" data-paper-data="{&quot;index&quot;:null}" fill-opacity="0.98947" fill="#313131" stroke-miterlimit="3.7"/><path d="M417.79784,99.14729v-45.04505h11.38639v45.04505z" fill="#313131" stroke-miterlimit="10"/></g></g></svg>